<?xml version="1.0" encoding="UTF-8" standalone="no"?>
<!DOCTYPE svg PUBLIC "-//W3C//DTD SVG 1.1//EN" "http://www.w3.org/Graphics/SVG/1.1/DTD/svg11.dtd">
<svg width="100%" height="100%" viewBox="0 0 3300 2200" version="1.1" xmlns="http://www.w3.org/2000/svg" xmlns:xlink="http://www.w3.org/1999/xlink" xml:space="preserve" xmlns:serif="http://www.serif.com/" style="fill-rule:evenodd;clip-rule:evenodd;">
    <g id="Notes">
        <rect id="artboard" x="0" y="0" width="3300" height="2200" style="fill:white;"/>
        <path d="M263,292L3036,292" style="fill:none;fill-rule:nonzero;stroke:black;stroke-width:0.5px;"/>
        <text x="263px" y="322px" style="font-family:'SFPro-Black', 'SF Pro';font-size:13px;">W<tspan x="274.312px " y="322px ">e</tspan>ight/Scale V<tspan x="345.316px " y="322px ">a</tspan>riations</text>
        <text x="535.003px" y="322px" style="font-family:'SFPro-Black', 'SF Pro';font-size:13px;">Ultr<tspan x="554.503px " y="322px ">a</tspan>light</text>
        <text x="844.377px" y="322px" style="font-family:'SFPro-Black', 'SF Pro';font-size:13px;">Thin</text>
        <text x="1139.35px" y="322px" style="font-family:'SFPro-Black', 'SF Pro';font-size:13px;">Light</text>
        <text x="1429.03px" y="322px" style="font-family:'SFPro-Black', 'SF Pro';font-size:13px;">Regular</text>
        <text x="1724.25px" y="322px" style="font-family:'SFPro-Black', 'SF Pro';font-size:13px;">Medium</text>
        <text x="2017.55px" y="322px" style="font-family:'SFPro-Black', 'SF Pro';font-size:13px;">Semibold</text>
        <text x="2327.68px" y="322px" style="font-family:'SFPro-Black', 'SF Pro';font-size:13px;">Bold</text>
        <text x="2619.25px" y="322px" style="font-family:'SFPro-Black', 'SF Pro';font-size:13px;">Heavy</text>
        <text x="2918.47px" y="322px" style="font-family:'SFPro-Black', 'SF Pro';font-size:13px;">Black</text>
        <path d="M263,1903L3036,1903" style="fill:none;fill-rule:nonzero;stroke:black;stroke-width:0.5px;"/>
        <g>
            <path d="M272.248,1933.83C273.329,1933.83 274.344,1933.62 275.295,1933.22C276.245,1932.81 277.084,1932.24 277.81,1931.51C278.535,1930.78 279.105,1929.94 279.519,1928.99C279.932,1928.04 280.139,1927.02 280.139,1925.95C280.139,1924.88 279.932,1923.86 279.519,1922.91C279.105,1921.96 278.534,1921.12 277.805,1920.39C277.076,1919.66 276.236,1919.09 275.285,1918.68C274.335,1918.27 273.319,1918.07 272.238,1918.07C271.164,1918.07 270.152,1918.27 269.201,1918.68C268.251,1919.09 267.414,1919.66 266.691,1920.39C265.969,1921.12 265.401,1921.96 264.987,1922.91C264.574,1923.86 264.367,1924.88 264.367,1925.95C264.367,1927.02 264.574,1928.04 264.987,1928.99C265.401,1929.94 265.97,1930.78 266.696,1931.51C267.422,1932.24 268.26,1932.81 269.211,1933.22C270.161,1933.62 271.174,1933.83 272.248,1933.83ZM272.248,1932.35C271.363,1932.35 270.534,1932.18 269.763,1931.85C268.991,1931.52 268.314,1931.07 267.731,1930.48C267.149,1929.89 266.693,1929.21 266.364,1928.44C266.035,1927.66 265.871,1926.84 265.871,1925.95C265.871,1925.06 266.034,1924.23 266.359,1923.46C266.685,1922.68 267.139,1922 267.722,1921.42C268.304,1920.83 268.981,1920.38 269.753,1920.05C270.524,1919.72 271.353,1919.55 272.238,1919.55C273.13,1919.55 273.962,1919.72 274.733,1920.05C275.505,1920.38 276.184,1920.83 276.77,1921.42C277.355,1922 277.814,1922.68 278.147,1923.46C278.479,1924.23 278.645,1925.06 278.645,1925.95C278.645,1926.84 278.48,1927.66 278.151,1928.44C277.823,1929.21 277.367,1929.89 276.784,1930.48C276.202,1931.07 275.523,1931.52 274.748,1931.85C273.973,1932.18 273.14,1932.35 272.248,1932.35ZM268.84,1925.96C268.84,1926.17 268.908,1926.35 269.045,1926.48C269.182,1926.62 269.364,1926.68 269.592,1926.68L271.506,1926.68L271.506,1928.61C271.506,1928.83 271.573,1929.01 271.706,1929.14C271.84,1929.28 272.014,1929.35 272.229,1929.35C272.45,1929.35 272.629,1929.28 272.766,1929.14C272.902,1929.01 272.971,1928.83 272.971,1928.61L272.971,1926.68L274.895,1926.68C275.116,1926.68 275.295,1926.62 275.432,1926.48C275.568,1926.35 275.637,1926.17 275.637,1925.96C275.637,1925.74 275.568,1925.56 275.432,1925.42C275.295,1925.29 275.116,1925.22 274.895,1925.22L272.971,1925.22L272.971,1923.3C272.971,1923.08 272.902,1922.89 272.766,1922.76C272.629,1922.62 272.45,1922.55 272.229,1922.55C272.014,1922.55 271.84,1922.62 271.706,1922.76C271.573,1922.89 271.506,1923.08 271.506,1923.3L271.506,1925.22L269.592,1925.22C269.364,1925.22 269.182,1925.29 269.045,1925.42C268.908,1925.56 268.84,1925.74 268.84,1925.96Z" style="fill-rule:nonzero;"/>
        </g>
        <g>
            <path d="M293.576,1935.91C294.937,1935.91 296.218,1935.65 297.419,1935.13C298.62,1934.61 299.68,1933.89 300.598,1932.97C301.515,1932.05 302.235,1930.99 302.756,1929.79C303.277,1928.59 303.537,1927.31 303.537,1925.95C303.537,1924.59 303.277,1923.31 302.756,1922.11C302.235,1920.9 301.515,1919.85 300.598,1918.93C299.68,1918.01 298.618,1917.29 297.414,1916.77C296.209,1916.25 294.927,1915.99 293.566,1915.99C292.206,1915.99 290.925,1916.25 289.723,1916.77C288.522,1917.29 287.464,1918.01 286.55,1918.93C285.635,1919.85 284.917,1920.9 284.396,1922.11C283.875,1923.31 283.615,1924.59 283.615,1925.95C283.615,1927.31 283.875,1928.59 284.396,1929.79C284.917,1930.99 285.637,1932.05 286.555,1932.97C287.472,1933.89 288.532,1934.61 289.733,1935.13C290.934,1935.65 292.215,1935.91 293.576,1935.91ZM293.576,1934.25C292.424,1934.25 291.346,1934.04 290.344,1933.61C289.341,1933.18 288.46,1932.58 287.702,1931.82C286.944,1931.07 286.351,1930.18 285.925,1929.18C285.498,1928.18 285.285,1927.1 285.285,1925.95C285.285,1924.8 285.498,1923.72 285.925,1922.72C286.351,1921.71 286.942,1920.83 287.697,1920.07C288.452,1919.31 289.331,1918.72 290.334,1918.29C291.336,1917.86 292.414,1917.65 293.566,1917.65C294.719,1917.65 295.796,1917.86 296.799,1918.29C297.801,1918.72 298.683,1919.31 299.445,1920.07C300.207,1920.83 300.803,1921.71 301.232,1922.72C301.662,1923.72 301.877,1924.8 301.877,1925.95C301.877,1927.1 301.664,1928.18 301.237,1929.18C300.811,1930.18 300.218,1931.07 299.46,1931.82C298.701,1932.58 297.819,1933.18 296.813,1933.61C295.807,1934.04 294.728,1934.25 293.576,1934.25ZM289.26,1925.96C289.26,1926.19 289.338,1926.38 289.494,1926.54C289.65,1926.68 289.852,1926.76 290.099,1926.76L292.746,1926.76L292.746,1929.43C292.746,1929.67 292.821,1929.86 292.971,1930.02C293.12,1930.17 293.312,1930.25 293.547,1930.25C293.794,1930.25 293.996,1930.17 294.152,1930.02C294.308,1929.86 294.387,1929.67 294.387,1929.43L294.387,1926.76L297.043,1926.76C297.284,1926.76 297.482,1926.68 297.639,1926.54C297.795,1926.38 297.873,1926.19 297.873,1925.96C297.873,1925.71 297.795,1925.51 297.639,1925.36C297.482,1925.2 297.284,1925.13 297.043,1925.13L294.387,1925.13L294.387,1922.48C294.387,1922.23 294.308,1922.03 294.152,1921.87C293.996,1921.72 293.794,1921.64 293.547,1921.64C293.312,1921.64 293.12,1921.72 292.971,1921.87C292.821,1922.03 292.746,1922.23 292.746,1922.48L292.746,1925.13L290.099,1925.13C289.846,1925.13 289.642,1925.2 289.489,1925.36C289.336,1925.51 289.26,1925.71 289.26,1925.96Z" style="fill-rule:nonzero;"/>
        </g>
        <g>
            <path d="M320.617,1938.66C322.01,1938.66 323.34,1938.45 324.606,1938.02C325.872,1937.58 327.036,1936.98 328.097,1936.19C329.158,1935.41 330.081,1934.49 330.866,1933.43C331.65,1932.37 332.259,1931.2 332.692,1929.93C333.125,1928.66 333.341,1927.34 333.341,1925.95C333.341,1924.56 333.125,1923.23 332.692,1921.96C332.259,1920.69 331.65,1919.53 330.866,1918.47C330.081,1917.41 329.158,1916.49 328.097,1915.7C327.036,1914.92 325.871,1914.31 324.601,1913.87C323.332,1913.44 322,1913.23 320.607,1913.23C319.214,1913.23 317.884,1913.44 316.618,1913.87C315.351,1914.31 314.189,1914.92 313.131,1915.7C312.073,1916.49 311.152,1917.41 310.368,1918.47C309.583,1919.53 308.976,1920.69 308.546,1921.96C308.117,1923.23 307.902,1924.56 307.902,1925.95C307.902,1927.34 308.118,1928.66 308.551,1929.93C308.984,1931.2 309.591,1932.37 310.373,1933.43C311.154,1934.49 312.075,1935.41 313.136,1936.19C314.197,1936.98 315.361,1937.58 316.627,1938.02C317.894,1938.45 319.224,1938.66 320.617,1938.66ZM320.617,1936.85C319.412,1936.85 318.265,1936.66 317.174,1936.3C316.084,1935.93 315.086,1935.41 314.181,1934.75C313.276,1934.08 312.49,1933.3 311.823,1932.39C311.155,1931.48 310.639,1930.48 310.275,1929.39C309.91,1928.3 309.728,1927.15 309.728,1925.95C309.728,1924.74 309.91,1923.59 310.275,1922.5C310.639,1921.41 311.154,1920.41 311.818,1919.5C312.482,1918.59 313.266,1917.81 314.171,1917.14C315.076,1916.48 316.074,1915.96 317.165,1915.6C318.255,1915.23 319.403,1915.05 320.607,1915.05C321.818,1915.05 322.969,1915.23 324.059,1915.6C325.15,1915.96 326.149,1916.48 327.057,1917.14C327.965,1917.81 328.751,1918.59 329.416,1919.5C330.08,1920.41 330.596,1921.41 330.963,1922.5C331.331,1923.59 331.515,1924.74 331.515,1925.95C331.522,1927.15 331.343,1928.3 330.978,1929.39C330.613,1930.48 330.098,1931.48 329.43,1932.39C328.763,1933.3 327.975,1934.08 327.067,1934.75C326.159,1935.41 325.159,1935.93 324.069,1936.3C322.978,1936.66 321.828,1936.85 320.617,1936.85ZM315.099,1925.96C315.099,1926.21 315.185,1926.42 315.358,1926.59C315.53,1926.76 315.75,1926.84 316.017,1926.84L319.709,1926.84L319.709,1930.54C319.709,1930.81 319.792,1931.02 319.958,1931.19C320.124,1931.36 320.333,1931.45 320.587,1931.45C320.861,1931.45 321.082,1931.36 321.252,1931.19C321.421,1931.02 321.505,1930.81 321.505,1930.54L321.505,1926.84L325.207,1926.84C325.473,1926.84 325.692,1926.76 325.861,1926.59C326.03,1926.42 326.115,1926.21 326.115,1925.96C326.115,1925.69 326.03,1925.46 325.861,1925.3C325.692,1925.13 325.473,1925.04 325.207,1925.04L321.505,1925.04L321.505,1921.35C321.505,1921.08 321.421,1920.86 321.252,1920.69C321.082,1920.52 320.861,1920.43 320.587,1920.43C320.333,1920.43 320.124,1920.52 319.958,1920.69C319.792,1920.86 319.709,1921.08 319.709,1921.35L319.709,1925.04L316.017,1925.04C315.744,1925.04 315.522,1925.13 315.353,1925.3C315.184,1925.46 315.099,1925.69 315.099,1925.96Z" style="fill-rule:nonzero;"/>
        </g>
        <text x="263px" y="1953px" style="font-family:'SFPro-Black', 'SF Pro';font-size:13px;">Design V<tspan x="311.109px " y="1953px ">a</tspan>riations</text>
        <text x="263px" y="1971px" style="font-family:'SFPro-Black', 'SF Pro';font-size:13px;">Symbols ar<tspan x="323.157px " y="1971px ">e</tspan> support<tspan x="374.293px " y="1971px ">e</tspan>d in up t<tspan x="423.393px " y="1971px ">o</tspan> nine weights and thr<tspan x="541.922px " y="1971px ">e</tspan>e scales.</text>
        <text x="263px" y="1989px" style="font-family:'SFPro-Black', 'SF Pro';font-size:13px;">F<tspan x="269.608px " y="1989px ">o</tspan>r optimal lay<tspan x="341.349px " y="1989px ">o</tspan>ut with t<tspan x="390.975px 397.507px " y="1989px 1989px ">ex</tspan>t and other symbols,<tspan x="512.342px 515.008px 521.032px " y="1989px 1989px 1989px "> ve</tspan>rtically align</text>
        <text x="263px" y="2007px" style="font-family:'SFPro-Black', 'SF Pro';font-size:13px;">symbols with the adjacent t<tspan x="410.342px 416.874px " y="2007px 2007px ">ex</tspan>t.</text>
        <path d="M776,1919L776,1933" style="fill:none;fill-rule:nonzero;stroke:rgb(0,174,239);stroke-width:0.5px;"/>
        <g>
            <path d="M779.311,1933.16C779.571,1933.16 779.773,1933.1 779.916,1932.99C780.059,1932.88 780.176,1932.69 780.268,1932.41L781.527,1928.97L787.289,1928.97L788.549,1932.41C788.64,1932.69 788.757,1932.88 788.9,1932.99C789.044,1933.1 789.242,1933.16 789.496,1933.16C789.757,1933.16 789.963,1933.09 790.116,1932.94C790.269,1932.8 790.346,1932.6 790.346,1932.36C790.346,1932.21 790.31,1932.03 790.238,1931.83L785.658,1919.63C785.541,1919.33 785.382,1919.11 785.18,1918.96C784.978,1918.81 784.721,1918.73 784.408,1918.73C783.803,1918.73 783.393,1919.03 783.178,1919.62L778.598,1931.84C778.526,1932.04 778.49,1932.22 778.49,1932.37C778.49,1932.61 778.563,1932.81 778.71,1932.95C778.856,1933.09 779.057,1933.16 779.311,1933.16ZM782.006,1927.48L784.379,1920.91L784.428,1920.91L786.801,1927.48L782.006,1927.48Z" style="fill-rule:nonzero;"/>
        </g>
        <path d="M793.197,1919L793.197,1933" style="fill:none;fill-rule:nonzero;stroke:rgb(0,174,239);stroke-width:0.5px;"/>
        <text x="776px" y="1953px" style="font-family:'SFPro-Black', 'SF Pro';font-size:13px;">M<tspan x="786.613px 793.139px 796.827px " y="1953px 1953px 1953px ">arg</tspan>ins</text>
        <text x="776px" y="1971px" style="font-family:'SFPro-Black', 'SF Pro';font-size:13px;">L<tspan x="782.627px " y="1971px ">e</tspan>ading and tr<tspan x="853.372px " y="1971px ">a</tspan>iling mar<tspan x="905.213px " y="1971px ">g</tspan>ins on the left and right side of each symbol</text>
        <text x="776px" y="1989px" style="font-family:'SFPro-Black', 'SF Pro';font-size:13px;">can be adjust<tspan x="848.09px " y="1989px ">e</tspan>d b<tspan x="871.558px " y="1989px ">y</tspan> modifying the x<tspan x="963.446px " y="1989px ">-</tspan>location of the mar<tspan x="1069.04px " y="1989px ">g</tspan>in guidelines.</text>
        <text x="776px" y="2007px" style="font-family:'SFPro-Black', 'SF Pro';font-size:13px;">Modifications ar<tspan x="862.519px " y="2007px ">e</tspan> aut<tspan x="888.944px " y="2007px ">o</tspan>matically applied pr<tspan x="1000.23px " y="2007px ">o</tspan>portionally t<tspan x="1070.07px " y="2007px ">o</tspan> all</text>
        <text x="776px" y="2025px" style="font-family:'SFPro-Black', 'SF Pro';font-size:13px;">scales and weights.</text>
        <g>
            <path d="M1291.84,1934.87L1293.54,1936.57C1293.97,1937.01 1294.42,1937.21 1294.9,1937.18C1295.38,1937.15 1295.85,1936.87 1296.31,1936.36L1307.01,1924.57L1306.04,1923.6L1295.43,1935.28C1295.25,1935.48 1295.07,1935.59 1294.89,1935.62C1294.71,1935.64 1294.51,1935.54 1294.27,1935.31L1293.1,1934.14C1292.87,1933.91 1292.77,1933.7 1292.79,1933.52C1292.82,1933.34 1292.94,1933.16 1293.14,1932.98L1304.62,1922.18L1303.64,1921.21L1292.05,1932.1C1291.55,1932.56 1291.29,1933.02 1291.25,1933.5C1291.21,1933.97 1291.41,1934.43 1291.84,1934.87ZM1298.26,1916.67C1298.05,1916.87 1297.93,1917.11 1297.91,1917.37C1297.88,1917.63 1297.93,1917.85 1298.04,1918.05C1298.16,1918.23 1298.33,1918.37 1298.56,1918.46C1298.78,1918.55 1299.06,1918.56 1299.38,1918.48C1300.11,1918.31 1300.85,1918.24 1301.6,1918.27C1302.35,1918.3 1303.08,1918.55 1303.8,1919.02L1303.21,1920.47C1303.04,1920.89 1302.99,1921.25 1303.07,1921.56C1303.14,1921.87 1303.31,1922.16 1303.58,1922.43L1305.88,1924.75C1306.12,1925 1306.35,1925.14 1306.58,1925.18C1306.81,1925.22 1307.06,1925.21 1307.34,1925.16L1308.4,1924.96L1309.07,1925.64L1309.03,1926.19C1309.01,1926.44 1309.04,1926.67 1309.12,1926.88C1309.2,1927.09 1309.37,1927.31 1309.61,1927.55L1310.37,1928.29C1310.61,1928.53 1310.87,1928.66 1311.15,1928.67C1311.44,1928.68 1311.69,1928.57 1311.93,1928.33L1314.84,1925.41C1315.07,1925.18 1315.19,1924.92 1315.18,1924.65C1315.17,1924.37 1315.05,1924.11 1314.81,1923.87L1314.04,1923.11C1313.81,1922.87 1313.59,1922.7 1313.38,1922.61C1313.17,1922.53 1312.95,1922.49 1312.71,1922.51L1312.13,1922.56L1311.49,1921.93L1311.73,1920.8C1311.8,1920.52 1311.79,1920.26 1311.69,1920.02C1311.6,1919.77 1311.41,1919.5 1311.12,1919.21L1308.92,1917.02C1308.09,1916.2 1307.2,1915.58 1306.26,1915.16C1305.32,1914.75 1304.37,1914.54 1303.42,1914.52C1302.46,1914.5 1301.55,1914.68 1300.66,1915.04C1299.78,1915.41 1298.98,1915.95 1298.26,1916.67ZM1299.75,1917.04C1300.36,1916.6 1301.01,1916.29 1301.7,1916.1C1302.39,1915.91 1303.1,1915.85 1303.81,1915.91C1304.51,1915.98 1305.2,1916.17 1305.87,1916.49C1306.54,1916.8 1307.15,1917.24 1307.7,1917.8L1310.13,1920.21C1310.25,1920.32 1310.32,1920.44 1310.35,1920.55C1310.38,1920.66 1310.38,1920.8 1310.34,1920.97L1310.02,1922.45L1311.52,1923.94L1312.51,1923.88C1312.63,1923.87 1312.72,1923.88 1312.79,1923.9C1312.85,1923.93 1312.94,1923.99 1313.03,1924.08L1313.61,1924.66L1311.17,1927.1L1310.59,1926.53C1310.49,1926.43 1310.43,1926.35 1310.41,1926.28C1310.38,1926.22 1310.37,1926.12 1310.38,1925.99L1310.44,1925.01L1308.95,1923.53L1307.43,1923.78C1307.27,1923.81 1307.14,1923.82 1307.04,1923.8C1306.95,1923.77 1306.84,1923.7 1306.71,1923.59L1304.71,1921.58C1304.58,1921.47 1304.51,1921.35 1304.49,1921.25C1304.48,1921.14 1304.51,1921 1304.59,1920.81L1305.46,1918.72C1304.68,1917.99 1303.81,1917.49 1302.83,1917.21C1301.85,1916.93 1300.86,1916.94 1299.84,1917.24C1299.76,1917.26 1299.71,1917.24 1299.69,1917.19C1299.67,1917.15 1299.69,1917.1 1299.75,1917.04Z" style="fill-rule:nonzero;"/>
        </g>
        <text x="1289px" y="1953px" style="font-family:'SFPro-Black', 'SF Pro';font-size:13px;">Exporting</text>
        <text x="1289px" y="1971px" style="font-family:'SFPro-Black', 'SF Pro';font-size:13px;">Symbols should be outlined when e<tspan x="1480.17px " y="1971px ">x</tspan>porting t<tspan x="1531.28px " y="1971px ">o</tspan> ensur<tspan x="1570.94px " y="1971px ">e</tspan> the</text>
        <text x="1289px" y="1989px" style="font-family:'SFPro-Black', 'SF Pro';font-size:13px;">design is pr<tspan x="1350.46px " y="1989px ">e</tspan>serv<tspan x="1379.85px " y="1989px ">e</tspan>d when submitting t<tspan x="1492.96px " y="1989px ">o</tspan> X<tspan x="1510.34px " y="1989px ">c</tspan>ode.</text>
        <text id="template-version" x="2957.44px" y="1933px" style="font-family:'SFPro-Black', 'SF Pro';font-size:13px;">T<tspan x="2963.28px " y="1933px ">e</tspan>mplat<tspan x="3000.43px " y="1933px ">e</tspan> v<tspan x="3015.08px 3017.82px 3025.32px " y="1933px 1933px 1933px ">.3.</tspan>0</text>
        <text x="2879.99px" y="1951px" style="font-family:'SFPro-Black', 'SF Pro';font-size:13px;">Requir<tspan x="2914.79px " y="1951px ">e</tspan>s X<tspan x="2937.97px " y="1951px ">c</tspan>ode 13 or gr<tspan x="3008.43px " y="1951px ">e</tspan>at<tspan x="3025.34px " y="1951px ">e</tspan>r</text>
        <text id="descriptive-name" x="2966.86px" y="1969px" style="font-family:'SFPro-Black', 'SF Pro';font-size:13px;">GitHub L<tspan x="3015.07px " y="1969px ">o</tspan>go</text>
        <text x="2919.72px" y="1987px" style="font-family:'SFPro-Black', 'SF Pro';font-size:13px;">T<tspan x="2925.75px " y="1987px ">y</tspan>peset at 100 points</text>
        <text x="263px" y="726px" style="font-family:'SFPro-Black', 'SF Pro';font-size:13px;">Small</text>
        <text x="263px" y="1156px" style="font-family:'SFPro-Black', 'SF Pro';font-size:13px;">Medium</text>
        <text x="263px" y="1586px" style="font-family:'SFPro-Black', 'SF Pro';font-size:13px;">Lar<tspan x="280.031px " y="1586px ">g</tspan>e</text>
    </g>
    <g id="Guides">
        <g id="H-reference">
            <path d="M339.993,696L342.638,696L368.328,628.867L369.03,628.867L369.03,625.541L367.123,625.541L339.993,696ZM350.688,671.52L385.982,671.52L385.231,669.271L351.438,669.271L350.688,671.52ZM394.119,696L396.764,696L369.638,625.541L368.433,625.541L368.433,628.867L394.119,696Z" style="fill:rgb(39,170,225);fill-rule:nonzero;"/>
        </g>
        <path id="Baseline-S" d="M263,696L3036,696" style="fill:none;fill-rule:nonzero;stroke:rgb(39,170,225);stroke-width:0.5px;"/>
        <path id="Capline-S" d="M263,625.541L3036,625.541" style="fill:none;fill-rule:nonzero;stroke:rgb(39,170,225);stroke-width:0.5px;"/>
        <g id="H-reference1" serif:id="H-reference">
            <path d="M339.993,1126L342.638,1126L368.328,1058.87L369.03,1058.87L369.03,1055.54L367.123,1055.54L339.993,1126ZM350.688,1101.52L385.982,1101.52L385.231,1099.27L351.438,1099.27L350.688,1101.52ZM394.119,1126L396.764,1126L369.638,1055.54L368.433,1055.54L368.433,1058.87L394.119,1126Z" style="fill:rgb(39,170,225);fill-rule:nonzero;"/>
        </g>
        <path id="Baseline-M" d="M263,1126L3036,1126" style="fill:none;fill-rule:nonzero;stroke:rgb(39,170,225);stroke-width:0.5px;"/>
        <path id="Capline-M" d="M263,1055.54L3036,1055.54" style="fill:none;fill-rule:nonzero;stroke:rgb(39,170,225);stroke-width:0.5px;"/>
        <g id="H-reference2" serif:id="H-reference">
            <path d="M339.993,1556L342.638,1556L368.328,1488.87L369.03,1488.87L369.03,1485.54L367.123,1485.54L339.993,1556ZM350.688,1531.52L385.982,1531.52L385.231,1529.27L351.438,1529.27L350.688,1531.52ZM394.119,1556L396.764,1556L369.638,1485.54L368.433,1485.54L368.433,1488.87L394.119,1556Z" style="fill:rgb(39,170,225);fill-rule:nonzero;"/>
        </g>
        <path id="Baseline-L" d="M263,1556L3036,1556" style="fill:none;fill-rule:nonzero;stroke:rgb(39,170,225);stroke-width:0.5px;"/>
        <path id="Capline-L" d="M263,1485.54L3036,1485.54" style="fill:none;fill-rule:nonzero;stroke:rgb(39,170,225);stroke-width:0.5px;"/>
        <path id="left-margin-Regular-M" d="M1394.74,1030.79L1394.74,1150.12" style="fill:none;fill-rule:nonzero;stroke:rgb(0,174,239);stroke-width:0.5px;"/>
        <path id="right-margin-Regular-M" d="M1504.95,1030.79L1504.95,1150.12" style="fill:none;fill-rule:nonzero;stroke:rgb(0,174,239);stroke-width:0.5px;"/>
    </g>
    <g id="Symbols">
        <g id="Regular-M">
            <path d="M1458.62,1050.38C1458.84,1048.62 1457.87,1046.92 1456.24,1046.21C1454.61,1045.51 1452.71,1045.96 1451.58,1047.32L1409.88,1097.35C1408.89,1098.55 1408.67,1100.2 1409.33,1101.61C1409.99,1103.02 1411.4,1103.91 1412.95,1103.91L1445.95,1103.91C1445.95,1103.91 1442.34,1132.77 1442.34,1132.77C1442.12,1134.54 1443.09,1136.23 1444.72,1136.94C1446.35,1137.64 1448.25,1137.19 1449.38,1135.83L1491.08,1085.8C1492.07,1084.61 1492.28,1082.94 1491.62,1081.54C1490.97,1080.13 1489.56,1079.24 1488,1079.24L1455.01,1079.24C1455.01,1079.24 1458.62,1050.38 1458.62,1050.38ZM1448.99,1062.92L1446.51,1082.74C1446.37,1083.88 1446.72,1085.02 1447.48,1085.88C1448.24,1086.74 1449.33,1087.24 1450.48,1087.24L1479.46,1087.24C1479.46,1087.24 1451.97,1120.23 1451.97,1120.23C1451.97,1120.23 1454.45,1100.41 1454.45,1100.41C1454.59,1099.27 1454.24,1098.13 1453.48,1097.27C1452.72,1096.41 1451.62,1095.91 1450.48,1095.91L1421.49,1095.91L1448.99,1062.92Z"/>
        </g>
    </g>
</svg>
