<?xml version="1.0" encoding="UTF-8"?>
<!--Generator: Apple Native CoreSVG 149-->
<!DOCTYPE svg
PUBLIC "-//W3C//DTD SVG 1.1//EN"
       "http://www.w3.org/Graphics/SVG/1.1/DTD/svg11.dtd">
<svg version="1.1" xmlns="http://www.w3.org/2000/svg" xmlns:xlink="http://www.w3.org/1999/xlink" width="3300" height="2200">
 <!--glyph: "uni100269.medium", point size: 100.0, font version: "17.0d8e1", template writer version: "58"-->
 <g id="Notes">
  <rect height="2200" id="artboard" style="fill:white;opacity:1" width="3300" x="0" y="0"/>
  <line style="fill:none;stroke:black;opacity:1;stroke-width:0.5;" x1="263" x2="3036" y1="292" y2="292"/>
  <text style="stroke:none;fill:black;font-family:SF Pro,SF Pro Display,SF Pro Text,sans-serif;font-size:13;font-weight:bold;" transform="matrix(1 0 0 1 263 322)">Weight/Scale Variations</text>
  <text style="stroke:none;fill:black;font-family:SF Pro,SF Pro Display,SF Pro Text,sans-serif;font-size:13;text-anchor:middle;" transform="matrix(1 0 0 1 559.711 322)">Ultralight</text>
  <text style="stroke:none;fill:black;font-family:SF Pro,SF Pro Display,SF Pro Text,sans-serif;font-size:13;text-anchor:middle;" transform="matrix(1 0 0 1 856.422 322)">Thin</text>
  <text style="stroke:none;fill:black;font-family:SF Pro,SF Pro Display,SF Pro Text,sans-serif;font-size:13;text-anchor:middle;" transform="matrix(1 0 0 1 1153.13 322)">Light</text>
  <text style="stroke:none;fill:black;font-family:SF Pro,SF Pro Display,SF Pro Text,sans-serif;font-size:13;text-anchor:middle;" transform="matrix(1 0 0 1 1449.84 322)">Regular</text>
  <text style="stroke:none;fill:black;font-family:SF Pro,SF Pro Display,SF Pro Text,sans-serif;font-size:13;text-anchor:middle;" transform="matrix(1 0 0 1 1746.56 322)">Medium</text>
  <text style="stroke:none;fill:black;font-family:SF Pro,SF Pro Display,SF Pro Text,sans-serif;font-size:13;text-anchor:middle;" transform="matrix(1 0 0 1 2043.27 322)">Semibold</text>
  <text style="stroke:none;fill:black;font-family:SF Pro,SF Pro Display,SF Pro Text,sans-serif;font-size:13;text-anchor:middle;" transform="matrix(1 0 0 1 2339.98 322)">Bold</text>
  <text style="stroke:none;fill:black;font-family:SF Pro,SF Pro Display,SF Pro Text,sans-serif;font-size:13;text-anchor:middle;" transform="matrix(1 0 0 1 2636.69 322)">Heavy</text>
  <text style="stroke:none;fill:black;font-family:SF Pro,SF Pro Display,SF Pro Text,sans-serif;font-size:13;text-anchor:middle;" transform="matrix(1 0 0 1 2933.4 322)">Black</text>
  <line style="fill:none;stroke:black;opacity:1;stroke-width:0.5;" x1="263" x2="3036" y1="1903" y2="1903"/>
  <g transform="matrix(1 0 0 1 263 1933)">
   <path d="M9.24805 0.830078Q10.8691 0.830078 12.2949 0.214844Q13.7207-0.400391 14.8096-1.49414Q15.8984-2.58789 16.5186-4.01367Q17.1387-5.43945 17.1387-7.05078Q17.1387-8.66211 16.5186-10.0879Q15.8984-11.5137 14.8047-12.6074Q13.7109-13.7012 12.2852-14.3164Q10.8594-14.9316 9.23828-14.9316Q7.62695-14.9316 6.20117-14.3164Q4.77539-13.7012 3.69141-12.6074Q2.60742-11.5137 1.9873-10.0879Q1.36719-8.66211 1.36719-7.05078Q1.36719-5.43945 1.9873-4.01367Q2.60742-2.58789 3.69629-1.49414Q4.78516-0.400391 6.21094 0.214844Q7.63672 0.830078 9.24805 0.830078ZM9.24805-0.654297Q7.91992-0.654297 6.7627-1.14746Q5.60547-1.64062 4.73145-2.51953Q3.85742-3.39844 3.36426-4.56055Q2.87109-5.72266 2.87109-7.05078Q2.87109-8.37891 3.35938-9.54102Q3.84766-10.7031 4.72168-11.582Q5.5957-12.4609 6.75293-12.9541Q7.91016-13.4473 9.23828-13.4473Q10.5762-13.4473 11.7334-12.9541Q12.8906-12.4609 13.7695-11.582Q14.6484-10.7031 15.1465-9.54102Q15.6445-8.37891 15.6445-7.05078Q15.6445-5.72266 15.1514-4.56055Q14.6582-3.39844 13.7842-2.51953Q12.9102-1.64062 11.748-1.14746Q10.5859-0.654297 9.24805-0.654297ZM5.83984-7.04102Q5.83984-6.71875 6.04492-6.51855Q6.25-6.31836 6.5918-6.31836L8.50586-6.31836L8.50586-4.39453Q8.50586-4.0625 8.70605-3.85742Q8.90625-3.65234 9.22852-3.65234Q9.56055-3.65234 9.76562-3.85742Q9.9707-4.0625 9.9707-4.39453L9.9707-6.31836L11.8945-6.31836Q12.2266-6.31836 12.4316-6.51855Q12.6367-6.71875 12.6367-7.04102Q12.6367-7.37305 12.4316-7.57812Q12.2266-7.7832 11.8945-7.7832L9.9707-7.7832L9.9707-9.69727Q9.9707-10.0391 9.76562-10.2441Q9.56055-10.4492 9.22852-10.4492Q8.90625-10.4492 8.70605-10.2441Q8.50586-10.0391 8.50586-9.69727L8.50586-7.7832L6.5918-7.7832Q6.25-7.7832 6.04492-7.57812Q5.83984-7.37305 5.83984-7.04102Z"/>
  </g>
  <g transform="matrix(1 0 0 1 281.867 1933)">
   <path d="M11.709 2.91016Q13.75 2.91016 15.5518 2.12891Q17.3535 1.34766 18.7305-0.0292969Q20.1074-1.40625 20.8887-3.20801Q21.6699-5.00977 21.6699-7.05078Q21.6699-9.0918 20.8887-10.8936Q20.1074-12.6953 18.7305-14.0723Q17.3535-15.4492 15.5469-16.2305Q13.7402-17.0117 11.6992-17.0117Q9.6582-17.0117 7.85645-16.2305Q6.05469-15.4492 4.68262-14.0723Q3.31055-12.6953 2.5293-10.8936Q1.74805-9.0918 1.74805-7.05078Q1.74805-5.00977 2.5293-3.20801Q3.31055-1.40625 4.6875-0.0292969Q6.06445 1.34766 7.86621 2.12891Q9.66797 2.91016 11.709 2.91016ZM11.709 1.25Q9.98047 1.25 8.47656 0.605469Q6.97266-0.0390625 5.83496-1.17676Q4.69727-2.31445 4.05762-3.81836Q3.41797-5.32227 3.41797-7.05078Q3.41797-8.7793 4.05762-10.2832Q4.69727-11.7871 5.83008-12.9297Q6.96289-14.0723 8.4668-14.7119Q9.9707-15.3516 11.6992-15.3516Q13.4277-15.3516 14.9316-14.7119Q16.4355-14.0723 17.5781-12.9297Q18.7207-11.7871 19.3652-10.2832Q20.0098-8.7793 20.0098-7.05078Q20.0098-5.32227 19.3701-3.81836Q18.7305-2.31445 17.5928-1.17676Q16.4551-0.0390625 14.9463 0.605469Q13.4375 1.25 11.709 1.25ZM7.39258-7.04102Q7.39258-6.68945 7.62695-6.46484Q7.86133-6.24023 8.23242-6.24023L10.8789-6.24023L10.8789-3.57422Q10.8789-3.21289 11.1035-2.9834Q11.3281-2.75391 11.6797-2.75391Q12.0508-2.75391 12.2852-2.9834Q12.5195-3.21289 12.5195-3.57422L12.5195-6.24023L15.1758-6.24023Q15.5371-6.24023 15.7715-6.46484Q16.0059-6.68945 16.0059-7.04102Q16.0059-7.41211 15.7715-7.6416Q15.5371-7.87109 15.1758-7.87109L12.5195-7.87109L12.5195-10.5176Q12.5195-10.8984 12.2852-11.1279Q12.0508-11.3574 11.6797-11.3574Q11.3281-11.3574 11.1035-11.1279Q10.8789-10.8984 10.8789-10.5176L10.8789-7.87109L8.23242-7.87109Q7.85156-7.87109 7.62207-7.6416Q7.39258-7.41211 7.39258-7.04102Z"/>
  </g>
  <g transform="matrix(1 0 0 1 305.646 1933)">
   <path d="M14.9707 5.66406Q17.0605 5.66406 18.96 5.01465Q20.8594 4.36523 22.4512 3.19336Q24.043 2.02148 25.2197 0.429688Q26.3965-1.16211 27.0459-3.06641Q27.6953-4.9707 27.6953-7.05078Q27.6953-9.14062 27.0459-11.04Q26.3965-12.9395 25.2197-14.5312Q24.043-16.123 22.4512-17.2998Q20.8594-18.4766 18.9551-19.126Q17.0508-19.7754 14.9609-19.7754Q12.8711-19.7754 10.9717-19.126Q9.07227-18.4766 7.48535-17.2998Q5.89844-16.123 4.72168-14.5312Q3.54492-12.9395 2.90039-11.04Q2.25586-9.14062 2.25586-7.05078Q2.25586-4.9707 2.90527-3.06641Q3.55469-1.16211 4.72656 0.429688Q5.89844 2.02148 7.49023 3.19336Q9.08203 4.36523 10.9814 5.01465Q12.8809 5.66406 14.9707 5.66406ZM14.9707 3.84766Q13.1641 3.84766 11.5283 3.2959Q9.89258 2.74414 8.53516 1.74805Q7.17773 0.751953 6.17676-0.610352Q5.17578-1.97266 4.62891-3.6084Q4.08203-5.24414 4.08203-7.05078Q4.08203-8.86719 4.62891-10.5029Q5.17578-12.1387 6.17188-13.501Q7.16797-14.8633 8.52539-15.8594Q9.88281-16.8555 11.5186-17.4023Q13.1543-17.9492 14.9609-17.9492Q16.7773-17.9492 18.4131-17.4023Q20.0488-16.8555 21.4111-15.8594Q22.7734-14.8633 23.7695-13.501Q24.7656-12.1387 25.3174-10.5029Q25.8691-8.86719 25.8691-7.05078Q25.8789-5.24414 25.332-3.6084Q24.7852-1.97266 23.7842-0.610352Q22.7832 0.751953 21.4209 1.74805Q20.0586 2.74414 18.4229 3.2959Q16.7871 3.84766 14.9707 3.84766ZM9.45312-7.04102Q9.45312-6.66016 9.71191-6.41113Q9.9707-6.16211 10.3711-6.16211L14.0625-6.16211L14.0625-2.46094Q14.0625-2.06055 14.3115-1.80664Q14.5605-1.55273 14.9414-1.55273Q15.3516-1.55273 15.6055-1.80664Q15.8594-2.06055 15.8594-2.46094L15.8594-6.16211L19.5605-6.16211Q19.9609-6.16211 20.2148-6.41113Q20.4688-6.66016 20.4688-7.04102Q20.4688-7.45117 20.2148-7.70508Q19.9609-7.95898 19.5605-7.95898L15.8594-7.95898L15.8594-11.6504Q15.8594-12.0605 15.6055-12.3145Q15.3516-12.5684 14.9414-12.5684Q14.5605-12.5684 14.3115-12.3096Q14.0625-12.0508 14.0625-11.6504L14.0625-7.95898L10.3711-7.95898Q9.96094-7.95898 9.70703-7.70508Q9.45312-7.45117 9.45312-7.04102Z"/>
  </g>
  <text style="stroke:none;fill:black;font-family:SF Pro,SF Pro Display,SF Pro Text,sans-serif;font-size:13;font-weight:bold;" transform="matrix(1 0 0 1 263 1953)">Design Variations</text>
  <text style="stroke:none;fill:black;font-family:SF Pro,SF Pro Display,SF Pro Text,sans-serif;font-size:13;" transform="matrix(1 0 0 1 263 1971)">Symbols are supported in up to nine weights and three scales.</text>
  <text style="stroke:none;fill:black;font-family:SF Pro,SF Pro Display,SF Pro Text,sans-serif;font-size:13;" transform="matrix(1 0 0 1 263 1989)">For optimal layout with text and other symbols, vertically align</text>
  <text style="stroke:none;fill:black;font-family:SF Pro,SF Pro Display,SF Pro Text,sans-serif;font-size:13;" transform="matrix(1 0 0 1 263 2007)">symbols with the adjacent text.</text>
  <line style="fill:none;stroke:#00AEEF;stroke-width:0.5;opacity:1.0;" x1="776" x2="776" y1="1919" y2="1933"/>
  <g transform="matrix(1 0 0 1 776 1933)">
   <path d="M3.31055 0.15625Q3.70117 0.15625 3.91602-0.00976562Q4.13086-0.175781 4.26758-0.585938L5.52734-4.0332L11.2891-4.0332L12.5488-0.585938Q12.6855-0.175781 12.9004-0.00976562Q13.1152 0.15625 13.4961 0.15625Q13.8867 0.15625 14.1162-0.0585938Q14.3457-0.273438 14.3457-0.644531Q14.3457-0.869141 14.2383-1.17188L9.6582-13.3691Q9.48242-13.8184 9.17969-14.043Q8.87695-14.2676 8.4082-14.2676Q7.5-14.2676 7.17773-13.3789L2.59766-1.16211Q2.49023-0.859375 2.49023-0.634766Q2.49023-0.263672 2.70996-0.0537109Q2.92969 0.15625 3.31055 0.15625ZM6.00586-5.51758L8.37891-12.0898L8.42773-12.0898L10.8008-5.51758Z"/>
  </g>
  <line style="fill:none;stroke:#00AEEF;stroke-width:0.5;opacity:1.0;" x1="793.197" x2="793.197" y1="1919" y2="1933"/>
  <text style="stroke:none;fill:black;font-family:SF Pro,SF Pro Display,SF Pro Text,sans-serif;font-size:13;font-weight:bold;" transform="matrix(1 0 0 1 776 1953)">Margins</text>
  <text style="stroke:none;fill:black;font-family:SF Pro,SF Pro Display,SF Pro Text,sans-serif;font-size:13;" transform="matrix(1 0 0 1 776 1971)">Leading and trailing margins on the left and right side of each symbol</text>
  <text style="stroke:none;fill:black;font-family:SF Pro,SF Pro Display,SF Pro Text,sans-serif;font-size:13;" transform="matrix(1 0 0 1 776 1989)">can be adjusted by modifying the x-location of the margin guidelines.</text>
  <text style="stroke:none;fill:black;font-family:SF Pro,SF Pro Display,SF Pro Text,sans-serif;font-size:13;" transform="matrix(1 0 0 1 776 2007)">Modifications are automatically applied proportionally to all</text>
  <text style="stroke:none;fill:black;font-family:SF Pro,SF Pro Display,SF Pro Text,sans-serif;font-size:13;" transform="matrix(1 0 0 1 776 2025)">scales and weights.</text>
  <g transform="matrix(1 0 0 1 1289 1933)">
   <path d="M2.8418 1.86523L4.54102 3.57422Q5.18555 4.22852 5.90332 4.17969Q6.62109 4.13086 7.31445 3.35938L18.0078-8.42773L17.041-9.4043L6.42578 2.27539Q6.16211 2.57812 5.89355 2.61719Q5.625 2.65625 5.27344 2.30469L4.10156 1.14258Q3.75 0.791016 3.79395 0.522461Q3.83789 0.253906 4.14062-0.0195312L15.6152-10.8203L14.6387-11.7871L3.04688-0.898438Q2.30469-0.214844 2.25098 0.498047Q2.19727 1.21094 2.8418 1.86523ZM9.25781-16.3281Q8.94531-16.0254 8.90625-15.6348Q8.86719-15.2441 9.04297-14.9512Q9.21875-14.6777 9.55566-14.541Q9.89258-14.4043 10.3809-14.5215Q11.4746-14.7754 12.5977-14.7314Q13.7207-14.6875 14.7949-13.9844L14.209-12.5293Q13.9551-11.9043 14.0674-11.4404Q14.1797-10.9766 14.5801-10.5664L16.875-8.25195Q17.2363-7.88086 17.5781-7.82227Q17.9199-7.76367 18.3398-7.8418L19.4043-8.03711L20.0684-7.36328L20.0293-6.80664Q20-6.43555 20.1221-6.12305Q20.2441-5.81055 20.6055-5.44922L21.3672-4.70703Q21.7285-4.3457 22.1533-4.33105Q22.5781-4.31641 22.9297-4.66797L25.8398-7.58789Q26.1914-7.93945 26.1816-8.35449Q26.1719-8.76953 25.8105-9.13086L25.0391-9.89258Q24.6875-10.2539 24.3799-10.3857Q24.0723-10.5176 23.7109-10.4883L23.1348-10.4395L22.4902-11.0742L22.7344-12.1973Q22.832-12.6172 22.6953-12.9834Q22.5586-13.3496 22.1191-13.7891L19.9219-15.9766Q18.6719-17.2168 17.2607-17.8369Q15.8496-18.457 14.4189-18.4814Q12.9883-18.5059 11.665-17.959Q10.3418-17.4121 9.25781-16.3281ZM10.752-15.957Q11.6602-16.6211 12.7002-16.9043Q13.7402-17.1875 14.8047-17.085Q15.8691-16.9824 16.8701-16.5137Q17.8711-16.0449 18.7012-15.2051L21.1328-12.793Q21.3086-12.6172 21.3525-12.4512Q21.3965-12.2852 21.3379-12.0312L21.0156-10.5469L22.5195-9.0625L23.5059-9.12109Q23.6914-9.13086 23.7891-9.09668Q23.8867-9.0625 24.0332-8.91602L24.6094-8.33984L22.168-5.89844L21.5918-6.47461Q21.4453-6.62109 21.4062-6.71875Q21.3672-6.81641 21.377-7.01172L21.4453-7.98828L19.9512-9.47266L18.4277-9.21875Q18.1836-9.16992 18.042-9.2041Q17.9004-9.23828 17.7148-9.41406L15.7129-11.416Q15.5176-11.5918 15.4932-11.7529Q15.4688-11.9141 15.5859-12.1875L16.4648-14.2773Q15.293-15.3711 13.8281-15.791Q12.3633-16.2109 10.8398-15.7617Q10.7227-15.7324 10.6885-15.8057Q10.6543-15.8789 10.752-15.957Z"/>
  </g>
  <text style="stroke:none;fill:black;font-family:SF Pro,SF Pro Display,SF Pro Text,sans-serif;font-size:13;font-weight:bold;" transform="matrix(1 0 0 1 1289 1953)">Exporting</text>
  <text style="stroke:none;fill:black;font-family:SF Pro,SF Pro Display,SF Pro Text,sans-serif;font-size:13;" transform="matrix(1 0 0 1 1289 1971)">Symbols should be outlined when exporting to ensure the</text>
  <text style="stroke:none;fill:black;font-family:SF Pro,SF Pro Display,SF Pro Text,sans-serif;font-size:13;" transform="matrix(1 0 0 1 1289 1989)">design is preserved when submitting to Xcode.</text>
  <text id="template-version" style="stroke:none;fill:black;font-family:SF Pro,SF Pro Display,SF Pro Text,sans-serif;font-size:13;text-anchor:end;" transform="matrix(1 0 0 1 3036 1933)">Template v.3.0</text>
  <text style="stroke:none;fill:black;font-family:SF Pro,SF Pro Display,SF Pro Text,sans-serif;font-size:13;text-anchor:end;" transform="matrix(1 0 0 1 3036 1951)">Requires Xcode 13 or greater</text>
  <text id="descriptive-name" style="stroke:none;fill:black;font-family:SF Pro,SF Pro Display,SF Pro Text,sans-serif;font-size:13;text-anchor:end;" transform="matrix(1 0 0 1 3036 1969)">Generated from person</text>
  <text style="stroke:none;fill:black;font-family:SF Pro,SF Pro Display,SF Pro Text,sans-serif;font-size:13;text-anchor:end;" transform="matrix(1 0 0 1 3036 1987)">Typeset at 100 points</text>
  <text style="stroke:none;fill:black;font-family:SF Pro,SF Pro Display,SF Pro Text,sans-serif;font-size:13;" transform="matrix(1 0 0 1 263 726)">Small</text>
  <text style="stroke:none;fill:black;font-family:SF Pro,SF Pro Display,SF Pro Text,sans-serif;font-size:13;" transform="matrix(1 0 0 1 263 1156)">Medium</text>
  <text style="stroke:none;fill:black;font-family:SF Pro,SF Pro Display,SF Pro Text,sans-serif;font-size:13;" transform="matrix(1 0 0 1 263 1586)">Large</text>
 </g>
 <g id="Guides">
  <g id="H-reference" style="fill:#27AAE1;stroke:none;" transform="matrix(1 0 0 1 339 696)">
   <path d="M0.993347 0L3.6377 0L29.3282-67.1326L30.0301-67.1326L30.0301-70.459L28.1227-70.459ZM11.6882-24.4797L46.9818-24.4797L46.2311-26.7288L12.4382-26.7288ZM55.1193 0L57.7637 0L30.6381-70.459L29.4327-70.459L29.4327-67.1326Z"/>
  </g>
  <line id="Baseline-S" style="fill:none;stroke:#27AAE1;opacity:1;stroke-width:0.5;" x1="263" x2="3036" y1="696" y2="696"/>
  <line id="Capline-S" style="fill:none;stroke:#27AAE1;opacity:1;stroke-width:0.5;" x1="263" x2="3036" y1="625.541" y2="625.541"/>
  <g id="H-reference" style="fill:#27AAE1;stroke:none;" transform="matrix(1 0 0 1 339 1126)">
   <path d="M0.993347 0L3.6377 0L29.3282-67.1326L30.0301-67.1326L30.0301-70.459L28.1227-70.459ZM11.6882-24.4797L46.9818-24.4797L46.2311-26.7288L12.4382-26.7288ZM55.1193 0L57.7637 0L30.6381-70.459L29.4327-70.459L29.4327-67.1326Z"/>
  </g>
  <line id="Baseline-M" style="fill:none;stroke:#27AAE1;opacity:1;stroke-width:0.5;" x1="263" x2="3036" y1="1126" y2="1126"/>
  <line id="Capline-M" style="fill:none;stroke:#27AAE1;opacity:1;stroke-width:0.5;" x1="263" x2="3036" y1="1055.54" y2="1055.54"/>
  <g id="H-reference" style="fill:#27AAE1;stroke:none;" transform="matrix(1 0 0 1 339 1556)">
   <path d="M0.993347 0L3.6377 0L29.3282-67.1326L30.0301-67.1326L30.0301-70.459L28.1227-70.459ZM11.6882-24.4797L46.9818-24.4797L46.2311-26.7288L12.4382-26.7288ZM55.1193 0L57.7637 0L30.6381-70.459L29.4327-70.459L29.4327-67.1326Z"/>
  </g>
  <line id="Baseline-L" style="fill:none;stroke:#27AAE1;opacity:1;stroke-width:0.5;" x1="263" x2="3036" y1="1556" y2="1556"/>
  <line id="Capline-L" style="fill:none;stroke:#27AAE1;opacity:1;stroke-width:0.5;" x1="263" x2="3036" y1="1485.54" y2="1485.54"/>
  <line id="left-margin-Regular-M" style="fill:none;stroke:#00AEEF;stroke-width:0.5;opacity:1.0;" x1="1394.74" x2="1394.74" y1="1030.79" y2="1150.12"/>
  <line id="right-margin-Regular-M" style="fill:none;stroke:#00AEEF;stroke-width:0.5;opacity:1.0;" x1="1504.95" x2="1504.95" y1="1030.79" y2="1150.12"/>
 </g>
 <g id="Symbols">
  <g id="Black-L" transform="matrix(1 0 0 1 2860.62 1556)">
   <path d="M34.668 26.5137L110.889 26.5137Q129.492 26.5137 129.492 13.0371Q129.492 7.12891 126.733 1.29395Q123.975-4.54102 118.921-9.7168Q113.867-14.8926 106.836-18.8721Q99.8047-22.8516 91.1865-25.1465Q82.5684-27.4414 72.7539-27.4414Q62.9395-27.4414 54.3213-25.1465Q45.7031-22.8516 38.6963-18.8721Q31.6895-14.8926 26.6113-9.7168Q21.5332-4.54102 18.7988 1.29395Q16.0645 7.12891 16.0645 13.0371Q16.0645 26.5137 34.668 26.5137ZM35.5469 10.5469Q34.9609 10.5469 34.7656 10.2539Q34.5703 9.96094 34.5703 9.52148Q34.5703 7.42188 36.2061 4.6875Q37.8418 1.95312 41.04-0.878906Q44.2383-3.71094 48.9014-6.12793Q53.5645-8.54492 59.5459-10.0342Q65.5273-11.5234 72.7539-11.5234Q79.9805-11.5234 85.9863-10.0342Q91.9922-8.54492 96.6309-6.12793Q101.27-3.71094 104.468-0.878906Q107.666 1.95312 109.326 4.6875Q110.986 7.42188 110.986 9.52148Q110.986 9.96094 110.767 10.2539Q110.547 10.5469 110.01 10.5469ZM72.7539-33.1055Q78.8086-33.1055 84.0332-35.5225Q89.2578-37.9395 93.2129-42.2119Q97.168-46.4844 99.4141-52.124Q101.66-57.7637 101.66-64.2578Q101.66-70.5566 99.4141-76.0986Q97.168-81.6406 93.1885-85.8398Q89.209-90.0391 83.96-92.4316Q78.7109-94.8242 72.7539-94.8242Q66.7969-94.8242 61.5723-92.4316Q56.3477-90.0391 52.3682-85.8154Q48.3887-81.5918 46.1182-76.0498Q43.8477-70.5078 43.8965-64.209Q43.8965-57.7148 46.1426-52.0752Q48.3887-46.4355 52.3193-42.1631Q56.25-37.8906 61.499-35.498Q66.748-33.1055 72.7539-33.1055ZM72.7539-49.0234Q69.3359-49.0234 66.4307-51.001Q63.5254-52.9785 61.792-56.4209Q60.0586-59.8633 60.0586-64.2578Q60.0098-68.3105 61.7676-71.6309Q63.5254-74.9512 66.4551-76.9287Q69.3848-78.9062 72.7539-78.9062Q76.2207-78.9062 79.1016-76.9531Q81.9824-75 83.7402-71.6797Q85.498-68.3594 85.498-64.2578Q85.498-59.9121 83.7646-56.4697Q82.0312-53.0273 79.1504-51.0254Q76.2695-49.0234 72.7539-49.0234Z"/>
  </g>
  <g id="Heavy-L" transform="matrix(1 0 0 1 2564.42 1556)">
   <path d="M33.654 25.8339L110.889 25.8339Q128.478 25.8339 128.478 13.279Q128.478 7.60117 125.8 1.84708Q123.122-3.90701 118.166-9.10034Q113.21-14.2937 106.271-18.3422Q99.3324-22.3907 90.7372-24.7433Q82.1419-27.0958 72.2466-27.0958Q62.3634-27.0958 53.7682-24.7433Q45.1729-22.3907 38.2526-18.3422Q31.3324-14.2937 26.358-9.10034Q21.3837-3.90701 18.7241 1.84708Q16.0645 7.60117 16.0645 13.279Q16.0645 25.8339 33.654 25.8339ZM33.7608 11.7111Q32.8865 11.7111 32.5645 11.3663Q32.2426 11.0214 32.2426 10.3745Q32.2426 7.96356 33.9531 4.90074Q35.6636 1.83792 39.006-1.29967Q42.3485-4.43726 47.2248-7.09038Q52.1011-9.7435 58.3763-11.377Q64.6515-13.0104 72.2466-13.0104Q79.8538-13.0104 86.1477-11.377Q92.4416-9.7435 97.2992-7.09038Q102.157-4.43726 105.499-1.29967Q108.842 1.83792 110.571 4.90074Q112.3 7.96356 112.3 10.3745Q112.3 11.0214 111.959 11.3663Q111.619 11.7111 110.782 11.7111ZM72.2702-33.3824Q78.1975-33.3824 83.3359-35.7647Q88.4743-38.147 92.3603-42.3618Q96.2463-46.5767 98.452-52.1297Q100.658-57.6828 100.658-64.0846Q100.658-70.2919 98.452-75.7473Q96.2463-81.2027 92.3416-85.3271Q88.4369-89.4516 83.2802-91.798Q78.1235-94.1444 72.2702-94.1444Q66.4169-94.1444 61.2785-91.7923Q56.1401-89.4402 52.2297-85.2913Q48.3192-81.1424 46.0949-75.6866Q43.8705-70.2309 43.9079-64.0129Q43.9194-57.634 46.125-52.0809Q48.3307-46.5279 52.198-42.3187Q56.0654-38.1096 61.2167-35.746Q66.3681-33.3824 72.2702-33.3824ZM72.2702-47.4678Q68.4944-47.4678 65.3011-49.641Q62.1078-51.8143 60.2016-55.5622Q58.2954-59.3102 58.2954-64.0503Q58.2581-68.5066 60.1772-72.1321Q62.0964-75.7576 65.3084-77.9083Q68.5204-80.0591 72.2702-80.0591Q76.0941-80.0591 79.2629-77.9327Q82.4318-75.8064 84.351-72.1867Q86.2701-68.5669 86.2701-64.0846Q86.2701-59.3704 84.3697-55.6168Q82.4692-51.8631 79.2946-49.6655Q76.12-47.4678 72.2702-47.4678Z"/>
  </g>
  <g id="Bold-L" transform="matrix(1 0 0 1 2268.27 1556)">
   <path d="M32.5195 25.0732L110.889 25.0732Q127.344 25.0732 127.344 13.5498Q127.344 8.12988 124.756 2.46582Q122.168-3.19824 117.322-8.41064Q112.476-13.623 105.64-17.749Q98.8037-21.875 90.2344-24.292Q81.665-26.709 71.6797-26.709Q61.7188-26.709 53.1494-24.292Q44.5801-21.875 37.7563-17.749Q30.9326-13.623 26.0742-8.41064Q21.2158-3.19824 18.6401 2.46582Q16.0645 8.12988 16.0645 13.5498Q16.0645 25.0732 32.5195 25.0732ZM31.7627 13.0127Q30.5664 13.0127 30.1025 12.6099Q29.6387 12.207 29.6387 11.3281Q29.6387 8.56934 31.4331 5.13916Q33.2275 1.70898 36.731-1.77002Q40.2344-5.24902 45.3491-8.1665Q50.4639-11.084 57.0679-12.8784Q63.6719-14.6729 71.6797-14.6729Q79.7119-14.6729 86.3281-12.8784Q92.9443-11.084 98.0469-8.1665Q103.149-5.24902 106.653-1.77002Q110.156 1.70898 111.963 5.13916Q113.77 8.56934 113.77 11.3281Q113.77 12.207 113.293 12.6099Q112.817 13.0127 111.646 13.0127ZM71.7285-33.6914Q77.5146-33.6914 82.5562-36.0352Q87.5977-38.3789 91.4062-42.5293Q95.2148-46.6797 97.3755-52.1362Q99.5361-57.5928 99.5361-63.8916Q99.5361-69.9951 97.3755-75.354Q95.2148-80.7129 91.394-84.7534Q87.5732-88.7939 82.5195-91.0889Q77.4658-93.3838 71.7285-93.3838Q65.9912-93.3838 60.9497-91.0767Q55.9082-88.7695 52.0752-84.7046Q48.2422-80.6396 46.0693-75.2808Q43.8965-69.9219 43.9209-63.7939Q43.9453-57.5439 46.106-52.0874Q48.2666-46.6309 52.063-42.4927Q55.8594-38.3545 60.9009-36.0229Q65.9424-33.6914 71.7285-33.6914ZM71.7285-45.7275Q67.5537-45.7275 64.0381-48.1201Q60.5225-50.5127 58.4229-54.6021Q56.3232-58.6914 56.3232-63.8184Q56.2988-68.7256 58.3984-72.6929Q60.498-76.6602 64.0259-79.0039Q67.5537-81.3477 71.7285-81.3477Q75.9521-81.3477 79.4434-79.0283Q82.9346-76.709 85.0342-72.7539Q87.1338-68.7988 87.1338-63.8916Q87.1338-58.7646 85.0464-54.6631Q82.959-50.5615 79.4556-48.1445Q75.9521-45.7275 71.7285-45.7275Z"/>
  </g>
  <g id="Semibold-L" transform="matrix(1 0 0 1 1971.95 1556)">
   <path d="M31.7375 24.5491L110.889 24.5491Q126.562 24.5491 126.562 13.7367Q126.562 8.49457 124.036 2.89268Q121.51-2.7092 116.74-7.93495Q111.969-13.1607 105.204-17.3401Q98.439-21.5195 89.8876-23.9811Q81.3362-26.4427 71.2883-26.4427Q61.2747-26.4427 52.7229-23.9811Q44.1711-21.5195 37.4142-17.3401Q30.6572-13.1607 25.8789-7.93495Q21.1006-2.7092 18.5825 2.89268Q16.0645 8.49457 16.0645 13.7367Q16.0645 24.5491 31.7375 24.5491ZM30.3848 13.9099Q28.9665 13.9099 28.405 13.4674Q27.8435 13.0249 27.8435 11.9858Q27.8435 8.98666 29.6955 5.30357Q31.5475 1.62048 35.1624-2.09427Q38.7772-5.80902 44.0563-8.90846Q49.3355-12.0079 56.1661-13.9137Q62.9967-15.8195 71.2883-15.8195Q79.6143-15.8195 86.4525-13.9137Q93.2907-12.0079 98.5622-8.90846Q103.834-5.80902 107.448-2.09427Q111.063 1.62048 112.923 5.30357Q114.783 8.98666 114.783 11.9858Q114.783 13.0249 114.213 13.4674Q113.644 13.9099 112.241 13.9099ZM71.3554-33.905Q77.0439-33.905 82.0187-36.2221Q86.9934-38.5391 90.7486-42.6449Q94.5038-46.7506 96.6335-52.1404Q98.7633-57.5302 98.7633-63.7581Q98.7633-69.7906 96.6335-75.0828Q94.5038-80.3749 90.741-84.3578Q86.9781-88.3408 81.9954-90.6002Q77.0126-92.8596 71.3554-92.8596Q65.6982-92.8596 60.7231-90.5834Q55.748-88.3072 51.9684-84.3002Q48.1888-80.2933 46.0514-75.0008Q43.914-69.7083 43.9301-63.6429Q43.9629-57.4814 46.0926-52.0916Q48.2224-46.7018 51.9699-42.6125Q55.7175-38.5231 60.6834-36.2141Q65.6494-33.905 71.3554-33.905ZM71.3554-44.5274Q66.9052-44.5274 63.1672-47.0715Q59.4292-49.6155 57.1964-53.9402Q54.9637-58.2649 54.9637-63.6581Q54.9477-68.8766 57.172-73.0793Q59.3964-77.282 63.1416-79.7592Q66.8869-82.2365 71.3554-82.2365Q75.8545-82.2365 79.5677-79.7836Q83.2809-77.3308 85.5049-73.1449Q87.7289-68.959 87.7289-63.7581Q87.7289-58.3473 85.5129-54.0058Q83.297-49.6643 79.567-47.0959Q75.8369-44.5274 71.3554-44.5274Z"/>
  </g>
  <g id="Medium-L" transform="matrix(1 0 0 1 1675.54 1556)">
   <path d="M31.1447 24.1516L110.889 24.1516Q125.969 24.1516 125.969 13.8779Q125.969 8.77075 123.49 3.21579Q121.011-2.33917 116.298-7.57484Q111.585-12.8105 104.874-17.0303Q98.1628-21.2502 89.6248-23.7453Q81.0867-26.2405 70.9923-26.2405Q60.9375-26.2405 52.3994-23.7453Q43.8614-21.2502 37.1548-17.0303Q30.4482-12.8105 25.7305-7.57484Q21.0129-2.33917 18.5387 3.21579Q16.0645 8.77075 16.0645 13.8779Q16.0645 24.1516 31.1447 24.1516ZM29.3411 14.5912Q27.7542 14.5912 27.1183 14.1178Q26.4824 13.6444 26.4824 12.4847Q26.4824 9.30405 28.3783 5.42831Q30.2742 1.55258 33.9729-2.34032Q37.6717-6.23322 43.0756-9.47113Q48.4795-12.709 55.4817-14.6988Q62.484-16.6885 70.9923-16.6885Q79.5403-16.6885 86.5471-14.6988Q93.5539-12.709 98.9532-9.47113Q104.353-6.23322 108.051-2.34032Q111.75 1.55258 113.651 5.42831Q115.551 9.30405 115.551 12.4847Q115.551 13.6444 114.911 14.1178Q114.271 14.5912 112.692 14.5912ZM71.0724-34.0668Q76.6869-34.0668 81.6109-36.3636Q86.5349-38.6604 90.25-42.7326Q93.9651-46.8048 96.0709-52.1442Q98.1766-57.4837 98.1766-63.6574Q98.1766-69.6358 96.0709-74.8775Q93.9651-80.1193 90.2458-84.0584Q86.5265-87.9974 81.5979-90.2298Q76.6693-92.4622 71.0724-92.4622Q65.4755-92.4622 60.5511-90.2096Q55.6267-87.957 51.8875-83.9935Q48.1483-80.0301 46.0381-74.7883Q43.9278-69.5465 43.9362-63.5284Q43.9766-57.4348 46.0827-52.0954Q48.1888-46.756 51.899-42.7036Q55.6091-38.6513 60.5179-36.359Q65.4266-34.0668 71.0724-34.0668ZM71.0724-43.618Q66.4131-43.618 62.5069-46.2761Q58.6006-48.9342 56.2664-53.4378Q53.9322-57.9414 53.9322-63.5368Q53.9238-68.9911 56.242-73.3727Q58.5602-77.7542 62.471-80.3322Q66.3818-82.9102 71.0724-82.9102Q75.7805-82.9102 79.6623-80.3566Q83.5442-77.803 85.8624-73.4417Q88.1805-69.0804 88.1805-63.6574Q88.1805-58.0299 85.8665-53.5065Q83.5526-48.983 79.6509-46.3005Q75.7492-43.618 71.0724-43.618Z"/>
  </g>
  <g id="Regular-L" transform="matrix(1 0 0 1 1379.21 1556)">
   <path d="M30.3711 23.6328L110.889 23.6328Q125.195 23.6328 125.195 14.0625Q125.195 9.13086 122.778 3.6377Q120.361-1.85547 115.723-7.10449Q111.084-12.3535 104.443-16.626Q97.8027-20.8984 89.2822-23.4375Q80.7617-25.9766 70.6055-25.9766Q60.498-25.9766 51.9775-23.4375Q43.457-20.8984 36.8164-16.626Q30.1758-12.3535 25.5371-7.10449Q20.8984-1.85547 18.4814 3.6377Q16.0645 9.13086 16.0645 14.0625Q16.0645 23.6328 30.3711 23.6328ZM27.9785 15.4785Q26.1719 15.4785 25.4395 14.9658Q24.707 14.4531 24.707 13.1348Q24.707 9.7168 26.6602 5.59082Q28.6133 1.46484 32.4219-2.66113Q36.2305-6.78711 41.7969-10.2051Q47.3633-13.623 54.5898-15.7227Q61.8164-17.8223 70.6055-17.8223Q79.4434-17.8223 86.6699-15.7227Q93.8965-13.623 99.4629-10.2051Q105.029-6.78711 108.838-2.66113Q112.646 1.46484 114.6 5.59082Q116.553 9.7168 116.553 13.1348Q116.553 14.4531 115.82 14.9658Q115.088 15.4785 113.281 15.4785ZM70.7031-34.2773Q76.2207-34.2773 81.0791-36.5479Q85.9375-38.8184 89.5996-42.8467Q93.2617-46.875 95.3369-52.1484Q97.4121-57.4219 97.4121-63.5254Q97.4121-69.4336 95.3369-74.6094Q93.2617-79.7852 89.5996-83.667Q85.9375-87.5488 81.0791-89.7461Q76.2207-91.9434 70.7031-91.9434Q65.1855-91.9434 60.3271-89.7217Q55.4688-87.5 51.7822-83.5938Q48.0957-79.6875 46.0205-74.5117Q43.9453-69.3359 43.9453-63.3789Q43.9941-57.373 46.0693-52.0996Q48.1445-46.8262 51.8066-42.8223Q55.4688-38.8184 60.3027-36.5479Q65.1367-34.2773 70.7031-34.2773ZM70.7031-42.4316Q65.7715-42.4316 61.6455-45.2393Q57.5195-48.0469 55.0537-52.7832Q52.5879-57.5195 52.5879-63.3789Q52.5879-69.1406 55.0293-73.7549Q57.4707-78.3691 61.5967-81.0791Q65.7227-83.7891 70.7031-83.7891Q75.6836-83.7891 79.7852-81.1035Q83.8867-78.418 86.3281-73.8281Q88.7695-69.2383 88.7695-63.5254Q88.7695-57.6172 86.3281-52.8564Q83.8867-48.0957 79.7607-45.2637Q75.6348-42.4316 70.7031-42.4316Z"/>
  </g>
  <g id="Light-L" transform="matrix(1 0 0 1 1083.15 1556)">
   <path d="M28.7819 22.9515L111.192 22.9515Q123.909 22.9515 123.909 14.0472Q123.909 9.14612 121.507 3.70598Q119.105-1.73416 114.511-6.92291Q109.918-12.1117 103.354-16.3158Q96.7888-20.52 88.3816-23.0137Q79.9744-25.5074 69.9699-25.5074Q59.9983-25.5074 51.5915-23.0137Q43.1847-20.52 36.6119-16.3158Q30.0392-12.1117 25.4459-6.92291Q20.8527-1.73416 18.4586 3.70598Q16.0645 9.14612 16.0645 14.0472Q16.0645 22.9515 28.7819 22.9515ZM27.282 16.6443Q24.6887 16.6443 23.6835 15.9424Q22.6784 15.2405 22.6784 13.4674Q22.6784 9.64127 24.715 5.22003Q26.7517 0.798798 30.6965-3.52402Q34.6413-7.84683 40.3893-11.3857Q46.1372-14.9246 53.5606-17.062Q60.984-19.1994 69.9699-19.1994Q78.9894-19.1994 86.4128-17.062Q93.8362-14.9246 99.5766-11.3857Q105.317-7.84683 109.269-3.52402Q113.222 0.798798 115.258 5.22003Q117.294 9.64127 117.294 13.4674Q117.294 15.2405 116.29 15.9424Q115.285 16.6443 112.691 16.6443ZM70.0829-34.4742Q75.5241-34.4742 80.2692-36.684Q85.0143-38.8939 88.578-42.8314Q92.1417-46.769 94.1486-51.9592Q96.1555-57.1495 96.1555-63.1927Q96.1555-68.9796 94.1257-74.0646Q92.0959-79.1496 88.5174-82.9861Q84.9388-86.8225 80.2013-88.9969Q75.4639-91.1713 70.0829-91.1713Q64.7011-91.1713 59.9564-88.9801Q55.2116-86.7889 51.6083-82.9353Q48.0049-79.0817 45.9827-73.9967Q43.9606-68.9117 43.9911-63.0913Q44.0399-57.1159 46.0545-51.9257Q48.069-46.7354 51.6251-42.8146Q55.1811-38.8939 59.9014-36.684Q64.6217-34.4742 70.0829-34.4742ZM70.0829-40.7669Q64.6965-40.7669 60.268-43.7408Q55.8395-46.7148 53.2146-51.7616Q50.5898-56.8085 50.5898-63.0913Q50.5745-69.1559 53.1975-74.0879Q55.8205-79.0199 60.2646-81.942Q64.7087-84.864 70.0829-84.864Q75.4417-84.864 79.8611-81.9588Q84.2804-79.0535 86.911-74.1383Q89.5416-69.223 89.5416-63.1927Q89.5416-56.8756 86.9411-51.812Q84.3407-46.7484 79.9046-43.7576Q75.4684-40.7669 70.0829-40.7669Z"/>
  </g>
  <g id="Thin-L" transform="matrix(1 0 0 1 787.286 1556)">
   <path d="M26.68 22.0505L111.592 22.0505Q122.207 22.0505 122.207 14.0274Q122.207 9.16595 119.825 3.79601Q117.444-1.57394 112.91-6.68259Q108.377-11.7912 101.912-15.9054Q95.4475-20.0195 87.1906-22.4533Q78.9337-24.8871 69.1292-24.8871Q59.3376-24.8871 51.0811-22.4533Q42.8246-20.0195 36.3419-15.9054Q29.8592-11.7912 25.3262-6.68259Q20.7932-1.57394 18.4288 3.79601Q16.0645 9.16595 16.0645 14.0274Q16.0645 22.0505 26.68 22.0505ZM26.3611 18.1854Q22.7264 18.1854 21.3615 17.2333Q19.9966 16.2811 19.9966 13.9084Q19.9966 9.54132 22.1428 4.72984Q24.2889-0.0816345 28.4142-4.66461Q32.5394-9.24759 38.5277-12.9471Q44.516-16.6466 52.1996-18.8339Q59.8831-21.0213 69.1292-21.0213Q78.389-21.0213 86.0725-18.8339Q93.7561-16.6466 99.7265-12.9471Q105.697-9.24759 109.84-4.66461Q113.982-0.0816345 116.129 4.72984Q118.275 9.54132 118.275 13.9084Q118.275 16.2811 116.91 17.2333Q115.545 18.1854 111.91 18.1854ZM69.2619-34.7343Q74.6033-34.7343 79.1981-36.8641Q83.7929-38.9938 87.2265-42.8112Q90.6601-46.6286 92.5774-51.709Q94.4946-56.7894 94.4946-62.7518Q94.4946-68.3792 92.5247-73.344Q90.5548-78.3089 87.0861-82.085Q83.6174-85.8612 79.0401-88.0058Q74.4629-90.1505 69.2619-90.1505Q64.061-90.1505 59.4662-87.999Q54.8714-85.8475 51.3783-82.0644Q47.8851-78.2814 45.9328-73.3166Q43.9804-68.3517 44.0506-62.7113Q44.0994-56.7757 46.0342-51.6956Q47.9691-46.6156 51.3851-42.8047Q54.8012-38.9938 59.3712-36.8641Q63.9412-34.7343 69.2619-34.7343ZM69.2619-38.5643Q63.2751-38.5643 58.4461-41.7587Q53.6171-44.9532 50.7824-50.4101Q47.9477-55.867 47.9477-62.7113Q47.9126-69.1757 50.7755-74.5281Q53.6385-79.8805 58.503-83.083Q63.3675-86.2854 69.2619-86.2854Q75.1213-86.2854 79.961-83.0898Q84.8007-79.8943 87.6816-74.5487Q90.5624-69.2032 90.5624-62.7518Q90.5624-55.8945 87.7518-50.4307Q84.9411-44.9669 80.0945-41.7656Q75.248-38.5643 69.2619-38.5643Z"/>
  </g>
  <g id="Ultralight-L" transform="matrix(1 0 0 1 491.011 1556)">
   <path d="M25.6027 21.5897L111.797 21.5897Q121.336 21.5897 121.336 14.0167Q121.336 9.17664 118.964 3.84216Q116.592-1.49231 112.09-6.55975Q107.587-11.6272 101.174-15.6952Q94.7601-19.7632 86.5803-22.1661Q78.4004-24.5689 68.6981-24.5689Q58.9996-24.5689 50.8198-22.1661Q42.6399-19.7632 36.2034-15.6952Q29.7668-11.6272 25.2644-6.55975Q20.7619-1.49231 18.4132 3.84216Q16.0645 9.17664 16.0645 14.0167Q16.0645 21.5897 25.6027 21.5897ZM25.8896 18.9751Q21.7216 18.9751 20.1717 17.8947Q18.6218 16.8144 18.6218 14.1335Q18.6218 9.48944 20.8248 4.47807Q23.0278-0.533295 27.2449-5.2494Q31.4621-9.96552 37.5736-13.747Q43.6852-17.5285 51.5018-19.7414Q59.3185-21.9543 68.6981-21.9543Q78.0807-21.9543 85.8978-19.7414Q93.7149-17.5285 99.8035-13.747Q105.892-9.96552 110.132-5.2494Q114.372-0.533295 116.575 4.47807Q118.777 9.48944 118.777 14.1335Q118.777 16.8144 117.228 17.8947Q115.678 18.9751 111.51 18.9751ZM68.8416-34.8679Q74.1318-34.8679 78.6495-36.9568Q83.1673-39.0457 86.5345-42.8013Q89.9017-46.5569 91.7725-51.5808Q93.6432-56.6048 93.6432-62.5267Q93.6432-68.071 91.7042-72.9744Q89.7652-77.8778 86.3529-81.6235Q82.9407-85.3691 78.4454-87.4985Q73.9502-89.6278 68.8416-89.6278Q63.7321-89.6278 59.2144-87.4969Q54.6967-85.3661 51.26-81.6185Q47.8233-77.8709 45.9072-72.9675Q43.9911-68.0641 44.0819-62.516Q44.1307-56.601 46.0239-51.5774Q47.9172-46.5538 51.2615-42.7998Q54.6059-39.0457 59.0992-36.9568Q63.5925-34.8679 68.8416-34.8679ZM68.8416-37.4367Q62.5473-37.4367 57.513-40.7436Q52.4788-44.0506 49.5361-49.7181Q46.5935-55.3856 46.5935-62.516Q46.5485-69.1864 49.5346-74.754Q52.5208-80.3215 57.6004-83.6674Q62.6801-87.0132 68.8416-87.0132Q74.9573-87.0132 80.0125-83.6693Q85.0677-80.3253 88.0768-74.7589Q91.0858-69.1925 91.0858-62.5267Q91.0858-55.3925 88.1676-49.7234Q85.2493-44.0544 80.1922-40.7455Q75.135-37.4367 68.8416-37.4367Z"/>
  </g>
  <g id="Black-M" transform="matrix(1 0 0 1 2876.78 1126)">
   <path d="M27.1973 12.9395L86.0352 12.9395Q100.781 12.9395 100.781 2.00195Q100.781-4.00391 97.4121-9.59473Q94.043-15.1855 88.0371-19.6533Q82.0312-24.1211 73.999-26.7334Q65.9668-29.3457 56.5918-29.3457Q47.2656-29.3457 39.2334-26.7334Q31.2012-24.1211 25.1953-19.6533Q19.1895-15.1855 15.8203-9.59473Q12.4512-4.00391 12.4512 2.00195Q12.4512 12.9395 27.1973 12.9395ZM28.8086-0.341797Q28.3691-0.341797 28.2227-0.585938Q28.0762-0.830078 28.0762-1.12305Q28.0762-3.02734 30.0293-5.56641Q31.9824-8.10547 35.6689-10.498Q39.3555-12.8906 44.6289-14.4775Q49.9023-16.0645 56.5918-16.0645Q63.2812-16.0645 68.5791-14.4775Q73.877-12.8906 77.5635-10.498Q81.25-8.10547 83.2031-5.56641Q85.1562-3.02734 85.1562-1.12305Q85.1562-0.830078 85.0098-0.585938Q84.8633-0.341797 84.375-0.341797ZM56.5918-33.3984Q62.9395-33.3984 68.042-36.6699Q73.1445-39.9414 76.1719-45.459Q79.1992-50.9766 79.1992-57.7637Q79.1992-64.3066 76.1475-69.751Q73.0957-75.1953 67.9688-78.4668Q62.8418-81.7383 56.5918-81.7383Q50.3906-81.7383 45.2637-78.4668Q40.1367-75.1953 37.0605-69.751Q33.9844-64.3066 34.0332-57.7148Q34.0332-50.9277 37.0605-45.4346Q40.0879-39.9414 45.1904-36.6699Q50.293-33.3984 56.5918-33.3984ZM56.5918-46.6797Q54.1016-46.6797 51.9775-48.1201Q49.8535-49.5605 48.6084-52.0752Q47.3633-54.5898 47.3633-57.8125Q47.3145-60.7422 48.6084-63.1592Q49.9023-65.5762 52.0264-67.0166Q54.1504-68.457 56.5918-68.457Q59.082-68.457 61.1816-67.0166Q63.2812-65.5762 64.5752-63.1348Q65.8691-60.6934 65.8691-57.7637Q65.8691-54.5898 64.624-52.0752Q63.3789-49.5605 61.2793-48.1201Q59.1797-46.6797 56.5918-46.6797Z"/>
  </g>
  <g id="Heavy-M" transform="matrix(1 0 0 1 2580.43 1126)">
   <path d="M26.5404 12.4321L85.9772 12.4321Q100.066 12.4321 100.066 2.23236Q100.066-3.48511 96.801-9.03587Q93.5356-14.5866 87.6392-19.1349Q81.7429-23.6832 73.7453-26.3935Q65.7478-29.1039 56.2462-29.1039Q46.7697-29.1039 38.7722-26.3935Q30.7747-23.6832 24.8783-19.1349Q18.9819-14.5866 15.7166-9.03587Q12.4512-3.48511 12.4512 2.23236Q12.4512 12.4321 26.5404 12.4321ZM27.2301 0.545502Q26.6632 0.545502 26.4534 0.289917Q26.2436 0.0343323 26.2436-0.37384Q26.2436-2.53143 28.2719-5.39894Q30.3001-8.26645 34.1652-10.9589Q38.0302-13.6513 43.5917-15.4343Q49.1531-17.2173 56.2462-17.2173Q63.3392-17.2173 68.9137-15.4343Q74.4881-13.6513 78.3531-10.9589Q82.2182-8.26645 84.2461-5.39894Q86.274-2.53143 86.274-0.37384Q86.274 0.0343323 86.0641 0.289917Q85.8543 0.545502 85.2623 0.545502ZM56.2462-33.6288Q62.4672-33.6288 67.4946-36.8656Q72.522-40.1024 75.5093-45.5452Q78.4966-50.988 78.4966-57.6599Q78.4966-64.1335 75.4967-69.4859Q72.4968-74.8383 67.4503-78.0403Q62.4039-81.2424 56.2462-81.2424Q50.1373-81.2424 45.0909-78.0289Q40.0444-74.8154 37.0201-69.4572Q33.9958-64.0991 34.0332-57.5996Q34.0332-50.9392 37.0201-45.5151Q40.007-40.0909 45.0348-36.8599Q50.0626-33.6288 56.2462-33.6288ZM56.2462-45.5154Q53.5027-45.5154 51.1711-47.1058Q48.8396-48.6961 47.456-51.4469Q46.0724-54.1977 46.0724-57.6744Q46.035-60.9154 47.4503-63.5628Q48.8655-66.2102 51.1967-67.783Q53.5278-69.3558 56.2462-69.3558Q59.0126-69.3558 61.3255-67.7944Q63.6383-66.2331 65.0475-63.567Q66.4566-60.9009 66.4566-57.6599Q66.4566-54.2213 65.0791-51.4645Q63.7016-48.7076 61.3888-47.1115Q59.0759-45.5154 56.2462-45.5154Z"/>
  </g>
  <g id="Bold-M" transform="matrix(1 0 0 1 2284.12 1126)">
   <path d="M25.8057 11.8652L85.9131 11.8652Q99.2676 11.8652 99.2676 2.49023Q99.2676-2.90527 96.1182-8.41064Q92.9688-13.916 87.1948-18.5547Q81.4209-23.1934 73.4619-26.0132Q65.5029-28.833 55.8594-28.833Q46.2158-28.833 38.2568-26.0132Q30.2979-23.1934 24.5239-18.5547Q18.75-13.916 15.6006-8.41064Q12.4512-2.90527 12.4512 2.49023Q12.4512 11.8652 25.8057 11.8652ZM25.4639 1.53809Q24.7559 1.53809 24.4751 1.26953Q24.1943 1.00098 24.1943 0.463867Q24.1943-1.97754 26.3062-5.2124Q28.418-8.44727 32.4829-11.4746Q36.5479-14.502 42.4316-16.5039Q48.3154-18.5059 55.8594-18.5059Q63.4033-18.5059 69.2871-16.5039Q75.1709-14.502 79.2358-11.4746Q83.3008-8.44727 85.4126-5.2124Q87.5244-1.97754 87.5244 0.463867Q87.5244 1.00098 87.2437 1.26953Q86.9629 1.53809 86.2549 1.53809ZM55.8594-33.8867Q61.9385-33.8867 66.8823-37.085Q71.8262-40.2832 74.7681-45.6421Q77.71-51.001 77.71-57.5439Q77.71-63.9404 74.7681-69.1895Q71.8262-74.4385 66.8701-77.5635Q61.9141-80.6885 55.8594-80.6885Q49.8535-80.6885 44.8975-77.5391Q39.9414-74.3896 36.9751-69.1284Q34.0088-63.8672 34.0332-57.4707Q34.0332-50.9521 36.9751-45.6055Q39.917-40.2588 44.8608-37.0728Q49.8047-33.8867 55.8594-33.8867ZM55.8594-44.2139Q52.832-44.2139 50.2686-45.9717Q47.7051-47.7295 46.167-50.7446Q44.6289-53.7598 44.6289-57.5195Q44.6045-61.1084 46.1548-64.0137Q47.7051-66.9189 50.2686-68.6401Q52.832-70.3613 55.8594-70.3613Q58.9355-70.3613 61.4868-68.6646Q64.0381-66.9678 65.5762-64.0503Q67.1143-61.1328 67.1143-57.5439Q67.1143-53.8086 65.5884-50.7812Q64.0625-47.7539 61.5112-45.9839Q58.96-44.2139 55.8594-44.2139Z"/>
  </g>
  <g id="Semibold-M" transform="matrix(1 0 0 1 1987.68 1126)">
   <path d="M25.2991 11.4738L85.8688 11.4738Q98.7167 11.4738 98.7167 2.668Q98.7167-2.50549 95.647-7.97958Q92.5774-13.4537 86.8881-18.1545Q81.1989-22.8554 73.2666-25.7507Q65.3343-28.6461 55.5931-28.6461Q45.8336-28.6461 37.9013-25.7507Q29.969-22.8554 24.2794-18.1545Q18.5898-13.4537 15.5205-7.97958Q12.4512-2.50549 12.4512 2.668Q12.4512 11.4738 25.2991 11.4738ZM24.2462 2.22244Q23.4406 2.22244 23.111 1.94511Q22.7814 1.66779 22.7814 1.04141Q22.7814-1.59531 24.9508-5.08347Q27.1202-8.57162 31.3229-11.8301Q35.5255-15.0887 41.6317-17.2417Q47.7379-19.3947 55.5931-19.3947Q63.4476-19.3947 69.5446-17.2417Q75.6416-15.0887 79.8443-11.8301Q84.0469-8.57162 86.2167-5.08347Q88.3865-1.59531 88.3865 1.04141Q88.3865 1.66779 88.0569 1.94511Q87.7274 2.22244 86.9392 2.22244ZM55.5931-34.0645Q61.5738-34.0645 66.46-37.236Q71.3463-40.4076 74.2569-45.7088Q77.1675-51.0101 77.1675-57.4638Q77.1675-63.8069 74.2657-68.985Q71.3638-74.1631 66.47-77.2346Q61.5761-80.3062 55.5931-80.3062Q49.6582-80.3062 44.7643-77.2015Q39.8705-74.0967 36.9442-68.9018Q34.0179-63.707 34.0332-57.3822Q34.0332-50.9613 36.9438-45.6676Q39.8544-40.374 44.7407-37.2192Q49.6269-34.0645 55.5931-34.0645ZM55.5931-43.3167Q52.3697-43.3167 49.6464-45.1897Q46.9231-47.0627 45.2782-50.2602Q43.6333-53.4576 43.6333-57.4127Q43.618-61.2419 45.2618-64.325Q46.9055-67.408 49.6288-69.2314Q52.3521-71.0548 55.5931-71.0548Q58.8821-71.0548 61.5978-69.2646Q64.3135-67.4744 65.9405-64.3837Q67.5674-61.293 67.5674-57.4638Q67.5674-53.524 65.9393-50.3101Q64.3112-47.0963 61.5955-45.2065Q58.8799-43.3167 55.5931-43.3167Z"/>
  </g>
  <g id="Medium-M" transform="matrix(1 0 0 1 1691.18 1126)">
   <path d="M24.9153 11.1778L85.8353 11.1778Q98.2986 11.1778 98.2986 2.80304Q98.2986-2.20184 95.29-7.65266Q92.2813-13.1035 86.6558-17.8516Q81.0303-22.5998 73.1182-25.5524Q65.2061-28.5049 55.3909-28.5049Q45.5437-28.5049 37.6316-25.5524Q29.7195-22.5998 24.094-17.8516Q18.4685-13.1035 15.4598-7.65266Q12.4512-2.20184 12.4512 2.80304Q12.4512 11.1778 24.9153 11.1778ZM23.3231 2.74124Q22.4434 2.74124 22.0768 2.45705Q21.7102 2.17285 21.7102 1.47934Q21.7102-1.30539 23.9235-4.98581Q26.1368-8.66623 30.444-12.0998Q34.7511-15.5334 41.0255-17.8009Q47.3-20.0684 55.3909-20.0684Q63.4811-20.0684 69.7399-17.8009Q75.9987-15.5334 80.3059-12.0998Q84.613-8.66623 86.8267-4.98581Q89.0404-1.30539 89.0404 1.47934Q89.0404 2.17285 88.6734 2.45705Q88.3064 2.74124 87.458 2.74124ZM55.3909-34.1995Q61.2976-34.1995 66.14-37.3508Q70.9824-40.5022 73.8697-45.7592Q76.757-51.0162 76.757-57.4036Q76.757-63.7062 73.8853-68.8301Q71.0136-73.954 66.1671-76.9852Q61.3205-80.0163 55.3909-80.0163Q49.5094-80.0163 44.6629-76.9451Q39.8163-73.8739 36.9202-68.7298Q34.024-63.5857 34.0332-57.3143Q34.0332-50.9674 36.9205-45.7146Q39.8079-40.4617 44.6499-37.3306Q49.4919-34.1995 55.3909-34.1995ZM55.3909-42.6353Q52.0195-42.6353 49.1749-44.5965Q46.3303-46.5576 44.6045-49.8932Q42.8787-53.2288 42.8787-57.3318Q42.8703-61.3426 44.5847-64.5603Q46.299-67.778 49.1436-69.6789Q51.9882-71.5797 55.3909-71.5797Q58.8417-71.5797 61.6821-69.7189Q64.5226-67.8581 66.217-64.6362Q67.9115-61.4143 67.9115-57.4036Q67.9115-53.3089 66.2056-49.9531Q64.4997-46.5973 61.6596-44.6163Q58.8196-42.6353 55.3909-42.6353Z"/>
  </g>
  <g id="Regular-M" transform="matrix(1 0 0 1 1394.74 1126)">
   <path d="M24.4141 10.791L85.791 10.791Q97.7539 10.791 97.7539 2.97852Q97.7539-1.80664 94.8242-7.22656Q91.8945-12.6465 86.3525-17.4561Q80.8105-22.2656 72.9248-25.293Q65.0391-28.3203 55.127-28.3203Q45.166-28.3203 37.2803-25.293Q29.3945-22.2656 23.8525-17.4561Q18.3105-12.6465 15.3809-7.22656Q12.4512-1.80664 12.4512 2.97852Q12.4512 10.791 24.4141 10.791ZM22.1191 3.41797Q21.1426 3.41797 20.7275 3.125Q20.3125 2.83203 20.3125 2.05078Q20.3125-0.927734 22.583-4.8584Q24.8535-8.78906 29.2969-12.4512Q33.7402-16.1133 40.2344-18.5303Q46.7285-20.9473 55.127-20.9473Q63.5254-20.9473 69.9951-18.5303Q76.4648-16.1133 80.9082-12.4512Q85.3516-8.78906 87.6221-4.8584Q89.8926-0.927734 89.8926 2.05078Q89.8926 2.83203 89.4775 3.125Q89.0625 3.41797 88.1348 3.41797ZM55.127-34.375Q60.9375-34.375 65.7227-37.5Q70.5078-40.625 73.3643-45.8252Q76.2207-51.0254 76.2207-57.3242Q76.2207-63.5742 73.3887-68.6279Q70.5566-73.6816 65.7715-76.6602Q60.9863-79.6387 55.127-79.6387Q49.3164-79.6387 44.5312-76.6113Q39.7461-73.584 36.8896-68.5059Q34.0332-63.4277 34.0332-57.2266Q34.0332-50.9766 36.8896-45.7764Q39.7461-40.5762 44.5312-37.4756Q49.3164-34.375 55.127-34.375ZM55.127-41.748Q51.5625-41.748 48.5596-43.8232Q45.5566-45.8984 43.7256-49.4141Q41.8945-52.9297 41.8945-57.2266Q41.8945-61.4746 43.7012-64.8682Q45.5078-68.2617 48.5107-70.2637Q51.5137-72.2656 55.127-72.2656Q58.7891-72.2656 61.792-70.3125Q64.7949-68.3594 66.5771-64.9658Q68.3594-61.5723 68.3594-57.3242Q68.3594-53.0273 66.5527-49.4873Q64.7461-45.9473 61.7432-43.8477Q58.7402-41.748 55.127-41.748Z"/>
  </g>
  <g id="Light-M" transform="matrix(1 0 0 1 1098.61 1126)">
   <path d="M22.9912 10.1852L86.0481 10.1852Q96.6034 10.1852 96.6034 2.96326Q96.6034-1.79138 93.6966-7.15065Q90.7898-12.5099 85.3157-17.2363Q79.8416-21.9627 72.0695-24.9371Q64.2975-27.9114 54.5364-27.9114Q44.7571-27.9114 36.9774-24.9371Q29.1977-21.9627 23.724-17.2363Q18.2503-12.5099 15.3507-7.15065Q12.4512-1.79138 12.4512 2.96326Q12.4512 10.1852 22.9912 10.1852ZM21.4836 4.46243Q19.8105 4.46243 19.1532 4.00276Q18.4959 3.54309 18.4959 2.35367Q18.4959-1.09406 20.8801-5.31998Q23.2643-9.5459 27.8893-13.382Q32.5142-17.218 39.22-19.7033Q45.9259-22.1886 54.5364-22.1886Q63.147-22.1886 69.8437-19.7033Q76.5404-17.218 81.1653-13.382Q85.7903-9.5459 88.1744-5.31998Q90.5586-1.09406 90.5586 2.35367Q90.5586 3.54309 89.9014 4.00276Q89.2441 4.46243 87.6053 4.46243ZM54.5822-34.5413Q60.2867-34.5413 64.9357-37.5755Q69.5847-40.6097 72.3427-45.7039Q75.1007-50.798 75.1007-57.0213Q75.1007-63.1203 72.3366-68.0908Q69.5724-73.0614 64.9162-76.0017Q60.26-78.9421 54.5822-78.9421Q48.9227-78.9421 44.2589-75.9602Q39.595-72.9782 36.8217-67.9985Q34.0485-63.0188 34.0637-56.9695Q34.0935-50.7645 36.8443-45.6703Q39.595-40.5762 44.2364-37.5587Q48.8777-34.5413 54.5822-34.5413ZM54.5822-40.2649Q50.6088-40.2649 47.3259-42.4839Q44.043-44.7029 42.0757-48.4909Q40.1085-52.2789 40.1085-56.9695Q40.0932-61.4899 42.0589-65.1711Q44.0247-68.8522 47.3152-71.0358Q50.6058-73.2193 54.5822-73.2193Q58.577-73.2193 61.8599-71.0693Q65.1428-68.9194 67.0994-65.2458Q69.0559-61.5723 69.0559-57.0213Q69.0559-52.346 67.1055-48.5413Q65.155-44.7365 61.8721-42.5007Q58.5892-40.2649 54.5822-40.2649Z"/>
  </g>
  <g id="Thin-M" transform="matrix(1 0 0 1 802.656 1126)">
   <path d="M21.1098 9.38492L86.3884 9.38492Q95.0821 9.38492 95.0821 2.94342Q95.0821-1.77155 92.205-7.0507Q89.328-12.3299 83.9443-16.946Q78.5606-21.5622 70.9385-24.4667Q63.3163-27.3712 53.756-27.3712Q44.2169-27.3712 36.5772-24.4667Q28.9375-21.5622 23.5538-16.946Q18.1702-12.3299 15.3107-7.0507Q12.4512-1.77155 12.4512 2.94342Q12.4512 9.38492 21.1098 9.38492ZM20.6429 5.84335Q18.0489 5.84335 17.0715 5.16396Q16.0942 4.48456 16.0942 2.75421Q16.0942-1.31454 18.6283-5.93071Q21.1624-10.5469 26.0277-14.6133Q30.8929-18.6798 37.8792-21.2547Q44.8654-23.8297 53.756-23.8297Q62.6465-23.8297 69.6434-21.2547Q76.6403-18.6798 81.5056-14.6133Q86.3708-10.5469 88.905-5.93071Q91.4391-1.31454 91.4391 2.75421Q91.4391 4.48456 90.4617 5.16396Q89.4844 5.84335 86.9041 5.84335ZM53.8612-34.7618Q59.4261-34.7618 63.8947-37.6759Q68.3632-40.5899 70.9911-45.5441Q73.6191-50.4982 73.6191-56.6208Q73.6191-62.5198 70.9454-67.3801Q68.2716-72.2404 63.7852-75.1308Q59.2987-78.0212 53.8612-78.0212Q48.4024-78.0212 43.8984-75.0996Q39.3944-72.1779 36.7313-67.3283Q34.0683-62.4786 34.1034-56.6292Q34.1736-50.4845 36.784-45.5303Q39.3944-40.5762 43.8457-37.669Q48.2971-34.7618 53.8612-34.7618ZM53.8612-38.3026Q49.3477-38.3026 45.6944-40.712Q42.041-43.1213 39.8937-47.2698Q37.7464-51.4183 37.7464-56.6292Q37.7113-61.5097 39.8869-65.5712Q42.0624-69.6327 45.7333-72.0566Q49.4041-74.4804 53.8612-74.4804Q58.297-74.4804 61.9503-72.0703Q65.6036-69.6602 67.7902-65.6162Q69.9768-61.5723 69.9768-56.6208Q69.9768-51.445 67.836-47.29Q65.6952-43.1351 62.0419-40.7188Q58.3885-38.3026 53.8612-38.3026Z"/>
  </g>
  <g id="Ultralight-M" transform="matrix(1 0 0 1 506.334 1126)">
   <path d="M20.1454 8.97446L86.5631 8.97446Q94.3031 8.97446 94.3031 2.93274Q94.3031-1.76086 91.4413-6.99921Q88.5796-12.2375 83.242-16.7976Q77.9045-21.3577 70.3594-24.226Q62.8143-27.0943 53.3562-27.0943Q43.94-27.0943 36.372-24.226Q28.804-21.3577 23.4665-16.7976Q18.129-12.2375 15.2901-6.99921Q12.4512-1.76086 12.4512 2.93274Q12.4512 8.97446 20.1454 8.97446ZM20.2118 6.55136Q17.1463 6.55136 16.0049 5.75867Q14.8636 4.96597 14.8636 2.95868Q14.8636-1.42746 17.4744-6.24352Q20.0851-11.0596 25.0736-15.2439Q30.0621-19.4283 37.1918-22.0497Q44.3214-24.6712 53.3562-24.6712Q62.3901-24.6712 69.5412-22.0497Q76.6922-19.4283 81.6803-15.2439Q86.6684-11.0596 89.2796-6.24352Q91.8907-1.42746 91.8907 2.95868Q91.8907 4.96597 90.749 5.75867Q89.6072 6.55136 86.5456 6.55136ZM53.492-34.8747Q58.9851-34.8747 63.3614-37.727Q67.7376-40.5792 70.2991-45.4617Q72.8607-50.3441 72.8607-56.4163Q72.8607-62.2116 70.2328-67.0158Q67.6048-71.8201 63.2057-74.6849Q58.8066-77.5497 53.492-77.5497Q48.1354-77.5497 43.7138-74.6586Q39.2921-71.7674 36.6856-66.9846Q34.079-62.2017 34.124-56.4545Q34.2148-50.341 36.7535-45.4586Q39.2921-40.5762 43.6459-37.7254Q47.9996-34.8747 53.492-34.8747ZM53.492-37.2978Q48.7015-37.2978 44.8586-39.8045Q41.0156-42.3111 38.776-46.6442Q36.5364-50.9773 36.5364-56.4545Q36.4906-61.5204 38.7741-65.7764Q41.0576-70.0325 44.9234-72.5796Q48.7892-75.1266 53.492-75.1266Q58.1535-75.1266 61.9965-72.583Q65.8394-70.0394 68.1438-65.8058Q70.4483-61.5723 70.4483-56.4163Q70.4483-50.9842 68.2102-46.6492Q65.9721-42.3141 62.1292-39.806Q58.2863-37.2978 53.492-37.2978Z"/>
  </g>
  <g id="Black-S" transform="matrix(1 0 0 1 2888.97 696)">
   <path d="M21.4355 2.63672L67.4316 2.63672Q79.1016 2.63672 79.1016-6.15234Q79.1016-10.9375 76.4404-15.332Q73.7793-19.7266 69.043-23.1689Q64.3066-26.6113 58.0078-28.6377Q51.709-30.6641 44.4336-30.6641Q37.1582-30.6641 30.8594-28.6377Q24.5605-26.6113 19.8242-23.1689Q15.0879-19.7266 12.4268-15.332Q9.76562-10.9375 9.76562-6.15234Q9.76562 2.63672 21.4355 2.63672ZM23.0469-8.10547Q22.7051-8.10547 22.583-8.3252Q22.4609-8.54492 22.4609-8.74023Q22.4609-10.1562 23.9746-12.0605Q25.4883-13.9648 28.3203-15.7715Q31.1523-17.5781 35.2295-18.75Q39.3066-19.9219 44.4336-19.9219Q49.5605-19.9219 53.6377-18.75Q57.7148-17.5781 60.5469-15.7715Q63.3789-13.9648 64.8926-12.0605Q66.4062-10.1562 66.4062-8.74023Q66.4062-8.54492 66.3086-8.3252Q66.2109-8.10547 65.8203-8.10547ZM44.4336-33.7402Q49.4141-33.7402 53.4424-36.3037Q57.4707-38.8672 59.8389-43.2129Q62.207-47.5586 62.207-52.8809Q62.207-58.0566 59.79-62.3291Q57.373-66.6016 53.3447-69.1895Q49.3164-71.7773 44.4336-71.7773Q39.5508-71.7773 35.498-69.1895Q31.4453-66.6016 29.0527-62.3291Q26.6602-58.0566 26.6602-52.8809Q26.709-47.5586 29.0527-43.2129Q31.3965-38.8672 35.4248-36.3037Q39.4531-33.7402 44.4336-33.7402ZM44.4336-44.4824Q42.5293-44.4824 40.918-45.5566Q39.3066-46.6309 38.3545-48.5596Q37.4023-50.4883 37.4023-52.9297Q37.4023-55.1758 38.3789-57.0068Q39.3555-58.8379 40.9668-59.9365Q42.5781-61.0352 44.4336-61.0352Q46.3379-61.0352 47.9248-59.9365Q49.5117-58.8379 50.4883-56.9824Q51.4648-55.127 51.4648-52.8809Q51.4648-50.4883 50.5127-48.584Q49.5605-46.6797 47.9736-45.5811Q46.3867-44.4824 44.4336-44.4824Z"/>
  </g>
  <g id="Heavy-S" transform="matrix(1 0 0 1 2592.49 696)">
   <path d="M21.0556 2.27966L67.3508 2.27966Q78.6407 2.27966 78.6407-5.94482Q78.6407-10.4881 76.0658-14.8594Q73.4909-19.2307 68.8412-22.7539Q64.1914-26.2772 57.9041-28.3958Q51.6167-30.5145 44.2032-30.5145Q36.7897-30.5145 30.508-28.3958Q24.2264-26.2772 19.5705-22.7539Q14.9147-19.2307 12.3402-14.8594Q9.76562-10.4881 9.76562-5.94482Q9.76562 2.27966 21.0556 2.27966ZM21.7674-7.48291Q21.4142-7.48291 21.2692-7.68547Q21.1243-7.88803 21.1243-8.12912Q21.1243-9.71832 22.6898-11.8645Q24.2554-14.0106 27.2198-16.048Q30.1842-18.0855 34.4688-19.4187Q38.7535-20.752 44.2032-20.752Q49.6529-20.752 53.9375-19.4187Q58.2222-18.0855 61.1866-16.048Q64.151-14.0106 65.7166-11.8645Q67.2821-9.71832 67.2821-8.12912Q67.2821-7.88803 67.1616-7.68547Q67.041-7.48291 66.6382-7.48291ZM44.2032-33.9249Q49.0913-33.9249 53.0735-36.4651Q57.0557-39.0053 59.4009-43.2991Q61.7462-47.5929 61.7462-52.8351Q61.7462-57.9643 59.3697-62.1735Q56.9931-66.3826 53.0163-68.9129Q49.0395-71.4432 44.2032-71.4432Q39.3898-71.4432 35.3886-68.9014Q31.3873-66.3597 29.0237-62.1449Q26.6602-57.93 26.6602-52.8114Q26.6975-47.5815 29.0298-43.2877Q31.3622-38.9938 35.3386-36.4594Q39.315-33.9249 44.2032-33.9249ZM44.2032-43.676Q42.1371-43.676 40.382-44.8597Q38.6269-46.0434 37.5767-48.1335Q36.5265-50.2235 36.5265-52.8488Q36.5265-55.3253 37.5896-57.3177Q38.6528-59.3102 40.4079-60.4954Q42.1631-61.6806 44.2032-61.6806Q46.2921-61.6806 48.0286-60.5011Q49.765-59.3216 50.8224-57.3109Q51.8799-55.3001 51.8799-52.8351Q51.8799-50.2464 50.8354-48.1693Q49.791-46.0922 48.0541-44.8841Q46.3173-43.676 44.2032-43.676Z"/>
  </g>
  <g id="Bold-S" transform="matrix(1 0 0 1 2296.03 696)">
   <path d="M20.6299 1.87988L67.2607 1.87988Q78.125 1.87988 78.125-5.71289Q78.125-9.98535 75.647-14.3311Q73.1689-18.6768 68.6157-22.29Q64.0625-25.9033 57.7881-28.125Q51.5137-30.3467 43.9453-30.3467Q36.377-30.3467 30.1147-28.125Q23.8525-25.9033 19.2871-22.29Q14.7217-18.6768 12.2437-14.3311Q9.76562-9.98535 9.76562-5.71289Q9.76562 1.87988 20.6299 1.87988ZM20.3369-6.78711Q19.9707-6.78711 19.7998-6.97021Q19.6289-7.15332 19.6289-7.44629Q19.6289-9.22852 21.2524-11.6455Q22.876-14.0625 25.9888-16.3574Q29.1016-18.6523 33.6182-20.166Q38.1348-21.6797 43.9453-21.6797Q49.7559-21.6797 54.2725-20.166Q58.7891-18.6523 61.9019-16.3574Q65.0146-14.0625 66.6382-11.6455Q68.2617-9.22852 68.2617-7.44629Q68.2617-7.15332 68.1152-6.97021Q67.9688-6.78711 67.5537-6.78711ZM43.9453-34.1309Q48.7305-34.1309 52.6611-36.6455Q56.5918-39.1602 58.9111-43.396Q61.2305-47.6318 61.2305-52.7832Q61.2305-57.8613 58.8989-61.9995Q56.5674-66.1377 52.6489-68.6035Q48.7305-71.0693 43.9453-71.0693Q39.209-71.0693 35.2661-68.5791Q31.3232-66.0889 28.9917-61.9385Q26.6602-57.7881 26.6602-52.7344Q26.6846-47.6074 29.0039-43.3716Q31.3232-39.1357 35.2417-36.6333Q39.1602-34.1309 43.9453-34.1309ZM43.9453-42.7734Q41.6992-42.7734 39.7827-44.0796Q37.8662-45.3857 36.7065-47.6562Q35.5469-49.9268 35.5469-52.7588Q35.5469-55.4932 36.7065-57.666Q37.8662-59.8389 39.7827-61.1206Q41.6992-62.4023 43.9453-62.4023Q46.2402-62.4023 48.1445-61.1328Q50.0488-59.8633 51.1963-57.6782Q52.3438-55.4932 52.3438-52.7832Q52.3438-49.9756 51.1963-47.7051Q50.0488-45.4346 48.1445-44.104Q46.2402-42.7734 43.9453-42.7734Z"/>
  </g>
  <g id="Semibold-S" transform="matrix(1 0 0 1 1999.5 696)">
   <path d="M20.3369 1.60446L67.1982 1.60446Q77.7695 1.60446 77.7695-5.55267Q77.7695-9.63898 75.3582-13.9668Q72.9469-18.2945 68.4605-21.97Q63.974-25.6454 57.7084-27.9385Q51.4427-30.2315 43.7675-30.2315Q36.0924-30.2315 29.8435-27.9385Q23.5947-25.6454 19.0914-21.97Q14.5882-18.2945 12.1769-13.9668Q9.76562-9.63898 9.76562-5.55267Q9.76562 1.60446 20.3369 1.60446ZM19.3504-6.30722Q18.9751-6.30722 18.7866-6.47697Q18.5982-6.64673 18.5982-6.97556Q18.5982-8.89053 20.2618-11.4944Q21.9254-14.0984 25.1404-16.571Q28.3554-19.0437 33.0318-20.6818Q37.7083-22.3198 43.7675-22.3198Q49.8268-22.3198 54.5036-20.6818Q59.1805-19.0437 62.3951-16.571Q65.6097-14.0984 67.2733-11.4944Q68.9369-8.89053 68.9369-6.97556Q68.9369-6.64673 68.7729-6.47697Q68.6089-6.30722 68.1847-6.30722ZM43.7675-34.2728Q48.4818-34.2728 52.3769-36.7699Q56.2721-39.267 58.5735-43.4628Q60.8749-47.6585 60.8749-52.7473Q60.8749-57.7904 58.5747-61.8797Q56.2744-65.9691 52.3956-68.3903Q48.5168-70.8115 43.7675-70.8115Q39.0846-70.8115 35.1818-68.3567Q31.279-65.9019 28.9696-61.7962Q26.6602-57.6904 26.6602-52.681Q26.6754-47.625 28.986-43.4292Q31.2965-39.2334 35.1749-36.7531Q39.0533-34.2728 43.7675-34.2728ZM43.7675-42.1516Q41.3971-42.1516 39.3696-43.5421Q37.3421-44.9326 36.1069-47.3274Q34.8717-49.7223 34.8717-52.6962Q34.8717-55.6084 36.0977-57.906Q37.3238-60.2036 39.3517-61.5517Q41.3795-62.8998 43.7675-62.8998Q46.2044-62.8998 48.2243-61.5681Q50.2441-60.2364 51.4538-57.9315Q52.6634-55.6267 52.6634-52.7473Q52.6634-49.7887 51.445-47.385Q50.2266-44.9814 48.2067-43.5665Q46.1868-42.1516 43.7675-42.1516Z"/>
  </g>
  <g id="Medium-S" transform="matrix(1 0 0 1 1702.92 696)">
   <path d="M20.1141 1.39542L67.1516 1.39542Q77.5002 1.39542 77.5002-5.43137Q77.5002-9.37576 75.1392-13.6902Q72.7783-18.0046 68.3422-21.7274Q63.9061-25.4501 57.6473-27.7969Q51.3885-30.1437 43.6325-30.1437Q35.8772-30.1437 29.6383-27.7969Q23.3994-25.4501 18.9434-21.7274Q14.4875-18.0046 12.1265-13.6902Q9.76562-9.37576 9.76562-5.43137Q9.76562 1.39542 20.1141 1.39542ZM18.6028-5.9433Q18.2205-5.9433 18.0183-6.10313Q17.8162-6.26297 17.8162-6.6185Q17.8162-8.63495 19.5103-11.38Q21.2044-14.1251 24.4968-16.7324Q27.7893-19.3398 32.5871-21.0724Q37.3848-22.805 43.6325-22.805Q49.881-22.805 54.6787-21.0724Q59.4765-19.3398 62.7689-16.7324Q66.0614-14.1251 67.7555-11.38Q69.4496-8.63495 69.4496-6.6185Q69.4496-6.26297 69.2719-6.10313Q69.0941-5.9433 68.663-5.9433ZM43.6325-34.3811Q48.2933-34.3811 52.1614-36.8645Q56.0295-39.3478 58.3176-43.5131Q60.6056-47.6784 60.6056-52.7206Q60.6056-57.7362 58.3286-61.7886Q56.0516-65.8409 52.2034-68.2285Q48.3551-70.6161 43.6325-70.6161Q38.99-70.6161 35.1177-68.1885Q31.2454-65.7608 28.9528-61.6886Q26.6602-57.6164 26.6602-52.6405Q26.6693-47.6387 28.973-43.4731Q31.2767-39.3074 35.1246-36.8443Q38.9725-34.3811 43.6325-34.3811ZM43.6325-41.6794Q41.1682-41.6794 39.0564-43.1339Q36.9446-44.5885 35.6518-47.0779Q34.359-49.5674 34.359-52.6497Q34.359-55.6961 35.6361-58.0879Q36.9133-60.4797 39.0251-61.8786Q41.1369-63.2774 43.6325-63.2774Q46.1777-63.2774 48.2853-61.8984Q50.3929-60.5194 51.6495-58.1234Q52.906-55.7274 52.906-52.7206Q52.906-49.6475 51.6338-47.1424Q50.3616-44.6373 48.254-43.1583Q46.1464-41.6794 43.6325-41.6794Z"/>
  </g>
  <g id="Regular-S" transform="matrix(1 0 0 1 1406.39 696)">
   <path d="M19.8242 1.12305L67.0898 1.12305Q77.1484 1.12305 77.1484-5.27344Q77.1484-9.0332 74.8535-13.3301Q72.5586-17.627 68.1885-21.4111Q63.8184-25.1953 57.5684-27.6123Q51.3184-30.0293 43.457-30.0293Q35.5957-30.0293 29.3701-27.6123Q23.1445-25.1953 18.75-21.4111Q14.3555-17.627 12.0605-13.3301Q9.76562-9.0332 9.76562-5.27344Q9.76562 1.12305 19.8242 1.12305ZM17.627-5.46875Q17.2363-5.46875 17.0166-5.61523Q16.7969-5.76172 16.7969-6.15234Q16.7969-8.30078 18.5303-11.2305Q20.2637-14.1602 23.6572-16.9434Q27.0508-19.7266 32.0068-21.582Q36.9629-23.4375 43.457-23.4375Q49.9512-23.4375 54.9072-21.582Q59.8633-19.7266 63.2568-16.9434Q66.6504-14.1602 68.3838-11.2305Q70.1172-8.30078 70.1172-6.15234Q70.1172-5.76172 69.9219-5.61523Q69.7266-5.46875 69.2871-5.46875ZM43.457-34.5215Q48.0469-34.5215 51.8799-36.9873Q55.7129-39.4531 57.9834-43.5791Q60.2539-47.7051 60.2539-52.6855Q60.2539-57.666 58.0078-61.6699Q55.7617-65.6738 51.9531-68.0176Q48.1445-70.3613 43.457-70.3613Q38.8672-70.3613 35.0342-67.9688Q31.2012-65.5762 28.9307-61.5479Q26.6602-57.5195 26.6602-52.5879Q26.6602-47.6562 28.9551-43.5303Q31.25-39.4043 35.0586-36.9629Q38.8672-34.5215 43.457-34.5215ZM43.457-41.0645Q40.8691-41.0645 38.6475-42.6025Q36.4258-44.1406 35.0586-46.7529Q33.6914-49.3652 33.6914-52.5879Q33.6914-55.8105 35.0342-58.3252Q36.377-60.8398 38.5986-62.3047Q40.8203-63.7695 43.457-63.7695Q46.1426-63.7695 48.3643-62.3291Q50.5859-60.8887 51.9043-58.374Q53.2227-55.8594 53.2227-52.6855Q53.2227-49.4629 51.8799-46.8262Q50.5371-44.1895 48.3154-42.627Q46.0938-41.0645 43.457-41.0645Z"/>
  </g>
  <g id="Light-S" transform="matrix(1 0 0 1 1110.18 696)">
   <path d="M18.5677 0.578308L67.3172 0.578308Q76.1345 0.578308 76.1345-5.2887Q76.1345-9.0332 73.8544-13.2618Q71.5744-17.4904 67.2649-21.2143Q62.9555-24.9382 56.8115-27.2945Q50.6676-29.6509 42.942-29.6509Q35.2325-29.6509 29.1054-27.2945Q22.9782-24.9382 18.644-21.2143Q14.3097-17.4904 12.0377-13.2618Q9.76562-9.0332 9.76562-5.2887Q9.76562 0.578308 18.5677 0.578308ZM17.067-4.54559Q16.0553-4.54559 15.6239-4.84352Q15.1924-5.14145 15.1924-5.89523Q15.1924-8.43735 17.0242-11.6318Q18.856-14.8262 22.4087-17.7685Q25.9613-20.7108 31.1138-22.6265Q36.2663-24.5422 42.942-24.5422Q49.6185-24.5422 54.771-22.6265Q59.9236-20.7108 63.4838-17.7685Q67.0441-14.8262 68.8759-11.6318Q70.7077-8.43735 70.7077-5.89523Q70.7077-5.14145 70.2927-4.84352Q69.8776-4.54559 68.8179-4.54559ZM42.9726-34.6581Q47.4716-34.6581 51.1837-37.048Q54.8958-39.4379 57.0827-43.4731Q59.2697-47.5082 59.2697-52.4284Q59.2697-57.2571 57.0843-61.1855Q54.8988-65.1138 51.2039-67.4274Q47.509-69.7411 42.9726-69.7411Q38.504-69.7411 34.7919-67.3939Q31.0799-65.0467 28.8776-61.1015Q26.6754-57.1564 26.6907-52.3605Q26.7059-47.4747 28.9097-43.4395Q31.1134-39.4043 34.7935-37.0312Q38.4735-34.6581 42.9726-34.6581ZM42.9726-39.7476Q40.0215-39.7476 37.5576-41.4219Q35.0937-43.0962 33.6056-45.9507Q32.1175-48.8052 32.1175-52.3605Q32.1022-55.8258 33.5812-58.5903Q35.0601-61.3548 37.5389-62.986Q40.0177-64.6172 42.9726-64.6172Q45.961-64.6172 48.4325-63.0104Q50.9041-61.4037 52.3735-58.6315Q53.8429-55.8594 53.8429-52.4284Q53.8429-48.8724 52.3716-46.0011Q50.9003-43.1297 48.4287-41.4387Q45.9572-39.7476 42.9726-39.7476Z"/>
  </g>
  <g id="Thin-S" transform="matrix(1 0 0 1 814.143 696)">
   <path d="M16.9067-0.14267L67.617-0.14267Q74.7932-0.14267 74.7932-5.30853Q74.7932-9.0332 72.5334-13.1718Q70.2736-17.3103 66.0442-20.9541Q61.8149-24.5979 55.8109-26.8742Q49.807-29.1504 42.2615-29.1504Q34.7519-29.1504 28.7548-26.8742Q22.7577-24.5979 18.504-20.9541Q14.2502-17.3103 12.0079-13.1718Q9.76562-9.0332 9.76562-5.30853Q9.76562-0.14267 16.9067-0.14267ZM16.3261-3.32413Q14.4943-3.32413 13.7825-3.82233Q13.0707-4.32053 13.0707-5.55496Q13.0707-8.6174 15.0326-12.162Q16.9945-15.7066 20.7569-18.8591Q24.5193-22.0116 29.9324-24.0078Q35.3455-26.004 42.2615-26.004Q49.1776-26.004 54.5906-24.0078Q60.0037-22.0116 63.784-18.8591Q67.5644-15.7066 69.5263-12.162Q71.4882-8.6174 71.4882-5.55496Q71.4882-4.32053 70.7832-3.82233Q70.0783-3.32413 68.1976-3.32413ZM42.3325-34.8381Q46.711-34.8381 50.2628-37.1281Q53.8147-39.418 55.8918-43.3331Q57.9689-47.2481 57.9689-52.0882Q57.9689-56.7169 55.8636-60.545Q53.7582-64.373 50.2132-66.6466Q46.6682-68.9201 42.3325-68.9201Q38.0234-68.9201 34.4715-66.6328Q30.9196-64.3456 28.8074-60.5106Q26.6953-56.6757 26.7303-52.0607Q26.7654-47.2343 28.8494-43.3193Q30.9334-39.4043 34.4433-37.1212Q37.9532-34.8381 42.3325-34.8381ZM42.3325-38.0058Q38.9008-38.0058 36.1164-39.8605Q33.3321-41.7152 31.6837-44.8898Q30.0354-48.0644 30.0354-52.0607Q30.0003-55.8456 31.6593-58.9405Q33.3183-62.0354 36.1378-63.8866Q38.9572-65.7379 42.3325-65.7379Q45.7207-65.7379 48.5226-63.9111Q51.3245-62.0842 52.9942-58.9718Q54.6638-55.8594 54.6638-52.0882Q54.6638-48.0919 53.0224-44.9104Q51.3809-41.729 48.579-39.8674Q45.7771-38.0058 42.3325-38.0058Z"/>
  </g>
  <g id="Ultralight-S" transform="matrix(1 0 0 1 517.775 696)">
   <path d="M16.0553-0.511932L67.7711-0.511932Q74.1058-0.511932 74.1058-5.31921Q74.1058-9.0332 71.8563-13.1256Q69.6068-17.218 65.4182-20.8206Q61.2297-24.4232 55.2979-26.6586Q49.366-28.894 41.9128-28.894Q34.5062-28.894 28.5755-26.6586Q22.6448-24.4232 18.4319-20.8206Q14.2189-17.218 11.9923-13.1256Q9.76562-9.0332 9.76562-5.31921Q9.76562-0.511932 16.0553-0.511932ZM15.947-2.69852Q13.694-2.69852 12.8387-3.29933Q11.9835-3.90015 11.9835-5.38025Q11.9835-8.70972 14.0121-12.434Q16.0408-16.1583 19.9112-19.4183Q23.7816-22.6784 29.3278-24.7154Q34.874-26.7525 41.9128-26.7525Q48.9525-26.7525 54.4987-24.7154Q60.0449-22.6784 63.9381-19.4183Q67.8314-16.1583 69.8597-12.434Q71.888-8.70972 71.888-5.38025Q71.888-3.90015 71.0342-3.29933Q70.1805-2.69852 67.8795-2.69852ZM42.0036-34.9304Q46.3211-34.9304 49.791-37.1689Q53.2608-39.4073 55.2814-43.261Q57.3021-47.1146 57.3021-51.9135Q57.3021-56.44 55.2376-60.2169Q53.1731-63.9938 49.7051-66.2468Q46.2372-68.4998 42.0036-68.4998Q37.7777-68.4998 34.3079-66.2434Q30.838-63.987 28.772-60.2085Q26.7059-56.4301 26.7509-51.9066Q26.7967-47.1115 28.8189-43.2579Q30.8411-39.4043 34.2636-37.1674Q37.6862-34.9304 42.0036-34.9304ZM42.0036-37.114Q38.3263-37.114 35.3779-39.0606Q32.4295-41.0072 30.6992-44.3462Q28.9688-47.6852 28.9688-51.9066Q28.923-55.8563 30.6747-59.1202Q32.4265-62.384 35.4198-64.3482Q38.4132-66.3124 42.0036-66.3124Q45.5978-66.3124 48.5687-64.3726Q51.5396-62.4329 53.3119-59.1461Q55.0842-55.8594 55.0842-51.9135Q55.0842-47.6921 53.3554-44.3516Q51.6266-41.011 48.6557-39.0625Q45.6848-37.114 42.0036-37.114Z"/>
  </g>
 </g>
</svg>
