<?xml version="1.0" encoding="UTF-8"?>
<!--Generator: Apple Native CoreSVG 149-->
<!DOCTYPE svg
PUBLIC "-//W3C//DTD SVG 1.1//EN"
       "http://www.w3.org/Graphics/SVG/1.1/DTD/svg11.dtd">
<svg version="1.1" xmlns="http://www.w3.org/2000/svg" xmlns:xlink="http://www.w3.org/1999/xlink" width="3300" height="2200">
 <!--glyph: "uni100747.medium", point size: 100.0, font version: "17.0d8e1", template writer version: "58"-->
 <g id="Notes">
  <rect height="2200" id="artboard" style="fill:white;opacity:1" width="3300" x="0" y="0"/>
  <line style="fill:none;stroke:black;opacity:1;stroke-width:0.5;" x1="263" x2="3036" y1="292" y2="292"/>
  <text style="stroke:none;fill:black;font-family:SF Pro,SF Pro Display,SF Pro Text,sans-serif;font-size:13;font-weight:bold;" transform="matrix(1 0 0 1 263 322)">Weight/Scale Variations</text>
  <text style="stroke:none;fill:black;font-family:SF Pro,SF Pro Display,SF Pro Text,sans-serif;font-size:13;text-anchor:middle;" transform="matrix(1 0 0 1 559.711 322)">Ultralight</text>
  <text style="stroke:none;fill:black;font-family:SF Pro,SF Pro Display,SF Pro Text,sans-serif;font-size:13;text-anchor:middle;" transform="matrix(1 0 0 1 856.422 322)">Thin</text>
  <text style="stroke:none;fill:black;font-family:SF Pro,SF Pro Display,SF Pro Text,sans-serif;font-size:13;text-anchor:middle;" transform="matrix(1 0 0 1 1153.13 322)">Light</text>
  <text style="stroke:none;fill:black;font-family:SF Pro,SF Pro Display,SF Pro Text,sans-serif;font-size:13;text-anchor:middle;" transform="matrix(1 0 0 1 1449.84 322)">Regular</text>
  <text style="stroke:none;fill:black;font-family:SF Pro,SF Pro Display,SF Pro Text,sans-serif;font-size:13;text-anchor:middle;" transform="matrix(1 0 0 1 1746.56 322)">Medium</text>
  <text style="stroke:none;fill:black;font-family:SF Pro,SF Pro Display,SF Pro Text,sans-serif;font-size:13;text-anchor:middle;" transform="matrix(1 0 0 1 2043.27 322)">Semibold</text>
  <text style="stroke:none;fill:black;font-family:SF Pro,SF Pro Display,SF Pro Text,sans-serif;font-size:13;text-anchor:middle;" transform="matrix(1 0 0 1 2339.98 322)">Bold</text>
  <text style="stroke:none;fill:black;font-family:SF Pro,SF Pro Display,SF Pro Text,sans-serif;font-size:13;text-anchor:middle;" transform="matrix(1 0 0 1 2636.69 322)">Heavy</text>
  <text style="stroke:none;fill:black;font-family:SF Pro,SF Pro Display,SF Pro Text,sans-serif;font-size:13;text-anchor:middle;" transform="matrix(1 0 0 1 2933.4 322)">Black</text>
  <line style="fill:none;stroke:black;opacity:1;stroke-width:0.5;" x1="263" x2="3036" y1="1903" y2="1903"/>
  <g transform="matrix(1 0 0 1 263 1933)">
   <path d="M9.24805 0.830078Q10.8691 0.830078 12.2949 0.214844Q13.7207-0.400391 14.8096-1.49414Q15.8984-2.58789 16.5186-4.01367Q17.1387-5.43945 17.1387-7.05078Q17.1387-8.66211 16.5186-10.0879Q15.8984-11.5137 14.8047-12.6074Q13.7109-13.7012 12.2852-14.3164Q10.8594-14.9316 9.23828-14.9316Q7.62695-14.9316 6.20117-14.3164Q4.77539-13.7012 3.69141-12.6074Q2.60742-11.5137 1.9873-10.0879Q1.36719-8.66211 1.36719-7.05078Q1.36719-5.43945 1.9873-4.01367Q2.60742-2.58789 3.69629-1.49414Q4.78516-0.400391 6.21094 0.214844Q7.63672 0.830078 9.24805 0.830078ZM9.24805-0.654297Q7.91992-0.654297 6.7627-1.14746Q5.60547-1.64062 4.73145-2.51953Q3.85742-3.39844 3.36426-4.56055Q2.87109-5.72266 2.87109-7.05078Q2.87109-8.37891 3.35938-9.54102Q3.84766-10.7031 4.72168-11.582Q5.5957-12.4609 6.75293-12.9541Q7.91016-13.4473 9.23828-13.4473Q10.5762-13.4473 11.7334-12.9541Q12.8906-12.4609 13.7695-11.582Q14.6484-10.7031 15.1465-9.54102Q15.6445-8.37891 15.6445-7.05078Q15.6445-5.72266 15.1514-4.56055Q14.6582-3.39844 13.7842-2.51953Q12.9102-1.64062 11.748-1.14746Q10.5859-0.654297 9.24805-0.654297ZM5.83984-7.04102Q5.83984-6.71875 6.04492-6.51855Q6.25-6.31836 6.5918-6.31836L8.50586-6.31836L8.50586-4.39453Q8.50586-4.0625 8.70605-3.85742Q8.90625-3.65234 9.22852-3.65234Q9.56055-3.65234 9.76562-3.85742Q9.9707-4.0625 9.9707-4.39453L9.9707-6.31836L11.8945-6.31836Q12.2266-6.31836 12.4316-6.51855Q12.6367-6.71875 12.6367-7.04102Q12.6367-7.37305 12.4316-7.57812Q12.2266-7.7832 11.8945-7.7832L9.9707-7.7832L9.9707-9.69727Q9.9707-10.0391 9.76562-10.2441Q9.56055-10.4492 9.22852-10.4492Q8.90625-10.4492 8.70605-10.2441Q8.50586-10.0391 8.50586-9.69727L8.50586-7.7832L6.5918-7.7832Q6.25-7.7832 6.04492-7.57812Q5.83984-7.37305 5.83984-7.04102Z"/>
  </g>
  <g transform="matrix(1 0 0 1 281.867 1933)">
   <path d="M11.709 2.91016Q13.75 2.91016 15.5518 2.12891Q17.3535 1.34766 18.7305-0.0292969Q20.1074-1.40625 20.8887-3.20801Q21.6699-5.00977 21.6699-7.05078Q21.6699-9.0918 20.8887-10.8936Q20.1074-12.6953 18.7305-14.0723Q17.3535-15.4492 15.5469-16.2305Q13.7402-17.0117 11.6992-17.0117Q9.6582-17.0117 7.85645-16.2305Q6.05469-15.4492 4.68262-14.0723Q3.31055-12.6953 2.5293-10.8936Q1.74805-9.0918 1.74805-7.05078Q1.74805-5.00977 2.5293-3.20801Q3.31055-1.40625 4.6875-0.0292969Q6.06445 1.34766 7.86621 2.12891Q9.66797 2.91016 11.709 2.91016ZM11.709 1.25Q9.98047 1.25 8.47656 0.605469Q6.97266-0.0390625 5.83496-1.17676Q4.69727-2.31445 4.05762-3.81836Q3.41797-5.32227 3.41797-7.05078Q3.41797-8.7793 4.05762-10.2832Q4.69727-11.7871 5.83008-12.9297Q6.96289-14.0723 8.4668-14.7119Q9.9707-15.3516 11.6992-15.3516Q13.4277-15.3516 14.9316-14.7119Q16.4355-14.0723 17.5781-12.9297Q18.7207-11.7871 19.3652-10.2832Q20.0098-8.7793 20.0098-7.05078Q20.0098-5.32227 19.3701-3.81836Q18.7305-2.31445 17.5928-1.17676Q16.4551-0.0390625 14.9463 0.605469Q13.4375 1.25 11.709 1.25ZM7.39258-7.04102Q7.39258-6.68945 7.62695-6.46484Q7.86133-6.24023 8.23242-6.24023L10.8789-6.24023L10.8789-3.57422Q10.8789-3.21289 11.1035-2.9834Q11.3281-2.75391 11.6797-2.75391Q12.0508-2.75391 12.2852-2.9834Q12.5195-3.21289 12.5195-3.57422L12.5195-6.24023L15.1758-6.24023Q15.5371-6.24023 15.7715-6.46484Q16.0059-6.68945 16.0059-7.04102Q16.0059-7.41211 15.7715-7.6416Q15.5371-7.87109 15.1758-7.87109L12.5195-7.87109L12.5195-10.5176Q12.5195-10.8984 12.2852-11.1279Q12.0508-11.3574 11.6797-11.3574Q11.3281-11.3574 11.1035-11.1279Q10.8789-10.8984 10.8789-10.5176L10.8789-7.87109L8.23242-7.87109Q7.85156-7.87109 7.62207-7.6416Q7.39258-7.41211 7.39258-7.04102Z"/>
  </g>
  <g transform="matrix(1 0 0 1 305.646 1933)">
   <path d="M14.9707 5.66406Q17.0605 5.66406 18.96 5.01465Q20.8594 4.36523 22.4512 3.19336Q24.043 2.02148 25.2197 0.429688Q26.3965-1.16211 27.0459-3.06641Q27.6953-4.9707 27.6953-7.05078Q27.6953-9.14062 27.0459-11.04Q26.3965-12.9395 25.2197-14.5312Q24.043-16.123 22.4512-17.2998Q20.8594-18.4766 18.9551-19.126Q17.0508-19.7754 14.9609-19.7754Q12.8711-19.7754 10.9717-19.126Q9.07227-18.4766 7.48535-17.2998Q5.89844-16.123 4.72168-14.5312Q3.54492-12.9395 2.90039-11.04Q2.25586-9.14062 2.25586-7.05078Q2.25586-4.9707 2.90527-3.06641Q3.55469-1.16211 4.72656 0.429688Q5.89844 2.02148 7.49023 3.19336Q9.08203 4.36523 10.9814 5.01465Q12.8809 5.66406 14.9707 5.66406ZM14.9707 3.84766Q13.1641 3.84766 11.5283 3.2959Q9.89258 2.74414 8.53516 1.74805Q7.17773 0.751953 6.17676-0.610352Q5.17578-1.97266 4.62891-3.6084Q4.08203-5.24414 4.08203-7.05078Q4.08203-8.86719 4.62891-10.5029Q5.17578-12.1387 6.17188-13.501Q7.16797-14.8633 8.52539-15.8594Q9.88281-16.8555 11.5186-17.4023Q13.1543-17.9492 14.9609-17.9492Q16.7773-17.9492 18.4131-17.4023Q20.0488-16.8555 21.4111-15.8594Q22.7734-14.8633 23.7695-13.501Q24.7656-12.1387 25.3174-10.5029Q25.8691-8.86719 25.8691-7.05078Q25.8789-5.24414 25.332-3.6084Q24.7852-1.97266 23.7842-0.610352Q22.7832 0.751953 21.4209 1.74805Q20.0586 2.74414 18.4229 3.2959Q16.7871 3.84766 14.9707 3.84766ZM9.45312-7.04102Q9.45312-6.66016 9.71191-6.41113Q9.9707-6.16211 10.3711-6.16211L14.0625-6.16211L14.0625-2.46094Q14.0625-2.06055 14.3115-1.80664Q14.5605-1.55273 14.9414-1.55273Q15.3516-1.55273 15.6055-1.80664Q15.8594-2.06055 15.8594-2.46094L15.8594-6.16211L19.5605-6.16211Q19.9609-6.16211 20.2148-6.41113Q20.4688-6.66016 20.4688-7.04102Q20.4688-7.45117 20.2148-7.70508Q19.9609-7.95898 19.5605-7.95898L15.8594-7.95898L15.8594-11.6504Q15.8594-12.0605 15.6055-12.3145Q15.3516-12.5684 14.9414-12.5684Q14.5605-12.5684 14.3115-12.3096Q14.0625-12.0508 14.0625-11.6504L14.0625-7.95898L10.3711-7.95898Q9.96094-7.95898 9.70703-7.70508Q9.45312-7.45117 9.45312-7.04102Z"/>
  </g>
  <text style="stroke:none;fill:black;font-family:SF Pro,SF Pro Display,SF Pro Text,sans-serif;font-size:13;font-weight:bold;" transform="matrix(1 0 0 1 263 1953)">Design Variations</text>
  <text style="stroke:none;fill:black;font-family:SF Pro,SF Pro Display,SF Pro Text,sans-serif;font-size:13;" transform="matrix(1 0 0 1 263 1971)">Symbols are supported in up to nine weights and three scales.</text>
  <text style="stroke:none;fill:black;font-family:SF Pro,SF Pro Display,SF Pro Text,sans-serif;font-size:13;" transform="matrix(1 0 0 1 263 1989)">For optimal layout with text and other symbols, vertically align</text>
  <text style="stroke:none;fill:black;font-family:SF Pro,SF Pro Display,SF Pro Text,sans-serif;font-size:13;" transform="matrix(1 0 0 1 263 2007)">symbols with the adjacent text.</text>
  <line style="fill:none;stroke:#00AEEF;stroke-width:0.5;opacity:1.0;" x1="776" x2="776" y1="1919" y2="1933"/>
  <g transform="matrix(1 0 0 1 776 1933)">
   <path d="M3.31055 0.15625Q3.70117 0.15625 3.91602-0.00976562Q4.13086-0.175781 4.26758-0.585938L5.52734-4.0332L11.2891-4.0332L12.5488-0.585938Q12.6855-0.175781 12.9004-0.00976562Q13.1152 0.15625 13.4961 0.15625Q13.8867 0.15625 14.1162-0.0585938Q14.3457-0.273438 14.3457-0.644531Q14.3457-0.869141 14.2383-1.17188L9.6582-13.3691Q9.48242-13.8184 9.17969-14.043Q8.87695-14.2676 8.4082-14.2676Q7.5-14.2676 7.17773-13.3789L2.59766-1.16211Q2.49023-0.859375 2.49023-0.634766Q2.49023-0.263672 2.70996-0.0537109Q2.92969 0.15625 3.31055 0.15625ZM6.00586-5.51758L8.37891-12.0898L8.42773-12.0898L10.8008-5.51758Z"/>
  </g>
  <line style="fill:none;stroke:#00AEEF;stroke-width:0.5;opacity:1.0;" x1="793.197" x2="793.197" y1="1919" y2="1933"/>
  <text style="stroke:none;fill:black;font-family:SF Pro,SF Pro Display,SF Pro Text,sans-serif;font-size:13;font-weight:bold;" transform="matrix(1 0 0 1 776 1953)">Margins</text>
  <text style="stroke:none;fill:black;font-family:SF Pro,SF Pro Display,SF Pro Text,sans-serif;font-size:13;" transform="matrix(1 0 0 1 776 1971)">Leading and trailing margins on the left and right side of each symbol</text>
  <text style="stroke:none;fill:black;font-family:SF Pro,SF Pro Display,SF Pro Text,sans-serif;font-size:13;" transform="matrix(1 0 0 1 776 1989)">can be adjusted by modifying the x-location of the margin guidelines.</text>
  <text style="stroke:none;fill:black;font-family:SF Pro,SF Pro Display,SF Pro Text,sans-serif;font-size:13;" transform="matrix(1 0 0 1 776 2007)">Modifications are automatically applied proportionally to all</text>
  <text style="stroke:none;fill:black;font-family:SF Pro,SF Pro Display,SF Pro Text,sans-serif;font-size:13;" transform="matrix(1 0 0 1 776 2025)">scales and weights.</text>
  <g transform="matrix(1 0 0 1 1289 1933)">
   <path d="M2.8418 1.86523L4.54102 3.57422Q5.18555 4.22852 5.90332 4.17969Q6.62109 4.13086 7.31445 3.35938L18.0078-8.42773L17.041-9.4043L6.42578 2.27539Q6.16211 2.57812 5.89355 2.61719Q5.625 2.65625 5.27344 2.30469L4.10156 1.14258Q3.75 0.791016 3.79395 0.522461Q3.83789 0.253906 4.14062-0.0195312L15.6152-10.8203L14.6387-11.7871L3.04688-0.898438Q2.30469-0.214844 2.25098 0.498047Q2.19727 1.21094 2.8418 1.86523ZM9.25781-16.3281Q8.94531-16.0254 8.90625-15.6348Q8.86719-15.2441 9.04297-14.9512Q9.21875-14.6777 9.55566-14.541Q9.89258-14.4043 10.3809-14.5215Q11.4746-14.7754 12.5977-14.7314Q13.7207-14.6875 14.7949-13.9844L14.209-12.5293Q13.9551-11.9043 14.0674-11.4404Q14.1797-10.9766 14.5801-10.5664L16.875-8.25195Q17.2363-7.88086 17.5781-7.82227Q17.9199-7.76367 18.3398-7.8418L19.4043-8.03711L20.0684-7.36328L20.0293-6.80664Q20-6.43555 20.1221-6.12305Q20.2441-5.81055 20.6055-5.44922L21.3672-4.70703Q21.7285-4.3457 22.1533-4.33105Q22.5781-4.31641 22.9297-4.66797L25.8398-7.58789Q26.1914-7.93945 26.1816-8.35449Q26.1719-8.76953 25.8105-9.13086L25.0391-9.89258Q24.6875-10.2539 24.3799-10.3857Q24.0723-10.5176 23.7109-10.4883L23.1348-10.4395L22.4902-11.0742L22.7344-12.1973Q22.832-12.6172 22.6953-12.9834Q22.5586-13.3496 22.1191-13.7891L19.9219-15.9766Q18.6719-17.2168 17.2607-17.8369Q15.8496-18.457 14.4189-18.4814Q12.9883-18.5059 11.665-17.959Q10.3418-17.4121 9.25781-16.3281ZM10.752-15.957Q11.6602-16.6211 12.7002-16.9043Q13.7402-17.1875 14.8047-17.085Q15.8691-16.9824 16.8701-16.5137Q17.8711-16.0449 18.7012-15.2051L21.1328-12.793Q21.3086-12.6172 21.3525-12.4512Q21.3965-12.2852 21.3379-12.0312L21.0156-10.5469L22.5195-9.0625L23.5059-9.12109Q23.6914-9.13086 23.7891-9.09668Q23.8867-9.0625 24.0332-8.91602L24.6094-8.33984L22.168-5.89844L21.5918-6.47461Q21.4453-6.62109 21.4062-6.71875Q21.3672-6.81641 21.377-7.01172L21.4453-7.98828L19.9512-9.47266L18.4277-9.21875Q18.1836-9.16992 18.042-9.2041Q17.9004-9.23828 17.7148-9.41406L15.7129-11.416Q15.5176-11.5918 15.4932-11.7529Q15.4688-11.9141 15.5859-12.1875L16.4648-14.2773Q15.293-15.3711 13.8281-15.791Q12.3633-16.2109 10.8398-15.7617Q10.7227-15.7324 10.6885-15.8057Q10.6543-15.8789 10.752-15.957Z"/>
  </g>
  <text style="stroke:none;fill:black;font-family:SF Pro,SF Pro Display,SF Pro Text,sans-serif;font-size:13;font-weight:bold;" transform="matrix(1 0 0 1 1289 1953)">Exporting</text>
  <text style="stroke:none;fill:black;font-family:SF Pro,SF Pro Display,SF Pro Text,sans-serif;font-size:13;" transform="matrix(1 0 0 1 1289 1971)">Symbols should be outlined when exporting to ensure the</text>
  <text style="stroke:none;fill:black;font-family:SF Pro,SF Pro Display,SF Pro Text,sans-serif;font-size:13;" transform="matrix(1 0 0 1 1289 1989)">design is preserved when submitting to Xcode.</text>
  <text id="template-version" style="stroke:none;fill:black;font-family:SF Pro,SF Pro Display,SF Pro Text,sans-serif;font-size:13;text-anchor:end;" transform="matrix(1 0 0 1 3036 1933)">Template v.3.0</text>
  <text style="stroke:none;fill:black;font-family:SF Pro,SF Pro Display,SF Pro Text,sans-serif;font-size:13;text-anchor:end;" transform="matrix(1 0 0 1 3036 1951)">Requires Xcode 13 or greater</text>
  <text id="descriptive-name" style="stroke:none;fill:black;font-family:SF Pro,SF Pro Display,SF Pro Text,sans-serif;font-size:13;text-anchor:end;" transform="matrix(1 0 0 1 3036 1969)">Generated from tram.fill</text>
  <text style="stroke:none;fill:black;font-family:SF Pro,SF Pro Display,SF Pro Text,sans-serif;font-size:13;text-anchor:end;" transform="matrix(1 0 0 1 3036 1987)">Typeset at 100 points</text>
  <text style="stroke:none;fill:black;font-family:SF Pro,SF Pro Display,SF Pro Text,sans-serif;font-size:13;" transform="matrix(1 0 0 1 263 726)">Small</text>
  <text style="stroke:none;fill:black;font-family:SF Pro,SF Pro Display,SF Pro Text,sans-serif;font-size:13;" transform="matrix(1 0 0 1 263 1156)">Medium</text>
  <text style="stroke:none;fill:black;font-family:SF Pro,SF Pro Display,SF Pro Text,sans-serif;font-size:13;" transform="matrix(1 0 0 1 263 1586)">Large</text>
 </g>
 <g id="Guides">
  <g id="H-reference" style="fill:#27AAE1;stroke:none;" transform="matrix(1 0 0 1 339 696)">
   <path d="M0.993347 0L3.6377 0L29.3282-67.1326L30.0301-67.1326L30.0301-70.459L28.1227-70.459ZM11.6882-24.4797L46.9818-24.4797L46.2311-26.7288L12.4382-26.7288ZM55.1193 0L57.7637 0L30.6381-70.459L29.4327-70.459L29.4327-67.1326Z"/>
  </g>
  <line id="Baseline-S" style="fill:none;stroke:#27AAE1;opacity:1;stroke-width:0.5;" x1="263" x2="3036" y1="696" y2="696"/>
  <line id="Capline-S" style="fill:none;stroke:#27AAE1;opacity:1;stroke-width:0.5;" x1="263" x2="3036" y1="625.541" y2="625.541"/>
  <g id="H-reference" style="fill:#27AAE1;stroke:none;" transform="matrix(1 0 0 1 339 1126)">
   <path d="M0.993347 0L3.6377 0L29.3282-67.1326L30.0301-67.1326L30.0301-70.459L28.1227-70.459ZM11.6882-24.4797L46.9818-24.4797L46.2311-26.7288L12.4382-26.7288ZM55.1193 0L57.7637 0L30.6381-70.459L29.4327-70.459L29.4327-67.1326Z"/>
  </g>
  <line id="Baseline-M" style="fill:none;stroke:#27AAE1;opacity:1;stroke-width:0.5;" x1="263" x2="3036" y1="1126" y2="1126"/>
  <line id="Capline-M" style="fill:none;stroke:#27AAE1;opacity:1;stroke-width:0.5;" x1="263" x2="3036" y1="1055.54" y2="1055.54"/>
  <g id="H-reference" style="fill:#27AAE1;stroke:none;" transform="matrix(1 0 0 1 339 1556)">
   <path d="M0.993347 0L3.6377 0L29.3282-67.1326L30.0301-67.1326L30.0301-70.459L28.1227-70.459ZM11.6882-24.4797L46.9818-24.4797L46.2311-26.7288L12.4382-26.7288ZM55.1193 0L57.7637 0L30.6381-70.459L29.4327-70.459L29.4327-67.1326Z"/>
  </g>
  <line id="Baseline-L" style="fill:none;stroke:#27AAE1;opacity:1;stroke-width:0.5;" x1="263" x2="3036" y1="1556" y2="1556"/>
  <line id="Capline-L" style="fill:none;stroke:#27AAE1;opacity:1;stroke-width:0.5;" x1="263" x2="3036" y1="1485.54" y2="1485.54"/>
  <line id="left-margin-Regular-M" style="fill:none;stroke:#00AEEF;stroke-width:0.5;opacity:1.0;" x1="1396.33" x2="1396.33" y1="1030.79" y2="1150.12"/>
  <line id="right-margin-Regular-M" style="fill:none;stroke:#00AEEF;stroke-width:0.5;opacity:1.0;" x1="1503.36" x2="1503.36" y1="1030.79" y2="1150.12"/>
 </g>
 <g id="Symbols">
  <g id="Black-L" transform="matrix(1 0 0 1 2852.96 1556)">
   <path d="M42.8711 24.8535L118.066 24.8535Q126.416 24.8535 132.397 21.582Q138.379 18.3105 141.602 12.2559Q144.824 6.20117 144.824-2.24609L144.824-53.125Q144.824-62.1582 144.482-68.457Q144.141-74.7559 143.457-79.5654Q142.773-84.375 141.846-89.0137Q139.844-99.6582 135.718-106.738Q131.592-113.818 124.829-117.871Q118.066-121.924 108.057-123.486Q103.174-124.268 96.1182-124.683Q89.0625-125.098 80.4688-125.098Q71.8262-125.098 64.7705-124.683Q57.7148-124.268 52.832-123.486Q42.8223-121.924 36.0596-117.871Q29.2969-113.818 25.1953-106.738Q21.0938-99.6582 19.043-89.0137Q18.1152-84.375 17.4561-79.5654Q16.7969-74.7559 16.4307-68.457Q16.0645-62.1582 16.0645-53.125L16.0645-2.24609Q16.0645 6.20117 19.2871 12.2559Q22.5098 18.3105 28.5156 21.582Q34.5215 24.8535 42.8711 24.8535ZM63.3789-96.4355Q60.6445-96.4355 58.8867-98.2178Q57.1289-100 57.1289-102.686Q57.1289-105.469 58.8867-107.251Q60.6445-109.033 63.3789-109.033L97.5098-109.033Q100.244-109.033 102.026-107.251Q103.809-105.469 103.809-102.686Q103.809-100.049 102.026-98.2422Q100.244-96.4355 97.5098-96.4355ZM80.4688-22.3145Q67.9688-22.3633 58.8135-22.7783Q49.6582-23.1934 44.6289-23.8281Q41.1133-24.2676 39.209-26.5381Q37.3047-28.8086 37.3047-32.2754L37.3047-49.8047Q37.3047-55.957 37.6953-61.6211Q38.0859-67.2852 38.5742-71.46Q39.0625-75.6348 39.3555-77.3926Q39.8438-80.2734 41.7725-82.2021Q43.7012-84.1309 46.5332-84.4727Q51.709-85.1074 59.8389-85.4492Q67.9688-85.791 80.4688-85.8887Q92.8223-85.8398 100.977-85.4736Q109.131-85.1074 114.355-84.4727Q117.188-84.1309 119.116-82.2021Q121.045-80.2734 121.533-77.3926Q121.826-75.6348 122.314-71.46Q122.803-67.2852 123.193-61.6211Q123.584-55.957 123.584-49.8047L123.584-32.2754Q123.584-28.8086 121.704-26.5381Q119.824-24.2676 116.26-23.8281Q110.352-23.1445 101.147-22.7295Q91.9434-22.3145 80.4688-22.3145ZM48.2422 7.71484Q44.1895 7.71484 41.5039 4.98047Q38.8184 2.24609 38.8184-1.80664Q38.8184-5.85938 41.5039-8.56934Q44.1895-11.2793 48.2422-11.2793Q52.2949-11.2793 55.0049-8.56934Q57.7148-5.85938 57.7148-1.80664Q57.7148 2.24609 54.9805 4.98047Q52.2461 7.71484 48.2422 7.71484ZM112.646 7.71484Q108.594 7.71484 105.859 4.98047Q103.125 2.24609 103.125-1.80664Q103.125-5.85938 105.859-8.56934Q108.594-11.2793 112.646-11.2793Q116.65-11.2793 119.36-8.56934Q122.07-5.85938 122.07-1.80664Q122.07 2.24609 119.336 4.98047Q116.602 7.71484 112.646 7.71484ZM28.8574 54.7852L34.1797 54.7852Q38.0371 54.7852 40.1855 51.416L62.5 15.5273L43.3594 15.5273L24.4141 45.9961Q23.2422 47.8027 23.3887 49.8535Q23.5352 51.9043 24.9023 53.3447Q26.2695 54.7852 28.8574 54.7852ZM36.8652 46.0938L122.266 46.0938L122.266 31.9824L36.8652 31.9824ZM125 54.7852L129.15 54.7852Q131.738 54.7852 133.35 53.2959Q134.961 51.8066 135.278 49.585Q135.596 47.3633 134.229 45.166L115.82 15.5273L96.6797 15.5273L118.994 51.416Q121.143 54.7852 125 54.7852Z"/>
  </g>
  <g id="Heavy-L" transform="matrix(1 0 0 1 2558.94 1556)">
   <path d="M40.9119 22.8371L114.632 22.8371Q122.452 22.8371 127.995 19.7441Q133.539 16.6512 136.485 11.0111Q139.431 5.37109 139.431-2.3613L139.431-51.6151Q139.431-60.614 139.003-67.4084Q138.574-74.2027 137.781-79.5654Q136.988-84.9281 135.968-89.682Q134.139-99.0128 130.347-105.378Q126.556-111.744 120.427-115.434Q114.298-119.123 105.395-120.455Q100.846-121.144 93.7038-121.577Q86.5616-122.009 77.7718-122.009Q68.9453-122.009 61.8031-121.577Q54.6608-121.144 50.1007-120.455Q41.2086-119.123 35.08-115.434Q28.9513-111.744 25.1724-105.378Q21.3936-99.0128 19.5267-89.682Q18.5188-84.9281 17.7444-79.5654Q16.9701-74.2027 16.5173-67.4084Q16.0645-60.614 16.0645-51.6151L16.0645-2.3613Q16.0645 5.37109 19.0163 11.0111Q21.9681 16.6512 27.5246 19.7441Q33.0811 22.8371 40.9119 22.8371ZM60.8665-95.5017Q58.3855-95.5017 56.818-97.094Q55.2505-98.6862 55.2505-101.118Q55.2505-103.625 56.818-105.211Q58.3855-106.798 60.8665-106.798L94.6404-106.798Q97.1092-106.798 98.6958-105.211Q100.282-103.625 100.282-101.118Q100.282-98.7236 98.6958-97.1127Q97.1092-95.5017 94.6404-95.5017ZM77.7718-22.8561Q65.7097-22.9164 56.5891-23.3257Q47.4686-23.735 42.3698-24.3698Q38.9931-24.7749 37.2154-26.936Q35.4378-29.097 35.4378-32.402L35.4378-49.2973Q35.4378-55.4382 35.8284-61.0218Q36.219-66.6054 36.7245-70.7745Q37.2299-74.9435 37.5923-76.9089Q38.0806-79.6394 39.8708-81.4587Q41.6611-83.2779 44.3321-83.5968Q49.5651-84.2316 57.4993-84.5734Q65.4335-84.9152 77.7718-85.0014Q89.9757-84.964 97.9225-84.5978Q105.869-84.2316 111.082-83.6082Q113.788-83.2779 115.601-81.4587Q117.415-79.6394 117.903-76.9089Q118.253-74.9435 118.759-70.7745Q119.265-66.6054 119.656-61.0218Q120.046-55.4382 120.046-49.2973L120.046-32.402Q120.046-29.0855 118.293-26.9302Q116.54-24.7749 113.113-24.3698Q106.882-23.6633 97.7303-23.2597Q88.578-22.8561 77.7718-22.8561ZM46.2257 6.56204Q42.276 6.56204 39.6713 3.91426Q37.0667 1.26648 37.0667-2.6825Q37.0667-6.63147 39.6713-9.25484Q42.276-11.8782 46.2257-11.8782Q50.1747-11.8782 52.8038-9.25484Q55.4329-6.63147 55.4329-2.6825Q55.4329 1.26648 52.7794 3.91426Q50.1259 6.56204 46.2257 6.56204ZM109.27 6.57425Q105.321 6.57425 102.667 3.92036Q100.014 1.26648 100.014-2.6825Q100.014-6.62003 102.667-9.25522Q105.321-11.8904 109.27-11.8904Q113.17-11.8904 115.805-9.25522Q118.44-6.62003 118.44-2.6825Q118.44 1.26648 115.781 3.92036Q113.121 6.57425 109.27 6.57425ZM28.1311 51.9043L32.9697 51.9043Q36.4349 51.9043 38.353 48.8922L59.4345 14.9742L42.2417 14.9742L24.1608 44.0483Q23.0927 45.7054 23.2334 47.5372Q23.3742 49.369 24.6086 50.6367Q25.843 51.9043 28.1311 51.9043ZM35.6209 43.4547L118.555 43.4547L118.555 30.6343L35.6209 30.6343ZM121.266 51.9043L125.209 51.9043Q127.497 51.9043 128.913 50.5936Q130.328 49.2828 130.594 47.3263Q130.859 45.3697 129.642 43.4143L111.994 14.9742L94.8013 14.9742L115.883 48.8922Q117.8 51.9043 121.266 51.9043Z"/>
  </g>
  <g id="Bold-L" transform="matrix(1 0 0 1 2265.25 1556)">
   <path d="M38.7207 20.5811L110.791 20.5811Q118.018 20.5811 123.071 17.688Q128.125 14.7949 130.762 9.61914Q133.398 4.44336 133.398-2.49023L133.398-49.9268Q133.398-58.8867 132.874-66.2354Q132.349-73.584 131.433-79.5654Q130.518-85.5469 129.395-90.4297Q127.759-98.291 124.341-103.857Q120.923-109.424 115.503-112.708Q110.083-115.991 102.417-117.065Q98.2422-117.651 91.0034-118.103Q83.7646-118.555 74.7559-118.555Q65.7227-118.555 58.4839-118.103Q51.2451-117.651 47.0459-117.065Q39.4043-115.991 33.9844-112.708Q28.5645-109.424 25.1465-103.857Q21.7285-98.291 20.0684-90.4297Q18.9697-85.5469 18.0664-79.5654Q17.1631-73.584 16.6138-66.2354Q16.0645-58.8867 16.0645-49.9268L16.0645-2.49023Q16.0645 4.44336 18.7134 9.61914Q21.3623 14.7949 26.416 17.688Q31.4697 20.5811 38.7207 20.5811ZM58.0566-94.458Q55.8594-94.458 54.5044-95.8374Q53.1494-97.2168 53.1494-99.3652Q53.1494-101.562 54.5044-102.93Q55.8594-104.297 58.0566-104.297L91.4307-104.297Q93.6035-104.297 94.9707-102.93Q96.3379-101.562 96.3379-99.3652Q96.3379-97.2412 94.9707-95.8496Q93.6035-94.458 91.4307-94.458ZM74.7559-23.4619Q63.1836-23.5352 54.1016-23.938Q45.0195-24.3408 39.8438-24.9756Q36.6211-25.3418 34.9854-27.3804Q33.3496-29.4189 33.3496-32.5439L33.3496-48.7305Q33.3496-54.8584 33.7402-60.3516Q34.1309-65.8447 34.6558-70.0073Q35.1807-74.1699 35.6201-76.3672Q36.1084-78.9307 37.7441-80.6274Q39.3799-82.3242 41.8701-82.6172Q47.168-83.252 54.8828-83.5938Q62.5977-83.9355 74.7559-84.0088Q86.792-83.9844 94.5068-83.6182Q102.222-83.252 107.422-82.6416Q109.985-82.3242 111.67-80.6274Q113.354-78.9307 113.843-76.3672Q114.258-74.1699 114.783-70.0073Q115.308-65.8447 115.698-60.3516Q116.089-54.8584 116.089-48.7305L116.089-32.5439Q116.089-29.3945 114.478-27.3682Q112.866-25.3418 109.595-24.9756Q103.003-24.2432 93.9087-23.8525Q84.8145-23.4619 74.7559-23.4619ZM43.9697 5.27344Q40.1367 5.27344 37.6221 2.72217Q35.1074 0.170898 35.1074-3.66211Q35.1074-7.49512 37.6221-10.022Q40.1367-12.5488 43.9697-12.5488Q47.8027-12.5488 50.3418-10.022Q52.8809-7.49512 52.8809-3.66211Q52.8809 0.170898 50.3174 2.72217Q47.7539 5.27344 43.9697 5.27344ZM105.493 5.29785Q101.66 5.29785 99.0967 2.73438Q96.5332 0.170898 96.5332-3.66211Q96.5332-7.4707 99.0967-10.022Q101.66-12.5732 105.493-12.5732Q109.277-12.5732 111.829-10.022Q114.38-7.4707 114.38-3.66211Q114.38 0.170898 111.804 2.73438Q109.229 5.29785 105.493 5.29785ZM27.3193 48.6816L31.6162 48.6816Q34.6436 48.6816 36.3037 46.0693L56.0059 14.3555L40.9912 14.3555L23.877 41.8701Q22.9248 43.3594 23.0591 44.9463Q23.1934 46.5332 24.2798 47.6074Q25.3662 48.6816 27.3193 48.6816ZM34.2285 40.5029L114.404 40.5029L114.404 29.126L34.2285 29.126ZM117.09 48.6816L120.801 48.6816Q122.754 48.6816 123.95 47.5708Q125.146 46.46 125.354 44.7998Q125.562 43.1396 124.512 41.4551L107.715 14.3555L92.7002 14.3555L112.402 46.0693Q114.062 48.6816 117.09 48.6816Z"/>
  </g>
  <g id="Semibold-L" transform="matrix(1 0 0 1 1970.61 1556)">
   <path d="M37.2101 19.0262L108.143 19.0262Q114.96 19.0262 119.677 16.2708Q124.393 13.5155 126.816 8.65936Q129.24 3.80325 129.24-2.57874L129.24-48.7625Q129.24-57.6958 128.648-65.4266Q128.056-73.1575 127.056-79.5654Q126.056-85.9734 124.862-90.9454Q123.36-97.7936 120.2-102.809Q117.039-107.824 112.108-110.828Q107.177-113.831 100.364-114.728Q96.447-115.243 89.1415-115.708Q81.8359-116.173 72.6761-116.173Q63.501-116.173 56.1954-115.708Q48.8899-115.243 44.9394-114.728Q38.1599-113.831 33.2291-110.828Q28.2982-107.824 25.1289-102.809Q21.9597-97.7936 20.4414-90.9454Q19.281-85.9734 18.2888-79.5654Q17.2966-73.1575 16.6805-65.4266Q16.0645-57.6958 16.0645-48.7625L16.0645-2.57874Q16.0645 3.80325 18.5047 8.65936Q20.945 13.5155 25.6519 16.2708Q30.3589 19.0262 37.2101 19.0262ZM56.1195-93.7378Q54.1176-93.7378 52.9091-94.9707Q51.7006-96.2036 51.7006-98.1567Q51.7006-100.14 52.9091-101.357Q54.1176-102.573 56.1195-102.573L89.2181-102.573Q91.1865-102.573 92.4026-101.357Q93.6188-100.14 93.6188-98.1567Q93.6188-96.2189 92.4026-94.9783Q91.1865-93.7378 89.2181-93.7378ZM72.6761-23.8792Q61.4418-23.9616 52.3865-24.3599Q43.3311-24.7581 38.102-25.3929Q34.9861-25.7332 33.448-27.6871Q31.9099-29.641 31.9099-32.6416L31.9099-48.3391Q31.9099-54.4586 32.3006-59.8896Q32.6912-65.3206 33.2294-69.4786Q33.7677-73.6366 34.2606-75.9941Q34.7488-78.4416 36.2778-80.0541Q37.8067-81.6666 40.1726-81.942Q45.5147-82.5768 53.0785-82.9185Q60.6422-83.2603 72.6761-83.3244Q84.597-83.3092 92.1516-82.943Q99.7063-82.5768 104.898-81.9748Q107.364-81.6666 108.96-80.0541Q110.555-78.4416 111.044-75.9941Q111.503-73.6366 112.041-69.4786Q112.579-65.3206 112.97-59.8896Q113.361-54.4586 113.361-48.3391L113.361-32.6416Q113.361-29.6082 111.847-27.6707Q110.333-25.7332 107.169-25.3929Q100.328-24.6429 91.2739-24.2611Q82.2197-23.8792 72.6761-23.8792ZM42.4149 4.38461Q38.6612 4.38461 36.2087 1.9001Q33.7563-0.584412 33.7563-4.33731Q33.7563-8.09021 36.2087-10.5507Q38.6612-13.0112 42.4149-13.0112Q46.1678-13.0112 48.6446-10.5507Q51.1215-8.09021 51.1215-4.33731Q51.1215-0.584412 48.6202 1.9001Q46.1189 4.38461 42.4149 4.38461ZM102.889 4.41818Q99.1364 4.41818 96.6351 1.91689Q94.1338-0.584412 94.1338-4.33731Q94.1338-8.0574 96.6351-10.5507Q99.1364-13.044 102.889-13.044Q106.593-13.044 109.087-10.5507Q111.581-8.0574 111.581-4.33731Q111.581-0.584412 109.063 1.91689Q106.544 4.41818 102.889 4.41818ZM26.7593 46.46L30.6831 46.46Q33.4084 46.46 34.8907 44.1231L53.6423 13.929L40.1291 13.929L23.6816 40.3679Q22.8096 41.7419 22.9393 43.1599Q23.069 44.5778 24.0532 45.5189Q25.0374 46.46 26.7593 46.46ZM33.2687 38.4682L111.543 38.4682L111.543 28.0861L33.2687 28.0861ZM114.211 46.46L117.761 46.46Q119.483 46.46 120.528 45.4868Q121.574 44.5137 121.741 43.058Q121.909 41.6023 120.975 40.1039L104.765 13.929L91.2514 13.929L110.003 44.1231Q111.485 46.46 114.211 46.46Z"/>
  </g>
  <g id="Medium-L" transform="matrix(1 0 0 1 1675.48 1556)">
   <path d="M36.0641 17.8467L106.135 17.8467Q112.643 17.8467 117.102 15.1958Q121.562 12.545 123.824 7.93152Q126.086 3.31802 126.086-2.64664L126.086-47.8798Q126.086-56.7932 125.444-64.8136Q124.802-72.834 123.738-79.5654Q122.674-86.2968 121.426-91.3361Q120.024-97.4159 117.059-102.014Q114.095-106.612 109.534-109.403Q104.974-112.194 98.8075-112.956Q95.0859-113.417 87.73-113.892Q80.3741-114.367 71.0999-114.367Q61.8164-114.367 54.4605-113.892Q47.1046-113.417 43.3426-112.956Q37.2169-112.194 32.6565-109.403Q28.096-106.612 25.1152-102.014Q22.1344-97.4159 20.7245-91.3361Q19.5168-86.2968 18.457-79.5654Q17.3973-72.834 16.7309-64.8136Q16.0645-56.7932 16.0645-47.8798L16.0645-2.64664Q16.0645 3.31802 18.346 7.93152Q20.6276 12.545 25.0721 15.1958Q29.5166 17.8467 36.0641 17.8467ZM54.6501-93.1923Q52.7969-93.1923 51.6998-94.3138Q50.6027-95.4353 50.6027-97.2404Q50.6027-99.0623 51.6998-100.164Q52.7969-101.266 54.6501-101.266L87.5397-101.266Q89.3532-101.266 90.4549-100.164Q91.5565-99.0623 91.5565-97.2404Q91.5565-95.4445 90.4549-94.3184Q89.3532-93.1923 87.5397-93.1923ZM71.0999-24.1966Q60.1212-24.2851 51.086-24.6803Q42.0509-25.0755 36.7813-25.7103Q33.7463-26.0292 32.2823-27.9194Q30.8182-29.8096 30.8182-32.7156L30.8182-48.0431Q30.8182-54.155 31.2088-59.539Q31.5994-64.9231 32.148-69.0777Q32.6965-73.2323 33.2291-75.7111Q33.7173-78.0716 35.1658-79.6196Q36.6142-81.1676 38.8855-81.4293Q44.2619-82.0641 51.7109-82.4059Q59.1599-82.7477 71.0999-82.8056Q82.9323-82.7965 90.366-82.4303Q97.7997-82.0641 102.985-81.4697Q105.376-81.1676 106.904-79.6196Q108.433-78.0716 108.921-75.7111Q109.414-73.2323 109.962-69.0777Q110.511-64.9231 110.902-59.539Q111.292-54.155 111.292-48.0431L111.292-32.7156Q111.292-29.7699 109.853-27.8996Q108.413-26.0292 105.329-25.7103Q98.2994-24.9466 89.2757-24.5716Q80.2521-24.1966 71.0999-24.1966ZM41.2354 3.71094Q37.5427 3.71094 35.1376 1.27678Q32.7324-1.15738 32.7324-4.85001Q32.7324-8.54187 35.1376-10.9516Q37.5427-13.3614 41.2354-13.3614Q44.928-13.3614 47.3576-10.9516Q49.7871-8.54187 49.7871-4.85001Q49.7871-1.15738 47.3331 1.27678Q44.8792 3.71094 41.2354 3.71094ZM100.915 3.75061Q97.2229 3.75061 94.7685 1.29662Q92.3141-1.15738 92.3141-4.85001Q92.3141-8.5022 94.7685-10.9516Q97.2229-13.401 100.915-13.401Q104.559-13.401 107.008-10.9516Q109.458-8.5022 109.458-4.85001Q109.458-1.15738 106.984 1.29662Q104.51 3.75061 100.915 3.75061ZM26.3351 44.7754L29.9759 44.7754Q32.4715 44.7754 33.8196 42.6476L51.8494 13.6055L39.4753 13.6055L23.5329 39.2296Q22.7219 40.5159 22.8481 41.8056Q22.9744 43.0954 23.8811 43.9354Q24.7879 44.7754 26.3351 44.7754ZM32.5409 36.9247L109.373 36.9247L109.373 27.298L32.5409 27.298ZM112.027 44.7754L115.457 44.7754Q117.004 44.7754 117.934 43.9068Q118.865 43.0382 119.003 41.7374Q119.14 40.4366 118.293 39.08L102.527 13.6055L90.1535 13.6055L108.183 42.6476Q109.531 44.7754 112.027 44.7754Z"/>
  </g>
  <g id="Regular-L" transform="matrix(1 0 0 1 1380.83 1556)">
   <path d="M34.5703 16.3086L103.516 16.3086Q109.619 16.3086 113.745 13.7939Q117.871 11.2793 119.922 6.98242Q121.973 2.68555 121.973-2.73438L121.973-46.7285Q121.973-55.6152 121.265-64.0137Q120.557-72.4121 119.409-79.5654Q118.262-86.7188 116.943-91.8457Q115.674-96.9238 112.964-100.977Q110.254-105.029 106.177-107.544Q102.1-110.059 96.7773-110.645Q93.3105-111.035 85.8887-111.523Q78.4668-112.012 69.043-112.012Q59.6191-112.012 52.1973-111.523Q44.7754-111.035 41.2598-110.645Q35.9863-110.059 31.9092-107.544Q27.832-105.029 25.0977-100.977Q22.3633-96.9238 21.0938-91.8457Q19.8242-86.7188 18.6768-79.5654Q17.5293-72.4121 16.7969-64.0137Q16.0645-55.6152 16.0645-46.7285L16.0645-2.73438Q16.0645 2.68555 18.1396 6.98242Q20.2148 11.2793 24.3164 13.7939Q28.418 16.3086 34.5703 16.3086ZM52.7344-92.4805Q51.0742-92.4805 50.1221-93.457Q49.1699-94.4336 49.1699-96.0449Q49.1699-97.6562 50.1221-98.6084Q51.0742-99.5605 52.7344-99.5605L85.3516-99.5605Q86.9629-99.5605 87.915-98.6084Q88.8672-97.6562 88.8672-96.0449Q88.8672-94.4336 87.915-93.457Q86.9629-92.4805 85.3516-92.4805ZM69.043-24.6094Q58.3984-24.707 49.3896-25.0977Q40.3809-25.4883 35.0586-26.123Q32.1289-26.416 30.7617-28.2227Q29.3945-30.0293 29.3945-32.8125L29.3945-47.6562Q29.3945-53.7598 29.7852-59.082Q30.1758-64.4043 30.7373-68.5547Q31.2988-72.7051 31.8848-75.3418Q32.373-77.5879 33.7158-79.0527Q35.0586-80.5176 37.207-80.7617Q42.627-81.3965 49.9268-81.7383Q57.2266-82.0801 69.043-82.1289Q80.7617-82.1289 88.0371-81.7627Q95.3125-81.3965 100.488-80.8105Q102.783-80.5176 104.224-79.0527Q105.664-77.5879 106.152-75.3418Q106.689-72.7051 107.251-68.5547Q107.812-64.4043 108.203-59.082Q108.594-53.7598 108.594-47.6562L108.594-32.8125Q108.594-29.9805 107.251-28.1982Q105.908-26.416 102.93-26.123Q95.6543-25.3418 86.6699-24.9756Q77.6855-24.6094 69.043-24.6094ZM39.6973 2.83203Q36.084 2.83203 33.7402 0.463867Q31.3965-1.9043 31.3965-5.51758Q31.3965-9.13086 33.7402-11.4746Q36.084-13.8184 39.6973-13.8184Q43.3105-13.8184 45.6787-11.4746Q48.0469-9.13086 48.0469-5.51758Q48.0469-1.9043 45.6543 0.463867Q43.2617 2.83203 39.6973 2.83203ZM98.3398 2.88086Q94.7266 2.88086 92.334 0.488281Q89.9414-1.9043 89.9414-5.51758Q89.9414-9.08203 92.334-11.4746Q94.7266-13.8672 98.3398-13.8672Q101.904-13.8672 104.297-11.4746Q106.689-9.08203 106.689-5.51758Q106.689-1.9043 104.272 0.488281Q101.855 2.88086 98.3398 2.88086ZM25.7812 42.5781L29.0527 42.5781Q31.25 42.5781 32.4219 40.7227L49.5117 13.1836L38.623 13.1836L23.3398 37.7441Q22.6074 38.916 22.7295 40.0391Q22.8516 41.1621 23.6572 41.8701Q24.4629 42.5781 25.7812 42.5781ZM31.5918 34.9121L106.543 34.9121L106.543 26.2695L31.5918 26.2695ZM109.18 42.5781L112.451 42.5781Q113.77 42.5781 114.551 41.8457Q115.332 41.1133 115.43 40.0146Q115.527 38.916 114.795 37.7441L99.6094 13.1836L88.7207 13.1836L105.811 40.7227Q106.982 42.5781 109.18 42.5781Z"/>
  </g>
  <g id="Light-L" transform="matrix(1 0 0 1 1084.13 1556)">
   <path d="M35.7056 16.9899L102.335 16.9899Q109.119 16.9899 113.465 14.3085Q117.811 11.6272 119.876 7.12624Q121.942 2.62527 121.942-2.87094L121.942-45.2454Q121.942-54.7676 121.128-63.6883Q120.315-72.6089 119.054-80.0194Q117.793-87.4298 116.444-92.4362Q115.22-97.1657 112.616-100.871Q110.012-104.575 106.177-106.87Q102.341-109.165 97.4434-109.737Q93.2953-110.233 85.7903-110.714Q78.2852-111.195 69.0277-111.195Q59.7557-111.195 52.2503-110.714Q44.7449-110.233 40.5632-109.737Q35.6987-109.165 31.8638-106.87Q28.0289-104.575 25.4082-100.871Q22.7875-97.1657 21.563-92.4362Q20.2484-87.4298 18.9873-80.0194Q17.7261-72.6089 16.8953-63.6883Q16.0645-54.7676 16.0645-45.2454L16.0645-2.87094Q16.0645 2.62527 18.1473 7.12624Q20.2301 11.6272 24.5663 14.3085Q28.9024 16.9899 35.7056 16.9899ZM52.4315-91.7839Q50.9682-91.7839 50.1373-92.6548Q49.3065-93.5257 49.3065-94.9402Q49.3065-96.3394 50.1373-97.1931Q50.9682-98.0469 52.4315-98.0469L85.6087-98.0469Q87.0384-98.0469 87.8696-97.1931Q88.7009-96.3394 88.7009-94.9402Q88.7009-93.5257 87.8696-92.6548Q87.0384-91.7839 85.6087-91.7839ZM69.0277-22.9744Q58.7921-23.0568 50.2827-23.4097Q41.7732-23.7625 36.1633-24.337Q33.0978-24.63 31.5338-26.5274Q29.9698-28.4248 29.9698-31.4201L29.9698-46.6873Q29.9698-52.4734 30.3452-57.6519Q30.7205-62.8304 31.2973-67.1471Q31.8741-71.4638 32.5203-74.6452Q33.0086-77.1034 34.4875-78.6819Q35.9665-80.2605 38.2668-80.5046Q43.7775-81.1089 51.009-81.443Q58.2405-81.7772 69.0277-81.8108Q79.6867-81.8108 86.8637-81.4598Q94.0407-81.1089 99.1714-80.5687Q101.694-80.2605 103.316-78.6819Q104.938-77.1034 105.426-74.6452Q106.039-71.4638 106.615-67.1471Q107.192-62.8304 107.568-57.6519Q107.943-52.4734 107.943-46.6873L107.943-31.4201Q107.943-28.4065 106.403-26.5182Q104.864-24.63 101.749-24.337Q94.9127-23.6771 86.4353-23.3334Q77.9579-22.9897 69.0277-22.9744ZM39.576 3.19519Q36.1748 3.19519 33.9447 0.948334Q31.7146-1.29852 31.7146-4.70047Q31.7146-8.11691 33.9447-10.347Q36.1748-12.5771 39.576-12.5771Q42.9924-12.5771 45.2549-10.347Q47.5174-8.11691 47.5174-4.70047Q47.5174-1.29852 45.2381 0.948334Q42.9588 3.19519 39.576 3.19519ZM98.4909 3.22876Q95.0745 3.22876 92.8032 0.972366Q90.5319-1.28403 90.5319-4.70047Q90.5319-8.08334 92.8032-10.347Q95.0745-12.6106 98.4909-12.6106Q101.874-12.6106 104.13-10.347Q106.387-8.08334 106.387-4.70047Q106.387-1.28403 104.106 0.972366Q101.825 3.22876 98.4909 3.22876ZM26.0231 41.3971L28.9467 41.3971Q30.8411 41.3971 31.8619 39.7995L47.8317 14.1068L38.4865 14.1068L24.0211 37.3505Q23.3948 38.3408 23.4787 39.2822Q23.5626 40.2237 24.2321 40.8104Q24.9016 41.3971 26.0231 41.3971ZM32.1976 34.0187L105.846 34.0187L105.846 26.5114L32.1976 26.5114ZM109.149 41.3971L112.073 41.3971Q113.194 41.3971 113.855 40.7936Q114.515 40.1901 114.582 39.2654Q114.649 38.3408 114.023 37.3505L99.6094 14.1068L90.2649 14.1068L106.235 39.7995Q107.255 41.3971 109.149 41.3971Z"/>
  </g>
  <g id="Thin-L" transform="matrix(1 0 0 1 787.439 1556)">
   <path d="M37.207 17.8909L100.774 17.8909Q108.459 17.8909 113.095 14.9895Q117.731 12.088 119.817 7.31659Q121.902 2.54517 121.902-3.05099L121.902-43.2831Q121.902-53.6469 120.948-63.258Q119.994-72.8691 118.583-80.6202Q117.172-88.3713 115.783-93.2167Q114.619-97.4861 112.156-100.731Q109.692-103.975 106.177-105.98Q102.662-107.984 98.3238-108.535Q93.2755-109.172 85.6602-109.643Q78.0449-110.114 69.0079-110.114Q59.9358-110.114 52.3205-109.643Q44.7052-109.172 39.6423-108.535Q35.3188-107.984 31.8039-105.98Q28.289-103.975 25.8183-100.731Q23.3475-97.4861 22.1832-93.2167Q20.8084-88.3713 19.3974-80.6202Q17.9863-72.8691 17.0254-63.258Q16.0645-53.6469 16.0645-43.2831L16.0645-3.05099Q16.0645 2.54517 18.1572 7.31659Q20.2499 12.088 24.8966 14.9895Q29.5433 17.8909 37.207 17.8909ZM52.0309-90.863Q50.8278-90.863 50.1572-91.5936Q49.4865-92.3241 49.4865-93.4784Q49.4865-94.5976 50.1572-95.3213Q50.8278-96.0449 52.0309-96.0449L85.9489-96.0449Q87.1384-96.0449 87.8094-95.3213Q88.4804-94.5976 88.4804-93.4784Q88.4804-92.3241 87.8094-91.5936Q87.1384-90.863 85.9489-90.863ZM69.0079-20.813Q59.3124-20.8748 51.4637-21.1777Q43.615-21.4806 37.6251-21.9749Q34.3788-22.2679 32.5546-24.2855Q30.7304-26.3031 30.7304-29.5784L30.7304-45.4063Q30.7304-50.7713 31.086-55.7598Q31.4415-60.7483 32.0381-65.2855Q32.6347-69.8227 33.3611-73.7244Q33.8493-76.4633 35.5087-78.1918Q37.1681-79.9202 39.6675-80.1643Q45.2988-80.7289 52.4403-81.0528Q59.5818-81.3766 69.0079-81.3904Q78.2654-81.3904 85.3123-81.0596Q92.3592-80.7289 97.4297-80.2483Q100.252-79.9202 102.114-78.1918Q103.976-76.4633 104.465-73.7244Q105.178-69.8227 105.775-65.2855Q106.371-60.7483 106.727-55.7598Q107.082-50.7713 107.082-45.4063L107.082-29.5784Q107.082-26.3245 105.283-24.2962Q103.483-22.2679 100.188-21.9749Q93.9316-21.4745 86.1248-21.1613Q78.318-20.8481 69.0079-20.813ZM39.4157 3.67584Q36.2946 3.67584 34.2148 1.58882Q32.135-0.498199 32.135-3.61938Q32.135-6.77567 34.2148-8.85582Q36.2946-10.936 39.4157-10.936Q42.572-10.936 44.6941-8.85582Q46.8163-6.77567 46.8163-3.61938Q46.8163-0.498199 44.6873 1.58882Q42.5583 3.67584 39.4157 3.67584ZM98.6916 3.68958Q95.5353 3.68958 93.4238 1.61324Q91.3124-0.463104 91.3124-3.61938Q91.3124-6.76193 93.4238-8.85582Q95.5353-10.9497 98.6916-10.9497Q101.834-10.9497 103.91-8.85582Q105.986-6.76193 105.986-3.61938Q105.986-0.463104 103.886 1.61324Q101.785 3.68958 98.6916 3.68958ZM26.3435 39.8361L28.8063 39.8361Q30.3009 39.8361 31.1211 38.578L45.6093 15.3282L38.3064 15.3282L24.9222 36.8301Q24.4354 37.5801 24.4698 38.2812Q24.5041 38.9824 24.9931 39.4093Q25.4822 39.8361 26.3435 39.8361ZM32.9979 32.8377L104.926 32.8377L104.926 26.8318L32.9979 26.8318ZM109.109 39.8361L111.572 39.8361Q112.434 39.8361 112.934 39.4024Q113.434 38.9687 113.461 38.2744Q113.488 37.5801 113.002 36.8301L99.6094 15.3282L92.3065 15.3282L106.795 38.578Q107.615 39.8361 109.109 39.8361Z"/>
  </g>
  <g id="Ultralight-L" transform="matrix(1 0 0 1 490.738 1556)">
   <path d="M37.9761 18.3517L99.9733 18.3517Q108.121 18.3517 112.905 15.3378Q117.69 12.3238 119.786 7.41386Q121.882 2.50397 121.882-3.14331L121.882-42.2783Q121.882-53.0724 120.856-63.0375Q119.83-73.0026 118.342-80.9277Q116.854-88.8527 115.445-93.6165Q114.311-97.6501 111.919-100.658Q109.528-103.667 106.177-105.523Q102.826-107.379 98.7755-107.92Q93.2648-108.628 85.5934-109.094Q77.9221-109.56 68.9972-109.56Q60.0281-109.56 52.3563-109.094Q44.6846-108.628 39.1708-107.92Q35.1234-107.379 31.773-105.523Q28.4225-103.667 26.0288-100.658Q23.6351-97.6501 22.5014-93.6165Q21.096-88.8527 19.6079-80.9277Q18.1198-73.0026 17.0921-63.0375Q16.0645-53.0724 16.0645-42.2783L16.0645-3.14331Q16.0645 2.50397 18.1625 7.41386Q20.2606 12.3238 25.066 15.3378Q29.8714 18.3517 37.9761 18.3517ZM51.8265-90.3915Q50.7561-90.3915 50.1675-91.0503Q49.5789-91.7091 49.5789-92.7299Q49.5789-93.7057 50.1675-94.3626Q50.7561-95.0195 51.8265-95.0195L86.1237-95.0195Q87.1902-95.0195 87.7789-94.3626Q88.3675-93.7057 88.3675-92.7299Q88.3675-91.7091 87.7789-91.0503Q87.1902-90.3915 86.1237-90.3915ZM68.9972-19.7052Q59.5795-19.7571 52.0691-20.0344Q44.5587-20.3117 38.3736-20.7649Q35.0349-21.0579 33.0776-23.1369Q31.1203-25.2159 31.1203-28.6346L31.1203-44.7502Q31.1203-49.9001 31.4655-54.7909Q31.8108-59.6817 32.4177-64.3314Q33.0246-68.9812 33.7921-73.2529Q34.2804-76.1345 36.0317-77.94Q37.7831-79.7455 40.3854-79.9896Q46.0777-80.5336 53.1734-80.8529Q60.2692-81.1722 68.9972-81.1752Q77.5375-81.1752 84.5177-80.8544Q91.4978-80.5336 96.5378-80.0842Q99.514-79.7455 101.499-77.94Q103.484-76.1345 103.973-73.2529Q104.737-68.9812 105.344-64.3314Q105.951-59.6817 106.296-54.7909Q106.641-49.9001 106.641-44.7502L106.641-28.6346Q106.641-25.2579 104.708-23.1579Q102.775-21.0579 99.3874-20.7649Q93.4296-20.3468 85.9661-20.0485Q78.5027-19.7502 68.9972-19.7052ZM39.3341 3.92151Q36.3564 3.92151 34.3533 1.91689Q32.3502-0.087738 32.3502-3.06549Q32.3502-6.08826 34.3533-8.09135Q36.3564-10.0945 39.3341-10.0945Q42.3569-10.0945 44.4073-8.09135Q46.4577-6.08826 46.4577-3.06549Q46.4577-0.087738 44.4057 1.91689Q42.3538 3.92151 39.3341 3.92151ZM98.7938 3.92532Q95.771 3.92532 93.7416 1.9413Q91.7122-0.0427246 91.7122-3.06549Q91.7122-6.08521 93.7416-8.09174Q95.771-10.0983 98.7938-10.0983Q101.814-10.0983 103.798-8.09174Q105.782-6.08521 105.782-3.06549Q105.782-0.0427246 103.773 1.9413Q101.765 3.92532 98.7938 3.92532ZM26.5076 39.0358L28.7346 39.0358Q30.024 39.0358 30.7419 37.9524L44.471 15.9538L38.2141 15.9538L25.383 36.5631Q24.9687 37.1902 24.9771 37.7686Q24.9855 38.3469 25.3826 38.6913Q25.7797 39.0358 26.5076 39.0358ZM33.4084 32.2327L104.454 32.2327L104.454 26.9958L33.4084 26.9958ZM109.089 39.0358L111.316 39.0358Q112.044 39.0358 112.462 38.6894Q112.88 38.343 112.887 37.7666Q112.894 37.1902 112.479 36.5631L99.6094 15.9538L93.3525 15.9538L107.082 37.9524Q107.8 39.0358 109.089 39.0358Z"/>
  </g>
  <g id="Black-M" transform="matrix(1 0 0 1 2868.75 1126)">
   <path d="M35.2539 13.2812L94.043 13.2812Q101.172 13.2812 106.274 10.5469Q111.377 7.8125 114.111 2.68555Q116.846-2.44141 116.846-9.61914L116.846-49.8535Q116.846-57.1289 116.602-61.7676Q116.357-66.4062 115.918-69.751Q115.479-73.0957 114.795-76.5625Q113.086-85.791 109.668-91.7725Q106.25-97.7539 100.537-101.147Q94.8242-104.541 86.2305-105.908Q81.9336-106.592 76.5137-106.909Q71.0938-107.227 64.6484-107.227Q58.2031-107.227 52.7832-106.909Q47.3633-106.592 43.0664-105.908Q34.5215-104.541 28.8086-101.147Q23.0957-97.7539 19.6533-91.7725Q16.2109-85.791 14.502-76.5625Q13.8672-73.0957 13.4033-69.751Q12.9395-66.4062 12.6953-61.7676Q12.4512-57.1289 12.4512-49.8535L12.4512-9.61914Q12.4512-2.44141 15.1855 2.68555Q17.9199 7.8125 23.0225 10.5469Q28.125 13.2812 35.2539 13.2812ZM51.1719-83.252Q48.9258-83.252 47.4365-84.7412Q45.9473-86.2305 45.9473-88.4766Q45.9473-90.8203 47.4365-92.334Q48.9258-93.8477 51.1719-93.8477L78.125-93.8477Q80.3711-93.8477 81.9092-92.334Q83.4473-90.8203 83.4473-88.4766Q83.4473-86.2793 81.9092-84.7656Q80.3711-83.252 78.125-83.252ZM64.6484-24.1699Q54.7363-24.2188 47.7783-24.5361Q40.8203-24.8535 36.9141-25.3418Q33.9844-25.6836 32.3486-27.5879Q30.7129-29.4922 30.7129-32.3242L30.7129-46.6309Q30.7129-51.3184 31.0059-55.7129Q31.2988-60.1074 31.665-63.4033Q32.0312-66.6992 32.2266-68.0664Q32.6172-70.5078 34.2773-72.1436Q35.9375-73.7793 38.3301-74.0234Q42.2852-74.5605 48.7305-74.8291Q55.1758-75.0977 64.6484-75.1465Q74.0234-75.0977 80.4932-74.8291Q86.9629-74.5605 90.9668-74.0234Q93.3594-73.7793 95.0195-72.1436Q96.6797-70.5078 97.0703-68.0664Q97.2656-66.6992 97.6318-63.4033Q97.998-60.1074 98.291-55.7129Q98.584-51.3184 98.584-46.6309L98.584-32.3242Q98.584-29.4922 96.9482-27.5879Q95.3125-25.6836 92.3828-25.3418Q88.2324-24.8535 81.25-24.5361Q74.2676-24.2188 64.6484-24.1699ZM39.0625-0.830078Q35.8887-0.830078 33.7891-2.97852Q31.6895-5.12695 31.6895-8.30078Q31.6895-11.4746 33.8135-13.5986Q35.9375-15.7227 39.0625-15.7227Q42.2363-15.7227 44.3604-13.5986Q46.4844-11.4746 46.4844-8.30078Q46.4844-5.12695 44.3604-2.97852Q42.2363-0.830078 39.0625-0.830078ZM90.2344-0.830078Q87.0605-0.830078 84.9121-2.97852Q82.7637-5.12695 82.7637-8.30078Q82.7637-11.4746 84.9121-13.5986Q87.0605-15.7227 90.2344-15.7227Q93.4082-15.7227 95.5078-13.5986Q97.6074-11.4746 97.6074-8.30078Q97.6074-5.12695 95.4834-2.97852Q93.3594-0.830078 90.2344-0.830078ZM23.0469 36.6211L27.4902 36.6211Q30.7129 36.6211 32.5195 33.7891L50.4883 4.88281L34.5215 4.88281L19.3359 29.248Q18.457 30.7129 18.5547 32.4219Q18.6523 34.1309 19.7754 35.376Q20.8984 36.6211 23.0469 36.6211ZM29.834 29.7363L97.7051 29.7363L97.7051 18.1152L29.834 18.1152ZM100.098 36.6211L103.369 36.6211Q105.518 36.6211 106.909 35.3516Q108.301 34.082 108.569 32.2021Q108.838 30.3223 107.666 28.4668L93.0176 4.88281L77.0508 4.88281L95.0195 33.7891Q96.8262 36.6211 100.098 36.6211Z"/>
  </g>
  <g id="Heavy-M" transform="matrix(1 0 0 1 2574.67 1126)">
   <path d="M33.0986 11.161L90.9431 11.161Q97.4152 11.161 102.034 8.63953Q106.652 6.11801 109.121 1.44081Q111.591-3.23639 111.591-9.71146L111.591-48.7129Q111.591-55.8037 111.283-60.817Q110.976-65.8302 110.444-69.659Q109.912-73.4879 109.159-77.0813Q107.623-85.1112 104.493-90.4644Q101.363-95.8176 96.2212-98.9059Q91.0789-101.994 83.4991-103.143Q79.6631-103.722 74.1798-104.051Q68.6966-104.38 62.0209-104.38Q55.3452-104.38 49.8619-104.051Q44.3787-103.722 40.5426-103.143Q32.9887-101.994 27.8461-98.9059Q22.7036-95.8176 19.561-90.4644Q16.4185-85.1112 14.8819-77.0813Q14.1556-73.4879 13.6051-69.659Q13.0547-65.8302 12.7529-60.817Q12.4512-55.8037 12.4512-48.7129L12.4512-9.71146Q12.4512-3.23639 14.9204 1.44081Q17.3897 6.11801 22.0081 8.63953Q26.6266 11.161 33.0986 11.161ZM48.7747-82.4799Q46.7361-82.4799 45.4082-83.8135Q44.0804-85.1471 44.0804-87.1857Q44.0804-89.2876 45.4082-90.6342Q46.7361-91.9807 48.7747-91.9807L75.2556-91.9807Q77.2942-91.9807 78.6652-90.6342Q80.0362-89.2876 80.0362-87.1857Q80.0362-85.1845 78.6652-83.8322Q77.2942-82.4799 75.2556-82.4799ZM62.0209-25.0572Q52.4429-25.106 45.4102-25.4292Q38.3774-25.7523 34.4597-26.2405Q31.7024-26.5709 30.2338-28.3428Q28.7651-30.1147 28.7651-32.7621L28.7651-46.3425Q28.7651-51.088 29.0581-55.4363Q29.351-59.7847 29.7344-63.0402Q30.1178-66.2956 30.3596-67.7437Q30.7503-69.989 32.2491-71.4924Q33.7479-72.9958 35.9444-73.2285Q39.946-73.7541 46.2181-74.0227Q52.4902-74.2912 62.0209-74.3401Q71.4767-74.3141 77.7561-74.0341Q84.0355-73.7541 88.0508-73.2285Q90.271-72.9958 91.7755-71.4924Q93.28-69.989 93.6707-67.7437Q93.9117-66.2956 94.2955-63.0402Q94.6793-59.7847 94.9722-55.4363Q95.2652-51.088 95.2652-46.3425L95.2652-32.7621Q95.2652-30.1033 93.7965-28.3314Q92.3279-26.5594 89.5706-26.2405Q85.0052-25.7179 77.9537-25.4063Q70.9023-25.0946 62.0209-25.0572ZM37.1147-2.0401Q34.0103-2.0401 31.9626-4.12521Q29.9149-6.21033 29.9149-9.32617Q29.9149-12.4428 31.9813-14.5092Q34.0477-16.5756 37.1147-16.5756Q40.2313-16.5756 42.3035-14.5092Q44.3756-12.4428 44.3756-9.32617Q44.3756-6.21033 42.2977-4.12521Q40.2199-2.0401 37.1147-2.0401ZM86.9041-2.02866Q83.799-2.02866 81.6967-4.12521Q79.5944-6.22177 79.5944-9.32617Q79.5944-12.4313 81.6967-14.5092Q83.799-16.5871 86.9041-16.5871Q90.0085-16.5871 92.0677-14.5092Q94.1269-12.4313 94.1269-9.32617Q94.1269-6.22177 92.0433-4.12521Q89.9597-2.02866 86.9041-2.02866ZM22.2977 34.063L26.3374 34.063Q29.2381 34.063 30.8487 31.5071L47.8493 4.14505L33.4496 4.14505L18.9438 27.4269Q18.1229 28.788 18.2262 30.3242Q18.3296 31.8604 19.3546 32.9617Q20.3796 34.063 22.2977 34.063ZM28.4973 27.3506L94.236 27.3506L94.236 16.7435L28.4973 16.7435ZM96.4447 34.063L99.5888 34.063Q101.495 34.063 102.72 32.9372Q103.944 31.8115 104.173 30.1506Q104.401 28.4897 103.356 26.8303L89.2838 4.14505L74.884 4.14505L91.8846 31.5071Q93.5074 34.063 96.4447 34.063Z"/>
  </g>
  <g id="Bold-M" transform="matrix(1 0 0 1 2280.9 1126)">
   <path d="M30.6885 8.78906L87.4756 8.78906Q93.2129 8.78906 97.29 6.50635Q101.367 4.22363 103.54 0.0488281Q105.713-4.12598 105.713-9.81445L105.713-47.4365Q105.713-54.3213 105.334-59.7534Q104.956-65.1855 104.321-69.5557Q103.687-73.9258 102.856-77.6611Q101.514-84.3506 98.7061-89.0015Q95.8984-93.6523 91.394-96.3989Q86.8896-99.1455 80.4443-100.049Q77.124-100.513 71.5698-100.854Q66.0156-101.196 59.082-101.196Q52.1484-101.196 46.5942-100.854Q41.04-100.513 37.7197-100.049Q31.2744-99.1455 26.77-96.3989Q22.2656-93.6523 19.458-89.0015Q16.6504-84.3506 15.3076-77.6611Q14.4775-73.9258 13.8306-69.5557Q13.1836-65.1855 12.8174-59.7534Q12.4512-54.3213 12.4512-47.4365L12.4512-9.81445Q12.4512-4.12598 14.624 0.0488281Q16.7969 4.22363 20.874 6.50635Q24.9512 8.78906 30.6885 8.78906ZM46.0938-81.6162Q44.2871-81.6162 43.1396-82.7759Q41.9922-83.9355 41.9922-85.7422Q41.9922-87.5732 43.1396-88.7329Q44.2871-89.8926 46.0938-89.8926L72.0459-89.8926Q73.8525-89.8926 75.0366-88.7329Q76.2207-87.5732 76.2207-85.7422Q76.2207-83.96 75.0366-82.7881Q73.8525-81.6162 72.0459-81.6162ZM59.082-26.0498Q49.8779-26.0986 42.7612-26.4282Q35.6445-26.7578 31.7139-27.2461Q29.1504-27.5635 27.8687-29.187Q26.5869-30.8105 26.5869-33.252L26.5869-46.0205Q26.5869-50.8301 26.8799-55.127Q27.1729-59.4238 27.5757-62.6343Q27.9785-65.8447 28.2715-67.3828Q28.6621-69.4092 29.9805-70.7642Q31.2988-72.1191 33.2764-72.3389Q37.3291-72.8516 43.4082-73.1201Q49.4873-73.3887 59.082-73.4375Q68.6279-73.4375 74.6948-73.1445Q80.7617-72.8516 84.79-72.3389Q86.8164-72.1191 88.147-70.7642Q89.4775-69.4092 89.8682-67.3828Q90.1611-65.8447 90.564-62.6343Q90.9668-59.4238 91.2598-55.127Q91.5527-50.8301 91.5527-46.0205L91.5527-33.252Q91.5527-30.7861 90.271-29.1626Q88.9893-27.5391 86.4258-27.2461Q81.3965-26.6846 74.2676-26.3794Q67.1387-26.0742 59.082-26.0498ZM34.9365-3.39355Q31.9092-3.39355 29.9194-5.40771Q27.9297-7.42188 27.9297-10.4736Q27.9297-13.5254 29.9316-15.5273Q31.9336-17.5293 34.9365-17.5293Q37.9883-17.5293 40.0024-15.5273Q42.0166-13.5254 42.0166-10.4736Q42.0166-7.42188 39.9902-5.40771Q37.9639-3.39355 34.9365-3.39355ZM83.1787-3.36914Q80.1514-3.36914 78.1006-5.40771Q76.0498-7.44629 76.0498-10.4736Q76.0498-13.501 78.1006-15.5273Q80.1514-17.5537 83.1787-17.5537Q86.2061-17.5537 88.2202-15.5273Q90.2344-13.501 90.2344-10.4736Q90.2344-7.44629 88.1958-5.40771Q86.1572-3.36914 83.1787-3.36914ZM21.46 31.2012L25.0488 31.2012Q27.5879 31.2012 28.9795 28.9551L44.8975 3.32031L32.251 3.32031L18.5059 25.3906Q17.749 26.6357 17.8589 27.9785Q17.9688 29.3213 18.8843 30.2612Q19.7998 31.2012 21.46 31.2012ZM27.002 24.6826L90.3564 24.6826L90.3564 15.21L27.002 15.21ZM92.3584 31.2012L95.3613 31.2012Q96.9971 31.2012 98.0347 30.2368Q99.0723 29.2725 99.2554 27.8564Q99.4385 26.4404 98.5352 25L85.1074 3.32031L72.4609 3.32031L88.3789 28.9551Q89.7949 31.2012 92.3584 31.2012Z"/>
  </g>
  <g id="Semibold-M" transform="matrix(1 0 0 1 1986.21 1126)">
   <path d="M29.0268 7.15408L85.0853 7.15408Q90.316 7.15408 94.0197 5.03578Q97.7234 2.91748 99.6918-0.91095Q101.66-4.73938 101.66-9.88541L101.66-46.5569Q101.66-53.299 101.233-59.0202Q100.806-64.7415 100.1-69.4847Q99.3942-74.2279 98.5107-78.0609Q97.3015-83.8264 94.7159-87.9929Q92.1303-92.1593 88.0657-94.6705Q84.0012-97.1817 78.3379-97.9156Q75.3731-98.3002 69.7701-98.6507Q64.167-99.0013 57.0557-99.0013Q49.9443-99.0013 44.3413-98.6507Q38.7383-98.3002 35.7735-97.9156Q30.0926-97.1817 26.0281-94.6705Q21.9635-92.1593 19.3871-87.9929Q16.8106-83.8264 15.6006-78.0609Q14.6996-74.2279 13.9858-69.4847Q13.2721-64.7415 12.8616-59.0202Q12.4512-53.299 12.4512-46.5569L12.4512-9.88541Q12.4512-4.73938 14.4196-0.91095Q16.3879 2.91748 20.092 5.03578Q23.7961 7.15408 29.0268 7.15408ZM44.2451-81.0211Q42.5987-81.0211 41.5756-82.0606Q40.5525-83.1001 40.5525-84.7466Q40.5525-86.3914 41.5756-87.4222Q42.5987-88.4529 44.2451-88.4529L69.8334-88.4529Q71.4798-88.4529 72.5349-87.4222Q73.5901-86.3914 73.5901-84.7466Q73.5901-83.1154 72.5349-82.0683Q71.4798-81.0211 69.8334-81.0211ZM57.0557-26.7342Q48.1094-26.783 40.9351-27.1172Q33.7608-27.4513 29.821-27.9396Q27.3911-28.2478 26.2379-29.7691Q25.0847-31.2904 25.0847-33.5899L25.0847-45.7985Q25.0847-50.6523 25.3777-54.9137Q25.6706-59.1751 26.0868-62.3543Q26.503-65.5334 26.8318-67.1341Q27.2224-69.0094 28.4164-70.2621Q29.6104-71.5149 31.4369-71.7255Q35.5247-72.2298 41.4707-72.4983Q47.4167-72.7669 57.0557-72.8157Q66.6641-72.8333 72.5842-72.5315Q78.5042-72.2298 82.5417-71.7255Q84.4345-71.5149 85.6453-70.2621Q86.8561-69.0094 87.2467-67.1341Q87.5748-65.5334 87.991-62.3543Q88.4071-59.1751 88.7001-54.9137Q88.9931-50.6523 88.9931-45.7985L88.9931-33.5899Q88.9931-31.2569 87.8403-29.7356Q86.6875-28.2143 84.2575-27.9396Q78.9078-27.3514 71.7258-27.0504Q64.5439-26.7494 57.0557-26.7342ZM33.4343-4.32663Q30.4604-4.32663 28.5107-6.29196Q26.561-8.25729 26.561-11.2648Q26.561-14.2715 28.5187-16.2292Q30.4764-18.187 33.4343-18.187Q36.4418-18.187 38.4159-16.2292Q40.39-14.2715 40.39-11.2648Q40.39-8.25729 38.3995-6.29196Q36.409-4.32663 33.4343-4.32663ZM80.6107-4.29306Q77.636-4.29306 75.621-6.29196Q73.6061-8.29086 73.6061-11.2648Q73.6061-14.2387 75.621-16.2296Q77.636-18.2205 80.6107-18.2205Q83.5846-18.2205 85.5675-16.2296Q87.5504-14.2387 87.5504-11.2648Q87.5504-8.29086 85.5431-6.29196Q83.5358-4.29306 80.6107-4.29306ZM20.8824 29.2282L24.16 29.2282Q26.4503 29.2282 27.6909 27.1957L42.8627 2.75192L31.4247 2.75192L18.2037 23.9868Q17.4911 25.1518 17.6056 26.3611Q17.72 27.5703 18.56 28.3993Q19.4 29.2282 20.8824 29.2282ZM25.9712 22.8432L87.6816 22.8432L87.6816 14.1525L25.9712 14.1525ZM89.5409 29.2282L92.4461 29.2282Q93.8957 29.2282 94.8044 28.3749Q95.713 27.5215 95.8649 26.2745Q96.0167 25.0275 95.211 23.7381L82.2281 2.75192L70.7901 2.75192L85.9619 27.1957Q87.2353 29.2282 89.5409 29.2282Z"/>
  </g>
  <g id="Medium-M" transform="matrix(1 0 0 1 1691.04 1126)">
   <path d="M27.7664 5.91431L83.2726 5.91431Q88.1187 5.91431 91.5398 3.92036Q94.9608 1.92642 96.7743-1.63879Q98.5878-5.20401 98.5878-9.93958L98.5878-45.8893Q98.5878-52.5246 98.1236-58.4644Q97.6593-64.4043 96.8994-69.4305Q96.1395-74.4568 95.2156-78.3646Q94.1071-83.429 91.6901-87.228Q89.2731-91.0271 85.5423-93.3598Q81.8115-95.6924 76.741-96.299Q74.0456-96.6217 68.4055-96.9791Q62.7655-97.3366 55.5191-97.3366Q48.2735-97.3366 42.6334-96.9791Q36.9934-96.6217 34.2979-96.299Q29.1962-95.6924 25.4654-93.3598Q21.7346-91.0271 19.3333-87.228Q16.9319-83.429 15.8234-78.3646Q14.8682-74.4568 14.1041-69.4305Q13.34-64.4043 12.8956-58.4644Q12.4512-52.5246 12.4512-45.8893L12.4512-9.93958Q12.4512-5.20401 14.2647-1.63879Q16.0782 1.92642 19.4992 3.92036Q22.9202 5.91431 27.7664 5.91431ZM42.8436-80.5695Q41.3185-80.5695 40.3896-81.5182Q39.4608-82.4669 39.4608-83.992Q39.4608-85.495 40.3896-86.4281Q41.3185-87.3611 42.8436-87.3611L68.1549-87.3611Q69.6808-87.3611 70.6383-86.4281Q71.5958-85.495 71.5958-83.992Q71.5958-82.4753 70.6383-81.5224Q69.6808-80.5695 68.1549-80.5695ZM55.5191-27.253Q46.7682-27.3018 39.55-27.639Q32.3318-27.9762 28.3859-28.4645Q26.0567-28.7666 25.0015-30.2105Q23.9464-31.6544 23.9464-33.8455L23.9464-45.6299Q23.9464-50.5173 24.2393-54.752Q24.5323-58.9867 24.9584-62.1422Q25.3845-65.2977 25.7401-66.9456Q26.1307-68.7057 27.2305-69.8811Q28.3302-71.0564 30.0423-71.2608Q34.1568-71.7575 40.0017-72.0261Q45.8466-72.2946 55.5191-72.3434Q65.1749-72.3747 70.9839-72.0661Q76.7929-71.7575 80.8365-71.2608Q82.6286-71.0564 83.7482-69.8811Q84.8679-68.7057 85.2585-66.9456Q85.614-65.2977 86.0405-62.1422Q86.467-58.9867 86.7599-54.752Q87.0529-50.5173 87.0529-45.6299L87.0529-33.8455Q87.0529-31.6139 85.9978-30.1704Q84.9426-28.727 82.6134-28.4645Q77.021-27.8564 69.7987-27.5593Q62.5763-27.2621 55.5191-27.253ZM32.296-5.03387Q29.3625-5.03387 27.4429-6.9622Q25.5234-8.89053 25.5234-11.8645Q25.5234-14.8376 27.4471-16.7618Q29.3709-18.6859 32.296-18.6859Q35.2692-18.6859 37.2131-16.7618Q39.1571-14.8376 39.1571-11.8645Q39.1571-8.89053 37.1933-6.9622Q35.2295-5.03387 32.296-5.03387ZM78.6629-4.9942Q75.7294-4.9942 73.7411-6.96259Q71.7529-8.93097 71.7529-11.8645Q71.7529-14.798 73.7411-16.7618Q75.7294-18.7256 78.6629-18.7256Q81.5964-18.7256 83.556-16.7618Q85.5156-14.798 85.5156-11.8645Q85.5156-8.93097 83.5316-6.96259Q81.5475-4.9942 78.6629-4.9942ZM20.4445 27.7321L23.4863 27.7321Q25.5882 27.7321 26.7136 25.8614L41.3193 2.3201L30.7976 2.3201L17.9749 22.9218Q17.2958 24.0265 17.4137 25.1347Q17.5316 26.2428 18.314 26.9875Q19.0964 27.7321 20.4445 27.7321ZM25.1892 21.4485L85.6529 21.4485L85.6529 13.3507L25.1892 13.3507ZM87.4054 27.7321L90.2359 27.7321Q91.5436 27.7321 92.3546 26.963Q93.1656 26.194 93.2941 25.0751Q93.4227 23.9563 92.691 22.7814L80.0446 2.3201L69.5236 2.3201L84.1286 25.8614Q85.2951 27.7321 87.4054 27.7321Z"/>
  </g>
  <g id="Regular-M" transform="matrix(1 0 0 1 1396.33 1126)">
   <path d="M26.123 4.29688L80.9082 4.29688Q85.2539 4.29688 88.3057 2.46582Q91.3574 0.634766 92.9688-2.58789Q94.5801-5.81055 94.5801-10.0098L94.5801-45.0195Q94.5801-51.5137 94.0674-57.7393Q93.5547-63.9648 92.7246-69.3604Q91.8945-74.7559 90.918-78.7598Q89.9414-82.9102 87.7441-86.2305Q85.5469-89.5508 82.251-91.6504Q78.9551-93.75 74.6582-94.1895Q72.3145-94.4336 66.626-94.7998Q60.9375-95.166 53.5156-95.166Q46.0938-95.166 40.4053-94.7998Q34.7168-94.4336 32.373-94.1895Q28.0273-93.75 24.7314-91.6504Q21.4355-89.5508 19.2627-86.2305Q17.0898-82.9102 16.1133-78.7598Q15.0879-74.7559 14.2578-69.3604Q13.4277-63.9648 12.9395-57.7393Q12.4512-51.5137 12.4512-45.0195L12.4512-10.0098Q12.4512-5.81055 14.0625-2.58789Q15.6738 0.634766 18.7256 2.46582Q21.7773 4.29688 26.123 4.29688ZM41.0156-79.9805Q39.6484-79.9805 38.8428-80.8105Q38.0371-81.6406 38.0371-83.0078Q38.0371-84.3262 38.8428-85.1318Q39.6484-85.9375 41.0156-85.9375L65.9668-85.9375Q67.334-85.9375 68.1641-85.1318Q68.9941-84.3262 68.9941-83.0078Q68.9941-81.6406 68.1641-80.8105Q67.334-79.9805 65.9668-79.9805ZM53.5156-27.9297Q45.0195-27.9785 37.7441-28.3203Q30.4688-28.6621 26.5137-29.1504Q24.3164-29.4434 23.3887-30.7861Q22.4609-32.1289 22.4609-34.1797L22.4609-45.4102Q22.4609-50.3418 22.7539-54.541Q23.0469-58.7402 23.4863-61.8652Q23.9258-64.9902 24.3164-66.6992Q24.707-68.3105 25.6836-69.3848Q26.6602-70.459 28.2227-70.6543Q32.373-71.1426 38.0859-71.4111Q43.7988-71.6797 53.5156-71.7285Q63.2324-71.7773 68.8965-71.46Q74.5605-71.1426 78.6133-70.6543Q80.2734-70.459 81.2744-69.3848Q82.2754-68.3105 82.666-66.6992Q83.0566-64.9902 83.4961-61.8652Q83.9355-58.7402 84.2285-54.541Q84.5215-50.3418 84.5215-45.4102L84.5215-34.1797Q84.5215-32.0801 83.5938-30.7373Q82.666-29.3945 80.4688-29.1504Q74.5605-28.5156 67.2852-28.2227Q60.0098-27.9297 53.5156-27.9297ZM30.8105-5.95703Q27.9297-5.95703 26.0498-7.83691Q24.1699-9.7168 24.1699-12.6465Q24.1699-15.5762 26.0498-17.4561Q27.9297-19.3359 30.8105-19.3359Q33.7402-19.3359 35.6445-17.4561Q37.5488-15.5762 37.5488-12.6465Q37.5488-9.7168 35.6201-7.83691Q33.6914-5.95703 30.8105-5.95703ZM76.123-5.9082Q73.2422-5.9082 71.2891-7.83691Q69.3359-9.76562 69.3359-12.6465Q69.3359-15.5273 71.2891-17.4561Q73.2422-19.3848 76.123-19.3848Q79.0039-19.3848 80.9326-17.4561Q82.8613-15.5273 82.8613-12.6465Q82.8613-9.76562 80.9082-7.83691Q78.9551-5.9082 76.123-5.9082ZM19.873 25.7812L22.6074 25.7812Q24.4629 25.7812 25.4395 24.1211L39.3066 1.75781L29.9805 1.75781L17.6758 21.5332Q17.041 22.5586 17.1631 23.5352Q17.2852 24.5117 17.9932 25.1465Q18.7012 25.7812 19.873 25.7812ZM24.1699 19.6289L83.0078 19.6289L83.0078 12.3047L24.1699 12.3047ZM84.6191 25.7812L87.3535 25.7812Q88.4766 25.7812 89.1602 25.1221Q89.8438 24.4629 89.9414 23.5107Q90.0391 22.5586 89.4043 21.5332L77.1973 1.75781L67.8711 1.75781L81.7383 24.1211Q82.7637 25.7812 84.6191 25.7812Z"/>
  </g>
  <g id="Light-M" transform="matrix(1 0 0 1 1099.63 1126)">
   <path d="M27.1523 4.91714L79.8485 4.91714Q84.8 4.91714 88.0558 2.9274Q91.3116 0.937653 92.9306-2.46658Q94.5496-5.87082 94.5496-10.1158L94.5496-43.6722Q94.5496-50.7568 93.9461-57.444Q93.3426-64.1312 92.4065-69.7613Q91.4703-75.3914 90.4793-79.2892Q89.5172-83.1223 87.4336-86.1397Q85.35-89.1571 82.2662-91.0522Q79.1824-92.9474 75.2487-93.3723Q72.2992-93.7073 66.5352-94.0735Q60.7712-94.4397 53.5004-94.4397Q46.2303-94.4397 40.4583-94.0735Q34.6863-93.7073 31.7528-93.3723Q27.7702-92.9474 24.6937-91.0522Q21.6171-89.1571 19.5427-86.1397Q17.4683-83.1223 16.5222-79.2892Q15.4816-75.3914 14.5531-69.7613Q13.6246-64.1312 13.0379-57.444Q12.4512-50.7568 12.4512-43.6722L12.4512-10.1158Q12.4512-5.87082 14.0625-2.46658Q15.6738 0.937653 18.9377 2.9274Q22.2015 4.91714 27.1523 4.91714ZM40.7585-79.3602Q39.5424-79.3602 38.8504-80.0919Q38.1584-80.8235 38.1584-82.0091Q38.1584-83.1451 38.8504-83.86Q39.5424-84.5749 40.7585-84.5749L66.2086-84.5749Q67.4095-84.5749 68.1263-83.86Q68.8431-83.1451 68.8431-82.0091Q68.8431-80.8235 68.1263-80.0919Q67.4095-79.3602 66.2086-79.3602ZM53.5004-26.4618Q45.3827-26.5106 38.554-26.8143Q31.7253-27.1179 27.5124-27.5612Q25.1945-27.8389 24.0852-29.2648Q22.9759-30.6908 22.9759-32.9231L22.9759-44.5473Q22.9759-49.176 23.2613-53.2543Q23.5466-57.3326 23.9937-60.6014Q24.4408-63.8702 24.9069-66.0789Q25.2823-67.8864 26.3798-69.059Q27.4773-70.2316 29.1763-70.4269Q33.4023-70.8855 39.0472-71.154Q44.6922-71.4226 53.5004-71.4561Q62.2635-71.4897 67.8444-71.1952Q73.4253-70.9007 77.4323-70.4422Q79.2892-70.2316 80.4646-69.059Q81.6399-67.8864 82.0152-66.0789Q82.4814-63.8702 82.9285-60.6014Q83.3755-57.3326 83.6609-53.2543Q83.9462-49.176 83.9462-44.5473L83.9462-32.9231Q83.9462-30.6572 82.8369-29.2313Q81.7276-27.8053 79.409-27.5612Q73.8945-27.0172 67.0807-26.7467Q60.2669-26.4763 53.5004-26.4618ZM30.7198-5.62439Q28.0052-5.62439 26.2238-7.39822Q24.4423-9.17206 24.4423-11.9202Q24.4423-14.6683 26.2238-16.4497Q28.0052-18.2312 30.7198-18.2312Q33.4526-18.2312 35.2585-16.4497Q37.0644-14.6683 37.0644-11.9202Q37.0644-9.17206 35.2417-7.39822Q33.419-5.62439 30.7198-5.62439ZM76.2596-5.59006Q73.5451-5.59006 71.7052-7.39784Q69.8654-9.20563 69.8654-11.9202Q69.8654-14.6339 71.7052-16.4494Q73.5451-18.2648 76.2596-18.2648Q78.9734-18.2648 80.7812-16.4494Q82.589-14.6339 82.589-11.9202Q82.589-9.20563 80.7568-7.39784Q78.9246-5.59006 76.2596-5.59006ZM20.0851 24.7215L22.5014 24.7215Q24.0997 24.7215 24.9397 23.304L37.8082 2.59018L29.8744 2.59018L18.2961 21.1853Q17.7521 22.0436 17.844 22.8539Q17.9359 23.6641 18.5154 24.1928Q19.0948 24.7215 20.0851 24.7215ZM24.6994 18.8263L82.3723 18.8263L82.3723 12.5168L24.6994 12.5168ZM84.6039 24.7215L87.0209 24.7215Q87.9768 24.7215 88.5395 24.176Q89.1022 23.6305 89.1769 22.8371Q89.2517 22.0436 88.7077 21.1853L77.1973 2.59018L69.2635 2.59018L82.132 23.304Q83.0055 24.7215 84.6039 24.7215Z"/>
  </g>
  <g id="Thin-M" transform="matrix(1 0 0 1 802.942 1126)">
   <path d="M28.5133 5.73807L78.4477 5.73807Q84.1995 5.73807 87.7258 3.53813Q91.2521 1.3382 92.881-2.30637Q94.5099-5.95093 94.5099-10.2562L94.5099-41.8907Q94.5099-49.7559 93.7862-57.0538Q93.0626-64.3517 91.9865-70.2919Q90.9103-76.2321 89.8987-79.9904Q88.9572-83.4023 87.0235-86.0195Q85.0899-88.6368 82.2861-90.2618Q79.4823-91.8869 76.0292-92.2913Q72.2794-92.746 66.415-93.1122Q60.5507-93.4784 53.4805-93.4784Q46.4104-93.4784 40.5285-93.1122Q34.6466-92.746 30.9319-92.2913Q27.43-91.8869 24.6437-90.2618Q21.8575-88.6368 19.9131-86.0195Q17.9688-83.4023 17.0624-79.9904Q16.0019-76.2321 14.9433-70.2919Q13.8847-64.3517 13.168-57.0538Q12.4512-49.7559 12.4512-41.8907L12.4512-10.2562Q12.4512-5.95093 14.0625-2.30637Q15.6738 1.3382 19.2177 3.53813Q22.7615 5.73807 28.5133 5.73807ZM40.4182-78.5393Q39.402-78.5393 38.8603-79.1409Q38.3186-79.7424 38.3186-80.6877Q38.3186-81.5842 38.8603-82.1789Q39.402-82.7736 40.4182-82.7736L66.5291-82.7736Q67.5095-82.7736 68.0759-82.1789Q68.6424-81.5842 68.6424-80.6877Q68.6424-79.7424 68.0759-79.1409Q67.5095-78.5393 66.5291-78.5393ZM53.4805-24.5193Q45.8633-24.5682 39.6248-24.8222Q33.3862-25.0763 28.8338-25.4593Q26.3557-25.7172 25.0061-27.2533Q23.6565-28.7895 23.6565-31.2622L23.6565-43.4067Q23.6565-47.6349 23.9319-51.553Q24.2073-55.471 24.6643-58.9298Q25.1213-62.3886 25.6874-65.258Q26.0429-67.3264 27.3006-68.6291Q28.5583-69.9318 30.4375-70.1271Q34.7633-70.5452 40.3183-70.8138Q45.8733-71.0823 53.4805-71.096Q60.9825-71.1098 66.4532-70.845Q71.9238-70.5803 75.8713-70.1622Q77.9884-69.9318 79.3938-68.6291Q80.7991-67.3264 81.1546-65.258Q81.7207-62.3886 82.1777-58.9298Q82.6347-55.471 82.9102-51.553Q83.1856-47.6349 83.1856-43.4067L83.1856-31.2622Q83.1856-28.7758 81.8359-27.2396Q80.4863-25.7034 78.0083-25.4593Q73.0141-25.0351 66.8106-24.7952Q60.6071-24.5552 53.4805-24.5193ZM30.6-5.18341Q28.1052-5.18341 26.4538-6.81725Q24.8024-8.45108 24.8024-10.9589Q24.8024-13.4666 26.4538-15.118Q28.1052-16.7694 30.6-16.7694Q33.0727-16.7694 34.7485-15.118Q36.4243-13.4666 36.4243-10.9589Q36.4243-8.45108 34.7416-6.81725Q33.0589-5.18341 30.6-5.18341ZM76.4397-5.16968Q73.9456-5.16968 72.2561-6.81725Q70.5666-8.46481 70.5666-10.9589Q70.5666-13.4529 72.2561-15.118Q73.9456-16.7831 76.4397-16.7831Q78.9337-16.7831 80.5813-15.118Q82.2289-13.4529 82.2289-10.9589Q82.2289-8.46481 80.5569-6.81725Q78.8849-5.16968 76.4397-5.16968ZM20.3651 23.3208L22.361 23.3208Q23.6191 23.3208 24.279 22.2229L35.8261 3.6911L29.734 3.6911L19.117 20.7245Q18.6935 21.3631 18.745 21.9532Q18.7965 22.5433 19.2059 22.9321Q19.6152 23.3208 20.3651 23.3208ZM25.4005 17.7658L81.5315 17.7658L81.5315 12.7968L25.4005 12.7968ZM84.584 23.3208L86.5799 23.3208Q87.3161 23.3208 87.7186 22.9252Q88.121 22.5296 88.166 21.9463Q88.2111 21.3631 87.7869 20.7245L77.1973 3.6911L71.1052 3.6911L82.6523 22.2229Q83.326 23.3208 84.584 23.3208Z"/>
  </g>
  <g id="Ultralight-M" transform="matrix(1 0 0 1 506.241 1126)">
   <path d="M29.2107 6.15845L77.7298 6.15845Q83.8913 6.15845 87.5561 3.85056Q91.2209 1.54266 92.8551-2.22473Q94.4893-5.99213 94.4893-10.3279L94.4893-40.9782Q94.4893-49.2432 93.7042-56.8539Q92.9192-64.4646 91.7709-70.5639Q90.6227-76.6632 89.6011-80.349Q88.6696-83.5457 86.813-85.9577Q84.9564-88.3698 82.2964-89.8563Q79.6364-91.3429 76.429-91.7374Q72.2687-92.2539 66.3532-92.6201Q60.4378-92.9863 53.4698-92.9863Q46.5027-92.9863 40.5643-92.6201Q34.626-92.2539 30.5115-91.7374Q27.2552-91.3429 24.6178-89.8563Q21.9803-88.3698 20.1027-85.9577Q18.2251-83.5457 17.3393-80.349Q16.2689-76.6632 15.1436-70.5639Q14.0182-64.4646 13.2347-56.8539Q12.4512-49.2432 12.4512-40.9782L12.4512-10.3279Q12.4512-5.99213 14.0625-2.22473Q15.6738 1.54266 19.3615 3.85056Q23.0492 6.15845 29.2107 6.15845ZM40.2435-78.1189Q39.3303-78.1189 38.8653-78.6537Q38.4003-79.1885 38.4003-80.011Q38.4003-80.7838 38.8653-81.3171Q39.3303-81.8504 40.2435-81.8504L66.6931-81.8504Q67.5613-81.8504 68.0508-81.3171Q68.5402-80.7838 68.5402-80.011Q68.5402-79.1885 68.0508-78.6537Q67.5613-78.1189 66.6931-78.1189ZM53.4698-23.5252Q46.109-23.5741 40.1733-23.8022Q34.2377-24.0303 29.5105-24.382Q26.9501-24.63 25.4776-26.2226Q24.0051-27.8152 24.0051-30.4108L24.0051-42.8215Q24.0051-46.8452 24.2752-50.6813Q24.5453-54.5174 25.0076-58.0738Q25.47-61.6302 26.0872-64.8376Q26.4328-67.0387 27.7725-68.4082Q29.1122-69.7777 31.0837-69.973Q35.4607-70.3705 40.9695-70.639Q46.4783-70.9076 53.4698-70.9114Q60.3264-70.9145 65.7406-70.6654Q71.1548-70.4163 75.071-70.0188Q77.3216-69.7777 78.8448-68.4082Q80.368-67.0387 80.7137-64.8376Q81.3309-61.6302 81.7932-58.0738Q82.2556-54.5174 82.5256-50.6813Q82.7957-46.8452 82.7957-42.8215L82.7957-30.4108Q82.7957-27.8114 81.3232-26.2188Q79.8508-24.6262 77.2903-24.382Q72.5624-24.0204 66.6721-23.7953Q60.7819-23.5703 53.4698-23.5252ZM30.5382-4.95834Q28.157-4.95834 26.572-6.52008Q24.987-8.08182 24.987-10.4668Q24.987-12.8517 26.572-14.4363Q28.157-16.021 30.5382-16.021Q32.8773-16.021 34.4864-14.4363Q36.0954-12.8517 36.0954-10.4668Q36.0954-8.08182 34.4849-6.52008Q32.8743-4.95834 30.5382-4.95834ZM76.532-4.95453Q74.1501-4.95453 72.5376-6.52008Q70.9251-8.08563 70.9251-10.4668Q70.9251-12.8479 72.5376-14.4363Q74.1501-16.0248 76.532-16.0248Q78.9131-16.0248 80.4787-14.4363Q82.0442-12.8479 82.0442-10.4668Q82.0442-8.08563 80.4543-6.52008Q78.8643-4.95453 76.532-4.95453ZM20.5086 22.6028L22.2893 22.6028Q23.3734 22.6028 23.941 21.669L34.8114 4.25568L29.6623 4.25568L19.5374 20.4887Q19.175 21.0144 19.2062 21.4916Q19.2375 21.9688 19.5599 22.2858Q19.8822 22.6028 20.5086 22.6028ZM25.7591 17.2218L81.1005 17.2218L81.1005 12.9402L25.7591 12.9402ZM84.5734 22.6028L86.3548 22.6028Q86.9781 22.6028 87.2986 22.2839Q87.619 21.965 87.6484 21.4897Q87.6778 21.0144 87.3154 20.4887L77.1973 4.25568L72.049 4.25568L82.9193 21.669Q83.49 22.6028 84.5734 22.6028Z"/>
  </g>
  <g id="Black-S" transform="matrix(1 0 0 1 2881.94 696)">
   <path d="M28.3691 3.4668L74.5605 3.4668Q80.4199 3.4668 84.5703 1.24512Q88.7207-0.976562 90.9424-5.15137Q93.1641-9.32617 93.1641-15.1367L93.1641-46.9727Q93.1641-52.7832 92.9932-56.2988Q92.8223-59.8145 92.4805-62.3291Q92.1387-64.8438 91.6504-67.4805Q90.2832-75.0488 87.5-79.9316Q84.7168-84.8145 80.0781-87.5488Q75.4395-90.2832 68.457-91.4062Q64.8926-91.9922 60.6689-92.2363Q56.4453-92.4805 51.4648-92.4805Q46.4844-92.4805 42.2607-92.2363Q38.0371-91.9922 34.4727-91.4062Q27.4902-90.2832 22.8516-87.5488Q18.2129-84.8145 15.4541-79.9316Q12.6953-75.0488 11.2793-67.4805Q10.791-64.8438 10.4492-62.3291Q10.1074-59.8145 9.93652-56.2988Q9.76562-52.7832 9.76562-46.9727L9.76562-15.1367Q9.76562-9.32617 11.9873-5.15137Q14.209-0.976562 18.3838 1.24512Q22.5586 3.4668 28.3691 3.4668ZM40.8203-73.0469Q39.0137-73.0469 37.793-74.2676Q36.5723-75.4883 36.5723-77.2949Q36.5723-79.1504 37.793-80.3955Q39.0137-81.6406 40.8203-81.6406L62.1094-81.6406Q63.9648-81.6406 65.1855-80.3955Q66.4062-79.1504 66.4062-77.2949Q66.4062-75.4883 65.1855-74.2676Q63.9648-73.0469 62.1094-73.0469ZM51.4648-26.2207Q43.6523-26.2695 38.2324-26.5137Q32.8125-26.7578 29.7363-27.0996Q27.3926-27.3926 26.0498-28.9307Q24.707-30.4688 24.707-32.7637L24.707-44.1895Q24.707-47.8516 24.9512-51.2939Q25.1953-54.7363 25.4639-57.3486Q25.7324-59.9609 25.8789-61.0352Q26.1719-63.0371 27.5146-64.3555Q28.8574-65.6738 30.8105-65.8691Q33.9355-66.2598 39.0137-66.4795Q44.0918-66.6992 51.4648-66.748Q58.7402-66.6992 63.8672-66.4795Q68.9941-66.2598 72.1191-65.8691Q74.0723-65.6738 75.415-64.3555Q76.7578-63.0371 77.0508-61.0352Q77.1973-59.9609 77.4902-57.3486Q77.7832-54.7363 78.0029-51.2939Q78.2227-47.8516 78.2227-44.1895L78.2227-32.7637Q78.2227-30.4688 76.8799-28.9307Q75.5371-27.3926 73.1934-27.0996Q70.0684-26.7578 64.6484-26.5137Q59.2285-26.2695 51.4648-26.2207ZM31.2012-7.91016Q28.7109-7.91016 27.0508-9.59473Q25.3906-11.2793 25.3906-13.7695Q25.3906-16.2598 27.0752-17.9443Q28.7598-19.6289 31.2012-19.6289Q33.6914-19.6289 35.376-17.9443Q37.0605-16.2598 37.0605-13.7695Q37.0605-11.2793 35.376-9.59473Q33.6914-7.91016 31.2012-7.91016ZM71.7285-7.91016Q69.2383-7.91016 67.5537-9.59473Q65.8691-11.2793 65.8691-13.7695Q65.8691-16.2598 67.5537-17.9443Q69.2383-19.6289 71.7285-19.6289Q74.2188-19.6289 75.8789-17.9443Q77.5391-16.2598 77.5391-13.7695Q77.5391-11.2793 75.8545-9.59473Q74.1699-7.91016 71.7285-7.91016ZM18.3105 21.7773L21.875 21.7773Q24.5117 21.7773 25.9766 19.4824L40.2832-3.51562L27.3926-3.51562L15.332 15.8203Q14.2578 17.5781 14.9658 19.6777Q15.6738 21.7773 18.3105 21.7773ZM23.8281 16.3574L77.5879 16.3574L77.5879 6.98242L23.8281 6.98242ZM79.541 21.7773L82.1289 21.7773Q84.7656 21.7773 85.9131 19.5801Q87.0605 17.3828 85.6445 15.1367L74.0234-3.51562L61.1328-3.51562L75.4395 19.4824Q76.9043 21.7773 79.541 21.7773Z"/>
  </g>
  <g id="Heavy-S" transform="matrix(1 0 0 1 2587.47 696)">
   <path d="M26.387 1.577L72.0482 1.577Q77.2621 1.577 80.9746-0.443268Q84.687-2.46353 86.6783-6.22902Q88.6696-9.99451 88.6696-15.1947L88.6696-46.1662Q88.6696-51.7342 88.4583-55.5149Q88.2469-59.2957 87.8418-62.1906Q87.4367-65.0856 86.8904-67.8604Q85.6506-74.4499 83.1093-78.8254Q80.5679-83.2008 76.3901-85.6991Q72.2122-88.1973 66.037-89.1357Q62.9562-89.6294 58.6807-89.8853Q54.4052-90.1413 49.2172-90.1413Q44.03-90.1413 39.7545-89.8853Q35.479-89.6294 32.3982-89.1357Q26.2222-88.1973 22.0448-85.6991Q17.8673-83.2008 15.3446-78.8254Q12.822-74.4499 11.544-67.8604Q10.9985-65.0856 10.5934-62.1906Q10.1883-59.2957 9.97696-55.5149Q9.76562-51.7342 9.76562-46.1662L9.76562-15.1947Q9.76562-9.99451 11.7569-6.22902Q13.7482-2.46353 17.4793-0.443268Q21.2105 1.577 26.387 1.577ZM38.8039-72.4709Q37.1582-72.4709 36.0584-73.5645Q34.9586-74.6582 34.9586-76.3153Q34.9586-77.9976 36.0584-79.1103Q37.1582-80.2231 38.8039-80.2231L59.6313-80.2231Q61.3144-80.2231 62.4142-79.1103Q63.5139-77.9976 63.5139-76.3153Q63.5139-74.6582 62.4142-73.5645Q61.3144-72.4709 59.6313-72.4709ZM49.2172-27.166Q41.6359-27.2148 36.1004-27.4704Q30.5649-27.726 27.5124-28.0792Q25.3296-28.3493 24.1539-29.7665Q22.9782-31.1836 22.9782-33.2939L22.9782-44.0514Q22.9782-47.7936 23.2166-51.2131Q23.455-54.6326 23.7408-57.193Q24.0265-59.7534 24.2081-60.8391Q24.501-62.645 25.6939-63.8367Q26.8867-65.0284 28.6552-65.2122Q31.8031-65.6029 36.7432-65.8226Q41.6832-66.0423 49.2172-66.0912Q56.6772-66.0652 61.6543-65.834Q66.6313-65.6029 69.7678-65.2122Q71.5485-65.0284 72.7413-63.8367Q73.9342-62.645 74.2271-60.8391Q74.408-59.7534 74.707-57.193Q75.0061-54.6326 75.2316-51.2131Q75.457-47.7936 75.457-44.0514L75.457-33.2939Q75.457-31.1714 74.2813-29.7604Q73.1056-28.3493 70.9229-28.0792Q67.395-27.6917 61.8595-27.4475Q56.324-27.2034 49.2172-27.166ZM29.5532-8.98209Q27.0859-8.98209 25.4604-10.6319Q23.835-12.2818 23.835-14.7491Q23.835-17.205 25.4791-18.8492Q27.1233-20.4933 29.5532-20.4933Q32.0206-20.4933 33.6647-18.8492Q35.3088-17.205 35.3088-14.7491Q35.3088-12.2818 33.6529-10.6319Q31.9969-8.98209 29.5532-8.98209ZM68.8591-8.97064Q66.4032-8.97064 64.7476-10.6262Q63.092-12.2818 63.092-14.7491Q63.092-17.1936 64.7476-18.8492Q66.4032-20.5048 68.8591-20.5048Q71.3142-20.5048 72.9515-18.8492Q74.5888-17.1936 74.5888-14.7491Q74.5888-12.2818 72.9271-10.6262Q71.2654-8.97064 68.8591-8.97064ZM17.6422 19.7258L20.9068 19.7258Q23.2903 19.7258 24.6048 17.6384L38.2202-4.25339L26.4938-4.25339L14.917 14.3105Q13.9008 15.9645 14.5912 17.8452Q15.2817 19.7258 17.6422 19.7258ZM22.6181 14.4096L74.6956 14.4096L74.6956 5.78384L22.6181 5.78384ZM76.4175 19.7258L78.9368 19.7258Q81.2965 19.7258 82.3059 17.765Q83.3153 15.8043 82.0488 13.7886L70.8313-4.25339L59.0927-4.25339L72.7081 17.6384Q74.0349 19.7258 76.4175 19.7258Z"/>
  </g>
  <g id="Bold-S" transform="matrix(1 0 0 1 2293.27 696)">
   <path d="M24.1699-0.537109L69.2383-0.537109Q73.7305-0.537109 76.9531-2.33154Q80.1758-4.12598 81.9092-7.43408Q83.6426-10.7422 83.6426-15.2588L83.6426-45.2637Q83.6426-50.5615 83.3862-54.6387Q83.1299-58.7158 82.6538-62.0361Q82.1777-65.3564 81.5674-68.2861Q80.4688-73.7793 78.1982-77.5879Q75.9277-81.3965 72.2656-83.6304Q68.6035-85.8643 63.3301-86.5967Q60.791-86.9873 56.4575-87.2559Q52.124-87.5244 46.7041-87.5244Q41.2842-87.5244 36.9507-87.2559Q32.6172-86.9873 30.0781-86.5967Q24.8047-85.8643 21.1426-83.6304Q17.4805-81.3965 15.2222-77.5879Q12.9639-73.7793 11.8408-68.2861Q11.2305-65.3564 10.7544-62.0361Q10.2783-58.7158 10.022-54.6387Q9.76562-50.5615 9.76562-45.2637L9.76562-15.2588Q9.76562-10.7422 11.499-7.43408Q13.2324-4.12598 16.4673-2.33154Q19.7021-0.537109 24.1699-0.537109ZM36.5479-71.8262Q35.083-71.8262 34.1187-72.7783Q33.1543-73.7305 33.1543-75.2197Q33.1543-76.709 34.1187-77.6733Q35.083-78.6377 36.5479-78.6377L56.8604-78.6377Q58.3496-78.6377 59.314-77.6733Q60.2783-76.709 60.2783-75.2197Q60.2783-73.7305 59.314-72.7783Q58.3496-71.8262 56.8604-71.8262ZM46.7041-28.2227Q39.3799-28.2715 33.7158-28.54Q28.0518-28.8086 25.0244-29.1748Q23.0225-29.4189 22.0337-30.7007Q21.0449-31.9824 21.0449-33.8867L21.0449-43.8965Q21.0449-47.7295 21.2769-51.123Q21.5088-54.5166 21.814-57.019Q22.1191-59.5215 22.3389-60.6201Q22.6318-62.207 23.6572-63.2568Q24.6826-64.3066 26.2451-64.4775Q29.4189-64.8682 34.2041-65.0879Q38.9893-65.3076 46.7041-65.3564Q54.3701-65.3564 59.1797-65.1123Q63.9893-64.8682 67.1387-64.4775Q68.7256-64.3066 69.751-63.2568Q70.7764-62.207 71.0693-60.6201Q71.2891-59.5215 71.5942-57.019Q71.8994-54.5166 72.1313-51.123Q72.3633-47.7295 72.3633-43.8965L72.3633-33.8867Q72.3633-31.958 71.3745-30.6885Q70.3857-29.4189 68.3838-29.1748Q64.4043-28.7354 58.7402-28.4912Q53.0762-28.2471 46.7041-28.2227ZM27.71-10.1807Q25.2686-10.1807 23.6816-11.792Q22.0947-13.4033 22.0947-15.8447Q22.0947-18.2617 23.6938-19.8608Q25.293-21.46 27.71-21.46Q30.1514-21.46 31.7505-19.8608Q33.3496-18.2617 33.3496-15.8447Q33.3496-13.4033 31.7261-11.792Q30.1025-10.1807 27.71-10.1807ZM65.6494-10.1562Q63.2324-10.1562 61.6089-11.7798Q59.9854-13.4033 59.9854-15.8447Q59.9854-18.2373 61.6089-19.8608Q63.2324-21.4844 65.6494-21.4844Q68.0664-21.4844 69.6777-19.8608Q71.2891-18.2373 71.2891-15.8447Q71.2891-13.4033 69.6533-11.7798Q68.0176-10.1562 65.6494-10.1562ZM16.8945 17.4316L19.8242 17.4316Q21.9238 17.4316 23.0713 15.5762L35.9131-5.07812L25.4883-5.07812L14.4531 12.6221Q13.501 14.1602 14.1724 15.7959Q14.8438 17.4316 16.8945 17.4316ZM21.2646 12.2314L71.46 12.2314L71.46 4.44336L21.2646 4.44336ZM72.9248 17.4316L75.3662 17.4316Q77.417 17.4316 78.2715 15.7349Q79.126 14.0381 78.0273 12.2803L67.2607-5.07812L56.8115-5.07812L69.6533 15.5762Q70.8252 17.4316 72.9248 17.4316Z"/>
  </g>
  <g id="Semibold-S" transform="matrix(1 0 0 1 1998.3 696)">
   <path d="M22.641-1.99432L67.3012-1.99432Q71.2952-1.99432 74.1802-3.6335Q77.0653-5.27267 78.6209-8.2653Q80.1765-11.2579 80.1765-15.303L80.1765-44.6419Q80.1765-49.7528 79.8893-54.0344Q79.6021-58.316 79.0768-61.9297Q78.5515-65.5434 77.8969-68.5791Q76.8959-73.317 74.8123-76.7345Q72.7287-80.1521 69.4218-82.2041Q66.1148-84.256 61.4639-84.8457Q59.2979-85.1654 54.9244-85.4427Q50.5508-85.7201 44.9715-85.7201Q39.3913-85.7201 35.0178-85.4427Q30.6442-85.1654 28.4782-84.8457Q23.8274-84.256 20.5208-82.2041Q17.2142-80.1521 15.1379-76.7345Q13.0615-73.317 12.0453-68.5791Q11.3907-65.5434 10.8658-61.9297Q10.3409-58.316 10.0533-54.0344Q9.76562-49.7528 9.76562-44.6419L9.76562-15.303Q9.76562-11.2579 11.3213-8.2653Q12.8769-5.27267 15.7696-3.6335Q18.6623-1.99432 22.641-1.99432ZM34.993-71.3821Q33.6525-71.3821 32.7812-72.2363Q31.9099-73.0904 31.9099-74.4644Q31.9099-75.8202 32.7812-76.6823Q33.6525-77.5444 34.993-77.5444L54.95-77.5444Q56.3057-77.5444 57.1766-76.6823Q58.0475-75.8202 58.0475-74.4644Q58.0475-73.0904 57.1766-72.2363Q56.3057-71.3821 54.95-71.3821ZM44.9715-28.9513Q37.825-29.0001 32.0721-29.2774Q26.3191-29.5547 23.3093-29.9301Q21.4317-30.1567 20.5719-31.345Q19.7121-32.5333 19.7121-34.2957L19.7121-43.7897Q19.7121-47.6852 19.9394-51.0609Q20.1668-54.4365 20.4853-56.8989Q20.8038-59.3613 21.0503-60.4691Q21.3432-61.9049 22.253-62.8571Q23.1628-63.8092 24.5834-63.9709Q27.7748-64.3616 32.4532-64.5813Q37.1315-64.801 44.9715-64.8499Q52.7794-64.8674 57.4734-64.6145Q62.1674-64.3616 65.3259-63.9709Q66.7793-63.8092 67.6891-62.8571Q68.5989-61.9049 68.8919-60.4691Q69.1383-59.3613 69.4481-56.8989Q69.7578-54.4365 69.994-51.0609Q70.2301-47.6852 70.2301-43.7897L70.2301-34.2957Q70.2301-32.5005 69.3703-31.3286Q68.5104-30.1567 66.6328-29.9301Q62.3428-29.4556 56.5899-29.2114Q50.8369-28.9673 44.9715-28.9513ZM26.4389-11.0069Q24.0158-11.0069 22.4552-12.5916Q20.8946-14.1762 20.8946-16.6Q20.8946-18.9903 22.4628-20.5585Q24.0311-22.1268 26.4389-22.1268Q28.8628-22.1268 30.4306-20.5585Q31.9984-18.9903 31.9984-16.6Q31.9984-14.1762 30.3974-12.5916Q28.7964-11.0069 26.4389-11.0069ZM63.4369-10.9741Q61.0458-10.9741 59.4448-12.5751Q57.8438-14.1762 57.8438-16.6Q57.8438-18.9575 59.4448-20.5585Q61.0458-22.1596 63.4369-22.1596Q65.8272-22.1596 67.4206-20.5585Q69.014-18.9575 69.014-16.6Q69.014-14.1762 67.3962-12.5751Q65.7784-10.9741 63.4369-10.9741ZM16.3788 15.8501L19.0781 15.8501Q20.9816 15.8501 22.0139 14.1541L34.3224-5.64728L24.7948-5.64728L14.1335 11.4578Q13.2256 12.9158 13.8836 14.3829Q14.5416 15.8501 16.3788 15.8501ZM20.3316 10.7292L69.2291 10.7292L69.2291 3.51944L20.3316 3.51944ZM70.5162 15.8501L72.9042 15.8501Q74.7421 15.8501 75.4898 14.3353Q76.2375 12.8204 75.2548 11.2404L64.7987-5.64728L55.2383-5.64728L67.5468 14.1541Q68.6127 15.8501 70.5162 15.8501Z"/>
  </g>
  <g id="Medium-S" transform="matrix(1 0 0 1 1702.9 696)">
   <path d="M21.4821-3.09982L65.8318-3.09982Q69.4489-3.09982 72.0779-4.62074Q74.707-6.14166 76.128-8.89511Q77.549-11.6486 77.549-15.3366L77.549-44.1696Q77.549-49.1394 77.2377-53.5759Q76.9264-58.0124 76.3645-61.8484Q75.8026-65.6845 75.1144-68.8019Q74.1875-72.9668 72.245-76.088Q70.3026-79.2091 67.2653-81.1226Q64.2281-83.036 60.0487-83.5182Q58.1657-83.7845 53.7621-84.0683Q49.3584-84.3521 43.6569-84.3521Q37.9562-84.3521 33.5522-84.0683Q29.1481-83.7845 27.2659-83.5182Q23.0858-83.036 20.0489-81.1226Q17.012-79.2091 15.0738-76.088Q13.1355-72.9668 12.2002-68.8019Q11.512-65.6845 10.9497-61.8484Q10.3874-58.0124 10.0765-53.5759Q9.76562-49.1394 9.76562-44.1696L9.76562-15.3366Q9.76562-11.6486 11.1866-8.89511Q12.6076-6.14166 15.2409-4.62074Q17.8741-3.09982 21.4821-3.09982ZM33.8135-71.0449Q32.5676-71.0449 31.7673-71.825Q30.9669-72.6051 30.9669-73.8914Q30.9669-75.1465 31.7673-75.9312Q32.5676-76.7159 33.8135-76.7159L53.5011-76.7159Q54.7554-76.7159 55.5557-75.9312Q56.356-75.1465 56.356-73.8914Q56.356-72.6051 55.5557-71.825Q54.7554-71.0449 53.5011-71.0449ZM43.6569-29.5036Q36.6455-29.5525 30.825-29.8367Q25.0046-30.1208 22.0085-30.5031Q20.2255-30.7159 19.4633-31.8336Q18.7012-32.9514 18.7012-34.6054L18.7012-43.7088Q18.7012-47.6517 18.9251-51.0139Q19.149-54.3762 19.4778-56.8081Q19.8067-59.24 20.0729-60.3546Q20.3659-61.676 21.1884-62.5538Q22.0108-63.4315 23.3231-63.5872Q26.5282-63.9778 31.126-64.1975Q35.7239-64.4173 43.6569-64.4661Q51.5732-64.4974 56.1798-64.2376Q60.7864-63.9778 63.9511-63.5872Q65.3038-63.4315 66.1259-62.5538Q66.9479-61.676 67.2409-60.3546Q67.5079-59.24 67.8207-56.8081Q68.1335-54.3762 68.3735-51.0139Q68.6134-47.6517 68.6134-43.7088L68.6134-34.6054Q68.6134-32.9109 67.8513-31.8134Q67.0891-30.7159 65.3053-30.5031Q60.7796-30.0011 54.9591-29.7569Q49.1386-29.5128 43.6569-29.5036ZM25.4753-11.6341Q23.0652-11.6341 21.5252-13.1985Q19.9852-14.7629 19.9852-17.173Q19.9852-19.5427 21.5298-21.0873Q23.0743-22.6318 25.4753-22.6318Q27.8854-22.6318 29.43-21.0873Q30.9746-19.5427 30.9746-17.173Q30.9746-14.7629 29.39-13.1985Q27.8053-11.6341 25.4753-11.6341ZM61.7584-11.5936Q59.3887-11.5936 57.8041-13.1783Q56.2195-14.7629 56.2195-17.173Q56.2195-19.503 57.8041-21.0876Q59.3887-22.6723 61.7584-22.6723Q64.1289-22.6723 65.7089-21.0876Q67.289-19.503 67.289-17.173Q67.289-14.7629 65.6845-13.1783Q64.08-11.5936 61.7584-11.5936ZM15.9882 14.65L18.512 14.65Q20.2675 14.65 21.212 13.076L33.1161-6.07834L24.2699-6.07834L13.8908 10.5751Q13.0165 11.9728 13.6646 13.3114Q14.3127 14.65 15.9882 14.65ZM19.6243 9.59091L67.5377 9.59091L67.5377 2.8183L19.6243 2.8183ZM68.6905 14.65L71.0381 14.65Q72.7135 14.65 73.3807 13.2736Q74.0479 11.8973 73.1522 10.4523L62.9326-6.07834L54.0459-6.07834L65.95 13.076Q66.9342 14.65 68.6905 14.65Z"/>
  </g>
  <g id="Regular-S" transform="matrix(1 0 0 1 1407.9 696)">
   <path d="M19.9707-4.54102L63.916-4.54102Q67.041-4.54102 69.3359-5.9082Q71.6309-7.27539 72.876-9.7168Q74.1211-12.1582 74.1211-15.3809L74.1211-43.5547Q74.1211-48.3398 73.7793-52.9785Q73.4375-57.6172 72.8271-61.7432Q72.2168-65.8691 71.4844-69.0918Q70.6543-72.5098 68.8965-75.2441Q67.1387-77.9785 64.4531-79.7119Q61.7676-81.4453 58.2031-81.7871Q56.6895-81.9824 52.2461-82.2754Q47.8027-82.5684 41.9434-82.5684Q36.084-82.5684 31.6406-82.2754Q27.1973-81.9824 25.6836-81.7871Q22.1191-81.4453 19.4336-79.7119Q16.748-77.9785 14.9902-75.2441Q13.2324-72.5098 12.4023-69.0918Q11.6699-65.8691 11.0596-61.7432Q10.4492-57.6172 10.1074-52.9785Q9.76562-48.3398 9.76562-43.5547L9.76562-15.3809Q9.76562-12.1582 11.0107-9.7168Q12.2559-7.27539 14.5508-5.9082Q16.8457-4.54102 19.9707-4.54102ZM32.2754-70.6055Q31.1523-70.6055 30.4443-71.2891Q29.7363-71.9727 29.7363-73.1445Q29.7363-74.2676 30.4443-74.9512Q31.1523-75.6348 32.2754-75.6348L51.6113-75.6348Q52.7344-75.6348 53.4424-74.9512Q54.1504-74.2676 54.1504-73.1445Q54.1504-71.9727 53.4424-71.2891Q52.7344-70.6055 51.6113-70.6055ZM41.9434-30.2246Q35.1074-30.2734 29.1992-30.5664Q23.291-30.8594 20.3125-31.25Q18.6523-31.4453 18.0176-32.4707Q17.3828-33.4961 17.3828-35.0098L17.3828-43.6035Q17.3828-47.6074 17.6025-50.9521Q17.8223-54.2969 18.1641-56.6895Q18.5059-59.082 18.7988-60.2051Q19.0918-61.377 19.7998-62.1582Q20.5078-62.9395 21.6797-63.0859Q24.9023-63.4766 29.3945-63.6963Q33.8867-63.916 41.9434-63.9648Q50-64.0137 54.4922-63.7451Q58.9844-63.4766 62.1582-63.0859Q63.3789-62.9395 64.0869-62.1582Q64.7949-61.377 65.0879-60.2051Q65.3809-59.082 65.6982-56.6895Q66.0156-54.2969 66.2598-50.9521Q66.5039-47.6074 66.5039-43.6035L66.5039-35.0098Q66.5039-33.4473 65.8691-32.4463Q65.2344-31.4453 63.5742-31.25Q58.7402-30.7129 52.832-30.4688Q46.9238-30.2246 41.9434-30.2246ZM24.2188-12.4512Q21.8262-12.4512 20.3125-13.9893Q18.7988-15.5273 18.7988-17.9199Q18.7988-20.2637 20.3125-21.7773Q21.8262-23.291 24.2188-23.291Q26.6113-23.291 28.125-21.7773Q29.6387-20.2637 29.6387-17.9199Q29.6387-15.5273 28.0762-13.9893Q26.5137-12.4512 24.2188-12.4512ZM59.5703-12.4023Q57.2266-12.4023 55.6641-13.9648Q54.1016-15.5273 54.1016-17.9199Q54.1016-20.2148 55.6641-21.7773Q57.2266-23.3398 59.5703-23.3398Q61.9141-23.3398 63.4766-21.7773Q65.0391-20.2148 65.0391-17.9199Q65.0391-15.5273 63.4521-13.9648Q61.8652-12.4023 59.5703-12.4023ZM15.4785 13.0859L17.7734 13.0859Q19.3359 13.0859 20.166 11.6699L31.543-6.64062L23.584-6.64062L13.5742 9.42383Q12.7441 10.7422 13.3789 11.9141Q14.0137 13.0859 15.4785 13.0859ZM18.7012 8.10547L65.332 8.10547L65.332 1.9043L18.7012 1.9043ZM66.3086 13.0859L68.6035 13.0859Q70.0684 13.0859 70.6299 11.8896Q71.1914 10.6934 70.4102 9.42383L60.498-6.64062L52.4902-6.64062L63.8672 11.6699Q64.7461 13.0859 66.3086 13.0859Z"/>
  </g>
  <g id="Light-S" transform="matrix(1 0 0 1 1111.21 696)">
   <path d="M20.8786-3.99628L62.9776-3.99628Q66.6321-3.99628 69.1086-5.49965Q71.5851-7.00302 72.8378-9.6035Q74.0906-12.204 74.0906-15.4869L74.0906-42.3592Q74.0906-47.6738 73.6656-52.7287Q73.2407-57.7835 72.5395-62.1063Q71.8384-66.4291 71.0754-69.561Q70.2911-72.6913 68.6241-75.161Q66.9571-77.6306 64.4608-79.1824Q61.9644-80.7343 58.7326-81.076Q56.6742-81.3316 52.1702-81.6246Q47.6662-81.9176 41.9281-81.9176Q36.19-81.9176 31.686-81.6246Q27.182-81.3316 25.1236-81.076Q21.8918-80.7343 19.3954-79.1824Q16.8991-77.6306 15.2321-75.161Q13.5651-72.6913 12.7808-69.561Q12.0026-66.4291 11.3091-62.1063Q10.6155-57.7835 10.1906-52.7287Q9.76562-47.6738 9.76562-42.3592L9.76562-15.4869Q9.76562-12.204 11.0184-9.6035Q12.2711-7.00302 14.7476-5.49965Q17.2241-3.99628 20.8786-3.99628ZM32.048-70.0455Q31.0616-70.0455 30.452-70.6459Q29.8424-71.2463 29.8424-72.2664Q29.8424-73.2231 30.452-73.8235Q31.0616-74.424 32.048-74.424L51.8082-74.424Q52.7946-74.424 53.4042-73.8235Q54.0138-73.2231 54.0138-72.2664Q54.0138-71.2463 53.4042-70.6459Q52.7946-70.0455 51.8082-70.0455ZM41.9281-28.923Q35.4256-28.9719 29.9107-29.2271Q24.3958-29.4823 21.1906-29.8424Q19.4244-30.0377 18.6306-31.131Q17.8368-32.2243 17.8368-33.8898L17.8368-42.8467Q17.8368-46.5935 18.0489-49.8245Q18.261-53.0556 18.6104-55.5767Q18.9598-58.0978 19.3138-59.6451Q19.6068-60.9985 20.4205-61.8706Q21.2341-62.7426 22.5121-62.8891Q25.8102-63.2492 30.2498-63.4689Q34.6893-63.6887 41.9281-63.723Q49.1524-63.7566 53.569-63.5105Q57.9857-63.2645 61.129-62.9044Q62.516-62.7426 63.3678-61.8706Q64.2197-60.9985 64.5126-59.6451Q64.8659-58.0978 65.1985-55.5767Q65.5312-53.0556 65.76-49.8245Q65.9889-46.5935 65.9889-42.8467L65.9889-33.8898Q65.9889-32.1907 65.1955-31.1142Q64.402-30.0377 62.6358-29.8424Q58.1497-29.3808 52.6428-29.1595Q47.1359-28.9383 41.9281-28.923ZM24.128-12.1635Q21.9017-12.1635 20.4712-13.6032Q19.0407-15.0429 19.0407-17.2691Q19.0407-19.4611 20.4712-20.8916Q21.9017-22.3221 24.128-22.3221Q26.3542-22.3221 27.7843-20.8916Q29.2145-19.4611 29.2145-17.2691Q29.2145-15.0429 27.7504-13.6032Q26.2863-12.1635 24.128-12.1635ZM59.6916-12.13Q57.4989-12.13 56.0349-13.5864Q54.5708-15.0429 54.5708-17.2691Q54.5708-19.4275 56.0349-20.8916Q57.4989-22.3557 59.6916-22.3557Q61.8835-22.3557 63.3476-20.8916Q64.8117-19.4275 64.8117-17.2691Q64.8117-15.0429 63.3232-13.5864Q61.8347-12.13 59.6916-12.13ZM15.6601 12.1475L17.6826 12.1475Q19.0178 12.1475 19.7273 10.9436L30.2109-5.91431L23.4779-5.91431L14.119 9.12094Q13.4254 10.2127 13.9317 11.1801Q14.4379 12.1475 15.6601 12.1475ZM19.1704 7.40891L64.772 7.40891L64.772 2.08588L19.1704 2.08588ZM66.2933 12.1475L68.3159 12.1475Q69.5389 12.1475 69.9944 11.1629Q70.4498 10.1784 69.7899 9.12094L60.498-5.91431L53.7315-5.91431L64.1998 10.9436Q64.9582 12.1475 66.2933 12.1475Z"/>
  </g>
  <g id="Thin-S" transform="matrix(1 0 0 1 814.514 696)">
   <path d="M22.0802-3.2753L61.7363-3.2753Q66.0919-3.2753 68.8087-4.95911Q71.5256-6.64291 72.7882-9.4532Q74.0509-12.2635 74.0509-15.6273L74.0509-40.7776Q74.0509-46.7934 73.5157-52.3987Q72.9805-58.004 72.1592-62.587Q71.3379-67.17 70.5353-70.1813Q69.8105-72.9317 68.2636-75.0507Q66.7168-77.1698 64.4707-78.4813Q62.2246-79.7928 59.4337-80.1346Q56.6544-80.471 52.0702-80.764Q47.4861-81.057 41.9083-81.057Q36.3304-81.057 31.7463-80.764Q27.1622-80.471 24.3828-80.1346Q21.5919-79.7928 19.3459-78.4813Q17.0998-77.1698 15.5529-75.0507Q14.006-72.9317 13.2812-70.1813Q12.4435-67.17 11.6398-62.587Q10.836-58.004 10.3008-52.3987Q9.76562-46.7934 9.76562-40.7776L9.76562-15.6273Q9.76562-12.2635 11.0283-9.4532Q12.291-6.64291 15.0078-4.95911Q17.7246-3.2753 22.0802-3.2753ZM31.7482-69.3047Q30.9418-69.3047 30.4623-69.7948Q29.9828-70.285 29.9828-71.1052Q29.9828-71.8422 30.4623-72.3324Q30.9418-72.8226 31.7482-72.8226L52.0683-72.8226Q52.8748-72.8226 53.3543-72.3324Q53.8338-71.8422 53.8338-71.1052Q53.8338-70.285 53.3543-69.7948Q52.8748-69.3047 52.0683-69.3047ZM41.9083-27.2011Q35.8459-27.2499 30.8517-27.4551Q25.8575-27.6604 22.3518-27.9808Q20.4453-28.1761 19.4412-29.3594Q18.4372-30.5428 18.4372-32.4081L18.4372-41.8457Q18.4372-45.2522 18.6394-48.3334Q18.8416-51.4145 19.2009-54.1058Q19.5602-56.797 19.9944-58.9043Q20.2873-60.498 21.2414-61.4902Q22.1954-62.4825 23.613-62.6289Q27.0119-62.9494 31.3808-63.1691Q35.7498-63.3888 41.9083-63.4026Q48.0316-63.4163 52.3479-63.2004Q56.6643-62.9845 59.7679-62.664Q61.3754-62.4825 62.4172-61.4902Q63.459-60.498 63.752-58.9043Q64.1853-56.797 64.5382-54.1058Q64.8911-51.4145 65.0997-48.3334Q65.3084-45.2522 65.3084-41.8457L65.3084-32.4081Q65.3084-30.5298 64.3047-29.353Q63.3011-28.1761 61.3945-27.9808Q57.3692-27.6192 52.3926-27.4277Q47.4159-27.2362 41.9083-27.2011ZM24.0082-11.7836Q22.0016-11.7836 20.6814-13.0932Q19.3611-14.4028 19.3611-16.4085Q19.3611-18.4006 20.6814-19.7208Q22.0016-21.0411 24.0082-21.0411Q26.0139-21.0411 27.3342-19.7208Q28.6545-18.4006 28.6545-16.4085Q28.6545-14.4028 27.3205-13.0932Q25.9865-11.7836 24.0082-11.7836ZM59.8518-11.7699Q57.859-11.7699 56.525-13.0863Q55.191-14.4028 55.191-16.4085Q55.191-18.3868 56.525-19.7208Q57.859-21.0548 59.8518-21.0548Q61.8439-21.0548 63.1779-19.7208Q64.5119-18.3868 64.5119-16.4085Q64.5119-14.4028 63.1535-13.0863Q61.795-11.7699 59.8518-11.7699ZM15.9004 10.9062L17.5629 10.9062Q18.5974 10.9062 19.1467 9.9823L28.4492-4.953L23.3376-4.953L14.8399 8.7204Q14.3265 9.51157 14.6622 10.2089Q14.9979 10.9062 15.9004 10.9062ZM19.7906 6.48804L64.0312 6.48804L64.0312 2.3262L19.7906 2.3262ZM66.2735 10.9062L67.9359 10.9062Q68.8377 10.9062 69.1532 10.202Q69.4687 9.49783 68.969 8.7204L60.498-4.953L55.3726-4.953L64.6408 9.9823Q65.2382 10.9062 66.2735 10.9062Z"/>
  </g>
  <g id="Ultralight-S" transform="matrix(1 0 0 1 517.813 696)">
   <path d="M22.6952-2.90604L61.1008-2.90604Q65.815-2.90604 68.6546-4.68216Q71.4943-6.45828 72.7623-9.37653Q74.0303-12.2948 74.0303-15.699L74.0303-39.9673Q74.0303-46.3417 73.4386-52.2293Q72.847-58.1169 71.9643-62.833Q71.0815-67.5491 70.2583-70.4994Q69.5648-73.0545 68.0794-74.9943Q66.5939-76.9341 64.476-78.1227Q62.3581-79.3114 59.7923-79.6532Q56.6437-80.0301 52.0187-80.323Q47.3938-80.616 41.8976-80.616Q36.4021-80.616 31.7768-80.323Q27.1515-80.0301 24.0036-79.6532Q21.4378-79.3114 19.3199-78.1227Q17.202-76.9341 15.7166-74.9943Q14.2311-73.0545 13.5376-70.4994Q12.6686-67.5491 11.8088-62.833Q10.9489-58.1169 10.3573-52.2293Q9.76562-46.3417 9.76562-39.9673L9.76562-15.699Q9.76562-12.2948 11.0336-9.37653Q12.3016-6.45828 15.1413-4.68216Q17.981-2.90604 22.6952-2.90604ZM31.5941-68.9255Q30.88-68.9255 30.4672-69.3592Q30.0545-69.7929 30.0545-70.5109Q30.0545-71.1342 30.4672-71.5679Q30.88-72.0016 31.5941-72.0016L52.2018-72.0016Q52.916-72.0016 53.3287-71.5679Q53.7415-71.1342 53.7415-70.5109Q53.7415-69.7929 53.3287-69.3592Q52.916-68.9255 52.2018-68.9255ZM41.8976-26.3191Q36.0611-26.368 31.3335-26.5476Q26.606-26.7273 22.9462-27.0271Q20.9679-27.2224 19.8566-28.4519Q18.7454-29.6814 18.7454-31.6498L18.7454-41.333Q18.7454-44.5648 18.9423-47.5689Q19.1391-50.573 19.5038-53.3516Q19.8685-56.1302 20.343-58.5251Q20.636-60.2417 21.6618-61.2953Q22.6875-62.3489 24.1776-62.4954Q27.6268-62.7953 31.9603-63.015Q36.2938-63.2347 41.8976-63.2385Q47.4571-63.2416 51.7223-63.0413Q55.9875-62.841 59.0706-62.5412Q60.7903-62.3489 61.9297-61.2953Q63.0692-60.2417 63.3621-58.5251Q63.8367-56.1302 64.1994-53.3516Q64.5622-50.573 64.761-47.5689Q64.9597-44.5648 64.9597-41.333L64.9597-31.6498Q64.9597-29.6783 63.8481-28.4504Q62.7365-27.2224 60.759-27.0271Q56.9695-26.7166 52.2644-26.5408Q47.5594-26.3649 41.8976-26.3191ZM23.9464-11.5883Q22.0535-11.5883 20.7893-12.8311Q19.5251-14.0739 19.5251-15.9676Q19.5251-17.8566 20.7893-19.1208Q22.0535-20.385 23.9464-20.385Q25.8392-20.385 27.103-19.1208Q28.3669-17.8566 28.3669-15.9676Q28.3669-14.0739 27.0996-12.8311Q25.8324-11.5883 23.9464-11.5883ZM59.9335-11.5852Q58.0437-11.5852 56.7764-12.8296Q55.5092-14.0739 55.5092-15.9676Q55.5092-17.8535 56.7764-19.1208Q58.0437-20.388 59.9335-20.388Q61.8233-20.388 63.0905-19.1208Q64.3578-17.8535 64.3578-15.9676Q64.3578-14.0739 63.0661-12.8296Q61.7744-11.5852 59.9335-11.5852ZM16.0233 10.2707L17.5011 10.2707Q18.3823 10.2707 18.8492 9.4902L27.5467-4.46091L23.2658-4.46091L15.2092 8.51593Q14.7873 9.15298 15.0364 9.71184Q15.2855 10.2707 16.0233 10.2707ZM20.1088 6.01654L63.652 6.01654L63.652 2.44904L20.1088 2.44904ZM66.2628 10.2707L67.7406 10.2707Q68.4792 10.2707 68.7229 9.70993Q68.9667 9.14917 68.5486 8.51593L60.498-4.46091L56.2141-4.46091L64.8659 9.4902Q65.3816 10.2707 66.2628 10.2707Z"/>
  </g>
 </g>
</svg>
